<svg xmlns="http://www.w3.org/2000/svg" width="198" height="170" viewBox="0 0 198 170">
    <defs>
        <style>
            .prefix__cls-3{fill:#1d1d1b;opacity:.2}.prefix__cls-4{fill:#b6312f}.prefix__cls-6{fill:#ffe8e6}.prefix__cls-7{fill:#2ebbff}.prefix__cls-8{fill:#fff}.prefix__cls-11{fill:#ffc77a}.prefix__cls-12{fill:#a17c49}
        </style>
    </defs>
    <g id="prefix__Group_1016" data-name="Group 1016" transform="translate(-241.73 -27.18)">
        <g id="prefix__Group_1011" data-name="Group 1011" transform="translate(241.73 27.18)">
            <path id="prefix__Rectangle_785" d="M1.24 0H146.5a1.241 1.241 0 011.241 1.241v92.118A1.241 1.241 0 01146.5 94.6H1.24A1.24 1.24 0 010 93.359V1.24A1.24 1.24 0 011.24 0z" data-name="Rectangle 785" transform="translate(11.342 11.335)" style="fill:#32cbcb"/>
            <path id="prefix__Path_1951" d="M398.23 27.18H255.651a14.029 14.029 0 00-13.921 14.155V130.3a14.029 14.029 0 0013.921 14.155H398.23a14.029 14.029 0 0013.921-14.155V41.335A14.028 14.028 0 00398.23 27.18zM401 130.3a2.789 2.789 0 01-2.766 2.813H255.651a2.8 2.8 0 01-2.766-2.813V41.335a2.789 2.789 0 012.766-2.813H398.23a2.775 2.775 0 012.77 2.813z" data-name="Path 1951" transform="translate(-241.73 -27.18)" style="fill:#3c3c3b"/>
        </g>
        <path id="prefix__Path_1952" d="M360.8 78.2v8.756a14.144 14.144 0 01-14.155 14.155h-44.282l-7.077-11.342-9.482-15.2a8.619 8.619 0 0114.586-9.187l11.478 18.4c.045-.045.068-.091.113-.113a1.42 1.42 0 01.5-.159 8.613 8.613 0 0115.81-5.852l3.493 5.535a.313.313 0 00.091-.068 1.132 1.132 0 011.248.023 7.952 7.952 0 0114.676-4.31l1.656 2.631 2.7 4.287c.045-.045.068-.091.113-.113a1.222 1.222 0 011-.136 6.957 6.957 0 013.108-6.283A6.622 6.622 0 01360.8 78.2z" class="prefix__cls-3" data-name="Path 1952" transform="translate(51.355 42.21)"/>
        <g id="prefix__Group_1014" data-name="Group 1014" transform="translate(285.976 45.713)">
            <path id="prefix__Path_1953" d="M328.462 69.59c0 2.1-13.937 3.811-31.129 3.811S266.2 71.693 266.2 69.59s13.937-3.811 31.131-3.811 31.131 1.706 31.131 3.811z" class="prefix__cls-3" data-name="Path 1953" transform="translate(-256.033 3.245)"/>
            <path id="prefix__Path_1954" d="M277.863 35.35h-8.9v17.807l8.9-5.263z" class="prefix__cls-4" data-name="Path 1954" transform="translate(-252.535 -35.35)"/>
            <path id="prefix__Path_1955" d="M328.466 57.981V102.8H266.2V57.981L297.3 39.6l.023.012.012-.012h.023z" data-name="Path 1955" transform="translate(-256.033 -29.96)" style="fill:#e96b57"/>
            <path id="prefix__Path_1956" d="M300.975 63.666H266.2v8.6h62.258v-8.6z" class="prefix__cls-6" data-name="Path 1956" transform="translate(-256.032 .565)"/>
            <path id="prefix__Rectangle_786" d="M0 0H14.954V18.158H0z" class="prefix__cls-7" data-name="Rectangle 786" transform="translate(19.841 33.969)"/>
            <path id="prefix__Rectangle_787" d="M0 0H14.953V18.158H0z" class="prefix__cls-7" data-name="Rectangle 787" transform="translate(47.807 33.969)"/>
            <path id="prefix__Path_1957" d="M282.392 51.693a4.409 4.409 0 114.41-4.41 4.41 4.41 0 01-4.41 4.41z" class="prefix__cls-7" data-name="Path 1957" transform="translate(-241.092 -25.804)"/>
            <path id="prefix__Path_1958" d="M270.212 50.071v19.308h16.1V50.071zm14.953 1.15v4.6h-13.8v-4.6zm-13.8 5.821h6.29v11.187h-6.29zm7.513 11.188V57.042h6.29v11.187z" class="prefix__cls-8" data-name="Path 1958" transform="translate(-250.947 -16.678)"/>
            <path id="prefix__Path_1959" d="M298.644 50.071v19.308h-16.1V50.071zm-14.953 1.15v4.6h13.8v-4.6zm13.8 5.821H291.2v11.187h6.29zm-7.513 11.188V57.042h-6.29v11.187z" class="prefix__cls-8" data-name="Path 1959" transform="translate(-235.309 -16.678)"/>
            <path id="prefix__Path_1960" d="M282.616 42.7a4.812 4.812 0 104.813 4.811 4.817 4.817 0 00-4.813-4.811zm-.358.842v3.632h-3.614a3.987 3.987 0 013.614-3.634zm4.33 3.632h-3.611V43.54a3.983 3.983 0 013.611 3.631zm-7.944.676h3.614v3.632a3.981 3.981 0 01-3.614-3.635zm4.333 3.632v-3.635h3.614a3.983 3.983 0 01-3.614 3.632z" class="prefix__cls-8" data-name="Path 1960" transform="translate(-241.316 -26.03)"/>
            <path id="prefix__Rectangle_788" d="M0 0H20.849V1.869H0z" class="prefix__cls-6" data-name="Rectangle 788" transform="translate(16.893 52.701)"/>
            <path id="prefix__Rectangle_789" d="M0 0H20.849V1.869H0z" class="prefix__cls-6" data-name="Rectangle 789" transform="translate(44.859 52.701)"/>
            <g id="prefix__Group_1012" data-name="Group 1012" transform="translate(9.668 29.248)">
                <path id="prefix__Rectangle_790" d="M0 0H4.421V4.146H0z" class="prefix__cls-4" data-name="Rectangle 790"/>
                <path id="prefix__Rectangle_791" d="M0 0H4.421V4.146H0z" class="prefix__cls-4" data-name="Rectangle 791" transform="translate(0 7.381)"/>
                <path id="prefix__Rectangle_792" d="M0 0H4.421V4.146H0z" class="prefix__cls-4" data-name="Rectangle 792" transform="translate(0 14.762)"/>
                <path id="prefix__Rectangle_793" d="M0 0H4.421V4.146H0z" class="prefix__cls-4" data-name="Rectangle 793" transform="translate(0 22.143)"/>
                <path id="prefix__Rectangle_794" d="M0 0H4.421V4.146H0z" class="prefix__cls-4" data-name="Rectangle 794" transform="translate(0 29.523)"/>
            </g>
            <g id="prefix__Group_1013" data-name="Group 1013" transform="translate(68.511 29.248)">
                <path id="prefix__Rectangle_795" d="M0 0H4.421V4.146H0z" class="prefix__cls-4" data-name="Rectangle 795"/>
                <path id="prefix__Rectangle_796" d="M0 0H4.421V4.146H0z" class="prefix__cls-4" data-name="Rectangle 796" transform="translate(0 7.381)"/>
                <path id="prefix__Rectangle_797" d="M0 0H4.421V4.146H0z" class="prefix__cls-4" data-name="Rectangle 797" transform="translate(0 14.762)"/>
                <path id="prefix__Rectangle_798" d="M0 0H4.421V4.146H0z" class="prefix__cls-4" data-name="Rectangle 798" transform="translate(0 22.143)"/>
                <path id="prefix__Rectangle_799" d="M0 0H4.421V4.146H0z" class="prefix__cls-4" data-name="Rectangle 799" transform="translate(0 29.523)"/>
            </g>
            <path id="prefix__Path_1961" d="M276.1 46.129h1.76v-.576h-4.16v-3.037h4.162v-.574H276.1V38.9h1.76v-.574h-4.16V35.35h-.576v2.981h-4.164v.569h1.819v3.037h-1.819v.574h4.165v3.037h-4.165v.576h1.819v3.035h-1.819v.576h5.78l1.363-.805zm-4.75-4.187V38.9h4.176v3.037zm0 7.222v-3.035h4.176v3.035z" class="prefix__cls-8" data-name="Path 1961" transform="translate(-252.535 -35.35)"/>
            <path id="prefix__Path_1962" d="M344.32 61.128l-1.081 1.841-1.783 3.014-38.43-22.729-38.443 22.728-1.783-3.014-1.081-1.841 16.426-9.708L283.919 48l1.369-.805 1.76-1.047 15.977-9.432z" class="prefix__cls-4" data-name="Path 1962" transform="translate(-261.719 -33.613)"/>
            <path id="prefix__Path_1963" d="M328.466 58v2.485l-31.126-18.4-31.14 18.404v-2.473l31.126-18.4.012-.012h.023z" class="prefix__cls-3" data-name="Path 1963" transform="translate(-256.033 -29.96)"/>
            <path id="prefix__Rectangle_800" d="M0 0H20.849V2.04H0z" class="prefix__cls-3" data-name="Rectangle 800" transform="translate(16.893 54.571)"/>
            <path id="prefix__Rectangle_801" d="M0 0H20.849V2.04H0z" class="prefix__cls-3" data-name="Rectangle 801" transform="translate(44.859 54.571)"/>
        </g>
        <path id="prefix__Path_1964" d="M296.556 78.019A2.977 2.977 0 01293.58 81H278.2a2.979 2.979 0 01-2.978-2.978 2.978 2.978 0 012.978-2.976h15.38a2.976 2.976 0 012.976 2.976z" data-name="Path 1964" transform="translate(41.273 59.443)" style="fill:#eeeded"/>
        <g id="prefix__Group_1015" data-name="Group 1015" transform="translate(342.14 104.41)">
            <path id="prefix__Path_1965" d="M291.449 86.183a8.743 8.743 0 0112.365.02l21.692 22.366a8.861 8.861 0 01-12.714 12.338L291.1 98.539a8.739 8.739 0 01.349-12.356z" data-name="Path 1965" transform="translate(-285.413 -34.741)" style="fill:#ecb46b"/>
            <path id="prefix__Path_1966" d="M291.28 63.411a8.62 8.62 0 0111.893 2.689l25.707 41.187a8.626 8.626 0 01-14.59 9.205l-25.7-41.187a8.625 8.625 0 012.69-11.894z" class="prefix__cls-11" data-name="Path 1966" transform="translate(-287.256 -62.079)"/>
            <path id="prefix__Path_1967" d="M303.582 68.821a8.62 8.62 0 0111.893 2.693L332.1 97.865a8.626 8.626 0 01-14.59 9.205l-16.623-26.354a8.623 8.623 0 012.695-11.895z" class="prefix__cls-11" data-name="Path 1967" transform="translate(-271.655 -55.217)"/>
            <path id="prefix__Path_1968" d="M312.407 69.379a7.953 7.953 0 0110.972 2.484l15.336 24.31a7.956 7.956 0 01-13.458 8.49l-15.334-24.31a7.957 7.957 0 012.484-10.974z" class="prefix__cls-11" data-name="Path 1968" transform="translate(-260.064 -54.378)"/>
            <path id="prefix__Path_1969" d="M320.719 70.546a6.8 6.8 0 019.468 2.271l13.377 21.618a7.1 7.1 0 01-2.069 9.7 6.8 6.8 0 01-9.468-2.273l-13.375-21.621a7.1 7.1 0 012.067-9.695z" class="prefix__cls-11" data-name="Path 1969" transform="translate(-248.811 -52.684)"/>
            <path id="prefix__Path_1970" d="M355.5 77.141c8.3-.027 15.057 8.261 15.089 18.512l.066 21.347c.034 10.251-6.671 18.585-14.973 18.61l-42.085.134c-8.3.025-15.053-8.264-15.085-18.519l-.068-21.345c-.032-10.253 6.671-18.582 14.971-18.612z" class="prefix__cls-11" data-name="Path 1970" transform="translate(-273.065 -42.974)"/>
            <path id="prefix__Path_1971" d="M312.7 94.921a1.155 1.155 0 101.958-1.227l-13.377-21.316a1.156 1.156 0 00-1.958 1.229z" class="prefix__cls-12" data-name="Path 1971" transform="translate(-272.171 -49.701)"/>
            <path id="prefix__Path_1972" d="M321.469 94.683a1.156 1.156 0 001.96-1.227L310.048 72.14a1.156 1.156 0 10-1.958 1.229z" class="prefix__cls-12" data-name="Path 1972" transform="translate(-261.053 -50.005)"/>
            <path id="prefix__Path_1973" d="M328.665 92.908a1.166 1.166 0 001.958-1.227l-11.644-18.547a1.167 1.167 0 00-1.958 1.229z" class="prefix__cls-12" data-name="Path 1973" transform="translate(-249.673 -48.608)"/>
        </g>
        <path id="prefix__Path_1974" d="M328.37 27.18h-72.485a14.144 14.144 0 00-14.155 14.155V130.3a14.144 14.144 0 0014.155 14.155h72.485z" data-name="Path 1974" style="opacity:.1;fill:#1d1d1b"/>
    </g>
</svg>
