<svg xmlns="http://www.w3.org/2000/svg" id="bedroom" width="23.081" height="16.832" viewBox="0 0 23.081 16.832">
    <defs>
        <style>
            .cls-1{fill:#ff006f}
        </style>
    </defs>
    <path id="Path_129" d="M22.63 147.008h-2.375v-.608h.737a.451.451 0 0 0 .451-.451V143a.984.984 0 0 0-.983-.982h-1.9v-1.214h1a.564.564 0 0 0 .516-.79 6.493 6.493 0 0 1-.468-2 .82.82 0 0 0-.814-.752h-1.376a.82.82 0 0 0-.814.752 6.494 6.494 0 0 1-.468 2 .564.564 0 0 0 .516.79h1v1.214h-1.9a.984.984 0 0 0-.982.982v2.949a.451.451 0 0 0 .451.451h.737v.606h-2.409v-.97h.151a.451.451 0 0 0 .451-.451v-2.114a1.092 1.092 0 0 0-.921-1.077v-2.981a1.424 1.424 0 0 0-1.422-1.422h-8.68a1.424 1.424 0 0 0-1.422 1.422v2.987a1.092 1.092 0 0 0-.921 1.077v2.114a.451.451 0 0 0 .451.451h.152v.97H.451a.451.451 0 0 0 0 .9H22.63a.451.451 0 0 0 0-.9zm-5.13-8.841h1.218a7.811 7.811 0 0 0 .352 1.738h-1.925a7.813 7.813 0 0 0 .355-1.738zm-1.746 4.755h4.706a.081.081 0 0 1 .081.081v.758H15.67V143a.081.081 0 0 1 .081-.081zm-.081 1.74h4.871v.839H15.67zm1.188 1.74h2.5v.606h-2.5zm-14.25-6.986a.521.521 0 0 1 .52-.52h8.681a.521.521 0 0 1 .521.52v2.968H11.7v-1.019a.619.619 0 0 0-.361-.562l-.078-.036a3.168 3.168 0 0 0-2.641 0l-.078.036a.62.62 0 0 0-.361.562v1.019H6.9v-1.019a.619.619 0 0 0-.361-.562l-.078-.036a3.168 3.168 0 0 0-2.641 0l-.078.036a.62.62 0 0 0-.361.562v1.019h-.773zm8.188 2.968H9.081v-.835a2.269 2.269 0 0 1 1.715 0zm-4.794 0H4.287v-.835a2.267 2.267 0 0 1 1.715 0zm-3.715 4.624v-.97h5.419a.451.451 0 1 0 0-.9H1.687v-1.663a.189.189 0 0 1 .188-.188h11.187a.189.189 0 0 1 .188.188v1.663h-1.935a.451.451 0 1 0 0 .9h1.332v.97zm0 0" class="cls-1" data-name="Path 129" transform="translate(0 -131.078)"/>
    <path id="Path_130" d="M178.456 5.22a.967.967 0 0 0 .4.39h.01a.96.96 0 0 0 .4.1h5.494a.965.965 0 0 0 .966-.966V.966a.967.967 0 0 0-.964-.966H179.3a.967.967 0 0 0-.966.966v3.787a.959.959 0 0 0 .114.455l.006.012zm6.37-.467a.064.064 0 0 1-.034.057.062.062 0 0 1-.031.008h-5.267c.431-.687 1.1-1.656 1.777-1.705a2.65 2.65 0 0 1 1.476.58 3.77 3.77 0 0 0 2.078.762zM184.762.9a.064.064 0 0 1 .064.064v.553A.927.927 0 0 1 183.68.9zM179.3.9h3.456a1.831 1.831 0 0 0 1.808 1.556 1.821 1.821 0 0 0 .26-.018v1.114a2.943 2.943 0 0 1-1.6-.625 3.368 3.368 0 0 0-2.017-.713 2.967 2.967 0 0 0-1.968 1.377V.966A.064.064 0 0 1 179.3.9zm0 0" class="cls-1" data-name="Path 130" transform="translate(-170.297)"/>
    <path id="Path_131" d="M201.451 311.871a.451.451 0 0 0 0 .9.451.451 0 1 0 0-.9zm0 0" class="cls-1" data-name="Path 131" transform="translate(-191.939 -297.812)"/>
</svg>
