<svg xmlns="http://www.w3.org/2000/svg" width="344.348" height="191.948" viewBox="0 0 344.348 191.948">
    <defs>
        <style>
            .prefix__cls-2,.prefix__cls-24{fill:#b8f4f4}.prefix__cls-13,.prefix__cls-15,.prefix__cls-23,.prefix__cls-3,.prefix__cls-5,.prefix__cls-9{fill:none}.prefix__cls-3{stroke:#11909f;stroke-width:.785px}.prefix__cls-13,.prefix__cls-14,.prefix__cls-15,.prefix__cls-23,.prefix__cls-3,.prefix__cls-5,.prefix__cls-9{stroke-miterlimit:10}.prefix__cls-4{fill:#11909f}.prefix__cls-5{stroke:#0cc3c1}.prefix__cls-6{fill:#0cc3c1}.prefix__cls-14{fill:#c1fffe}.prefix__cls-14,.prefix__cls-15,.prefix__cls-9{stroke:#414d5b}.prefix__cls-13,.prefix__cls-9{stroke-width:1.776px}.prefix__cls-10{fill:#333d49}.prefix__cls-11{fill:#414d5b}.prefix__cls-13{stroke:#fce7b2}.prefix__cls-14,.prefix__cls-15{stroke-width:1.623px}.prefix__cls-16{fill:#defffe}.prefix__cls-17{fill:#fb7558}.prefix__cls-19{fill:#fff}.prefix__cls-20{fill:#fda535}.prefix__cls-21{fill:#fc4e28}.prefix__cls-22{fill:#fdb354}.prefix__cls-23{stroke:#fff;stroke-width:.158px}.prefix__cls-24{opacity:.81}
        </style>
    </defs>
    <g id="prefix__Group_239" data-name="Group 239" transform="translate(-90.686 -101.894)">
        <g id="prefix__Group_238" data-name="Group 238" transform="translate(90.686 101.894)">
            <g id="prefix__Group_237" data-name="Group 237">
                <g id="prefix__Group_236" data-name="Group 236">
                    <path id="prefix__Path_226" d="M435.034 371.764c0-5.223-77.085-9.456-172.174-9.456s-172.174 4.234-172.174 9.456c0 2.29 14.818 4.389 39.471 6.025-13.522 1.862-21.3 4.041-21.3 6.371 0 6.846 67.141 12.4 149.964 12.4s149.964-5.55 149.964-12.4c0-2.184-6.839-4.235-18.831-6.016 27.996-1.682 45.08-3.921 45.08-6.38z" data-name="Path 226" transform="translate(-90.686 -204.607)" style="fill:#e9e9e9"/>
                    <path id="prefix__Path_227" d="M124.466 265.506h289.65s56.208-129.872-19.86-157.388-109.571 46.937-171.961 16.589c-22.691-11.037-49.721-22.436-74.883-17.447-27.818 5.516-43.4 38.174-49.284 66.878-7.092 34.573 3.278 67.708 26.338 91.368z" class="prefix__cls-2" data-name="Path 227" transform="translate(-92.753 -101.894)"/>
                    <g id="prefix__Group_203" data-name="Group 203" transform="translate(269.32 82.394)">
                        <g id="prefix__Group_201" data-name="Group 201" transform="translate(17.433 10.507)">
                            <path id="prefix__Path_228" d="M608.9 268.89s-24.873 26.458-26.327 59.484" class="prefix__cls-3" data-name="Path 228" transform="translate(-571.448 -260.661)"/>
                            <path id="prefix__Path_229" d="M620.868 267.355s6.443-12.349 10.664-12.048c0 0-3.108 8.288-10.664 12.048z" class="prefix__cls-4" data-name="Path 229" transform="translate(-586.554 -255.302)"/>
                            <path id="prefix__Path_230" d="M613.7 273.222s-1.335-13.865 2.367-15.915c-.003 0 1.912 8.641-2.367 15.915z" class="prefix__cls-4" data-name="Path 230" transform="translate(-583.633 -256.093)"/>
                            <path id="prefix__Path_231" d="M603.442 287.169s-1.582-16.429 2.8-18.857c.004 0 2.273 10.238-2.8 18.857z" class="prefix__cls-4" data-name="Path 231" transform="translate(-579.571 -260.433)"/>
                            <path id="prefix__Path_232" d="M592.92 302.037s-6.452-18.466-2.087-22.5c0 .002 5.498 11.149 2.087 22.5z" class="prefix__cls-4" data-name="Path 232" transform="translate(-574.11 -264.862)"/>
                            <path id="prefix__Path_233" d="M584.119 319.2s-9.133-20.789-4.446-25.849c.001-.004 7.369 12.401 4.446 25.849z" class="prefix__cls-4" data-name="Path 233" transform="translate(-569.778 -270.308)"/>
                            <path id="prefix__Path_234" d="M576.324 340.353s-14.984-18.545-11.63-24.964c0 0 10.886 10.537 11.63 24.964z" class="prefix__cls-4" data-name="Path 234" transform="translate(-564.205 -279.002)"/>
                            <path id="prefix__Path_235" d="M613.651 279.967s11.844-7.331 15.32-4.918c0 0-6.903 5.54-15.32 4.918z" class="prefix__cls-4" data-name="Path 235" transform="translate(-583.707 -262.899)"/>
                            <path id="prefix__Path_236" d="M603.793 295.181s14.839-9.184 19.194-6.161c0 0-8.648 6.941-19.194 6.161z" class="prefix__cls-4" data-name="Path 236" transform="translate(-579.819 -268.36)"/>
                            <path id="prefix__Path_237" d="M595.106 310.941s17.816-11.027 23.045-7.4c0 .002-10.384 8.336-23.045 7.4z" class="prefix__cls-4" data-name="Path 237" transform="translate(-576.393 -274.04)"/>
                            <path id="prefix__Path_238" d="M588.226 328.41s22.612-14 29.248-9.388c0 0-13.179 10.578-29.248 9.388z" class="prefix__cls-4" data-name="Path 238" transform="translate(-573.679 -280.067)"/>
                            <path id="prefix__Path_239" d="M583.636 348.937s22.612-14 29.248-9.388c0 0-13.179 10.576-29.248 9.388z" class="prefix__cls-4" data-name="Path 239" transform="translate(-571.869 -288.164)"/>
                        </g>
                        <g id="prefix__Group_202" data-name="Group 202">
                            <path id="prefix__Path_240" d="M540.378 302.563s-10.3-13.871-1.217-34.383 2.94-30.369 12.321-30.227 8.347 18.04 7.045 31.465-.786 35.296-18.149 33.145z" class="prefix__cls-4" data-name="Path 240" transform="translate(-535.418 -237.951)"/>
                            <path id="prefix__Path_241" d="M553.025 247.788s1.737 39.155-9.286 65.21" class="prefix__cls-5" data-name="Path 241" transform="translate(-538.7 -241.831)"/>
                        </g>
                    </g>
                    <g id="prefix__Group_206" data-name="Group 206" transform="translate(10.147 82.332)">
                        <g id="prefix__Group_204" data-name="Group 204" transform="translate(0 17.012)">
                            <path id="prefix__Path_242" d="M121.843 278.676s28.7 22.25 35.292 54.644" class="prefix__cls-3" data-name="Path 242" transform="translate(-113.122 -270.964)"/>
                            <path id="prefix__Path_243" d="M119.856 277.4s-8.292-11.192-12.414-10.235c0 .001 4.364 7.702 12.414 10.235z" class="prefix__cls-4" data-name="Path 243" transform="translate(-107.442 -266.401)"/>
                            <path id="prefix__Path_244" d="M133.031 281.291s-.846-13.9-4.822-15.35c0 0-.543 8.834 4.822 15.35z" class="prefix__cls-4" data-name="Path 244" transform="translate(-115.627 -265.941)"/>
                            <path id="prefix__Path_245" d="M145.028 293.515s-1-16.474-5.714-18.188c0 0-.642 10.467 5.714 18.188z" class="prefix__cls-4" data-name="Path 245" transform="translate(-120.006 -269.643)"/>
                            <path id="prefix__Path_246" d="M157.926 306.4s3.49-19.247-1.451-22.548c0-.002-3.69 11.867 1.451 22.548z" class="prefix__cls-4" data-name="Path 246" transform="translate(-126.276 -273.005)"/>
                            <path id="prefix__Path_247" d="M168.63 321.955s5.775-21.959.355-26.226c.001 0-5.341 13.403-.355 26.226z" class="prefix__cls-4" data-name="Path 247" transform="translate(-130.737 -277.69)"/>
                            <path id="prefix__Path_248" d="M176.742 341.549s11.905-20.657 7.59-26.474c0 0-9.107 12.107-7.59 26.474z" class="prefix__cls-4" data-name="Path 248" transform="translate(-134.708 -285.321)"/>
                            <path id="prefix__Path_249" d="M126.008 288.987s-12.844-5.391-15.9-2.465c0 0 7.683 4.394 15.9 2.465z" class="prefix__cls-4" data-name="Path 249" transform="translate(-108.494 -273.715)"/>
                            <path id="prefix__Path_250" d="M135.64 302.805s-16.091-6.755-19.92-3.088c0 0 9.626 5.505 19.92 3.088z" class="prefix__cls-4" data-name="Path 250" transform="translate(-110.707 -278.833)"/>
                            <path id="prefix__Path_251" d="M144.217 317.343s-19.319-8.11-23.917-3.709c0 .001 11.557 6.61 23.917 3.709z" class="prefix__cls-4" data-name="Path 251" transform="translate(-112.513 -284.236)"/>
                            <path id="prefix__Path_252" d="M149.77 334.051s-24.52-10.293-30.355-4.707c0 .001 14.668 8.39 30.355 4.707z" class="prefix__cls-4" data-name="Path 252" transform="translate(-112.164 -290.294)"/>
                            <path id="prefix__Path_253" d="M157.509 353.61s-24.52-10.293-30.355-4.707c0-.003 14.668 8.39 30.355 4.707z" class="prefix__cls-4" data-name="Path 253" transform="translate(-115.217 -298.008)"/>
                        </g>
                        <g id="prefix__Group_205" data-name="Group 205" transform="translate(38.356)">
                            <path id="prefix__Path_254" d="M197.616 300.091s8.006-15.31-4.168-34.151-7.645-29.538-16.89-27.932-5.427 19.122-2.045 32.179 6.287 34.74 23.103 29.904z" class="prefix__cls-4" data-name="Path 254" transform="translate(-170.779 -237.85)"/>
                            <path id="prefix__Path_255" d="M184.7 247.376s4.4 38.946 19.355 62.96" class="prefix__cls-5" data-name="Path 255" transform="translate(-176.269 -241.607)"/>
                        </g>
                    </g>
                    <path id="prefix__Path_256" d="M497.886 347.441h74.863s-1.426-12.121-12.477-9.269c0 0 9.982-14.972-3.564-14.616s-12.834 3.565-12.834 3.565 8.2-16.755-6.061-17.468-11.764 14.617-11.764 14.617-2.139-11.052-10.694-7.13-1.07 13.547-1.07 13.547-8.912-2.5-8.912 2.852 2.139 6.773 2.139 6.773-14.261 1.782-9.626 7.129z" class="prefix__cls-6" data-name="Path 256" transform="translate(-250.929 -183.829)"/>
                    <path id="prefix__Path_257" d="M143.206 347.441h74.864s-1.426-12.121-12.477-9.269c0 0 9.982-14.972-3.565-14.616s-12.834 3.565-12.834 3.565 8.2-16.755-6.06-17.468-11.765 14.617-11.765 14.617-2.139-11.052-10.694-7.13-1.069 13.547-1.069 13.547-8.912-2.5-8.912 2.852 2.139 6.773 2.139 6.773-14.261 1.782-9.627 7.129z" class="prefix__cls-6" data-name="Path 257" transform="translate(-111.036 -183.829)"/>
                    <g id="prefix__Group_212" data-name="Group 212" transform="translate(78.076 47.533)">
                        <path id="prefix__Path_258" d="M231.317 238.534l29.217-33.067 29.217 33.067v67.823h-58.434v-67.823" data-name="Path 258" transform="translate(-224.23 -190.278)" style="fill:#fed64b"/>
                        <g id="prefix__Group_207" data-name="Group 207" transform="translate(27.368 39.32)">
                            <circle id="prefix__Ellipse_16" cx="8.935" cy="8.935" r="8.935" data-name="Ellipse 16" style="stroke-width:1.776px;stroke:#414d5b;fill:#c1fffe;stroke-miterlimit:10"/>
                            <path id="prefix__Line_2" d="M0 0L0 17.87" class="prefix__cls-9" data-name="Line 2" transform="translate(8.935)"/>
                            <path id="prefix__Line_3" d="M17.87 0L0 0" class="prefix__cls-9" data-name="Line 3" transform="translate(0 8.935)"/>
                        </g>
                        <path id="prefix__Rectangle_420" d="M0 0H31.238V5.198H0z" class="prefix__cls-10" data-name="Rectangle 420" transform="translate(20.685 110.881)"/>
                        <path id="prefix__Rectangle_421" d="M11.4 0a11.4 11.4 0 0111.4 11.4v27.437H0V11.4A11.4 11.4 0 0111.4 0z" class="prefix__cls-11" data-name="Rectangle 421" transform="translate(24.947 72.044)"/>
                        <g id="prefix__Group_208" data-name="Group 208" transform="translate(28.957 82.387)">
                            <path id="prefix__Rectangle_422" d="M0 0H5.066V25.961H0z" class="prefix__cls-10" data-name="Rectangle 422"/>
                            <path id="prefix__Rectangle_423" d="M0 0H5.066V25.961H0z" class="prefix__cls-10" data-name="Rectangle 423" transform="translate(8.865)"/>
                        </g>
                        <path id="prefix__Rectangle_424" d="M0 0H119.697V67.823H0z" data-name="Rectangle 424" transform="translate(65.521 48.256)" style="fill:#febf4b"/>
                        <path id="prefix__Path_259" d="M255.918 200.243l29.217 33.067h7.087l-36.3-41.088-36.3 41.088h7.078z" class="prefix__cls-11" data-name="Path 259" transform="translate(-219.615 -185.055)"/>
                        <path id="prefix__Path_260" d="M279.564 192.222h120.772l32.927 41.088H315.867z" class="prefix__cls-10" data-name="Path 260" transform="translate(-243.26 -185.055)"/>
                        <path id="prefix__Path_261" d="M438.083 198.116l-11.444-2.541v-15.189h11.444z" class="prefix__cls-11" data-name="Path 261" transform="translate(-301.27 -180.386)"/>
                        <path id="prefix__Line_4" d="M0 0L50.093 0" class="prefix__cls-13" data-name="Line 4" transform="translate(10.876 65.633)"/>
                        <path id="prefix__Line_5" d="M0 0L50.093 0" class="prefix__cls-13" data-name="Line 5" transform="translate(10.876 61.412)"/>
                        <g id="prefix__Group_209" data-name="Group 209" transform="translate(77.714 59.269)">
                            <path id="prefix__Rectangle_425" d="M12.341 0h31.625v24.683H12.341A12.341 12.341 0 010 12.341 12.341 12.341 0 0112.341 0z" class="prefix__cls-14" data-name="Rectangle 425" transform="rotate(90 12.341 12.342)"/>
                            <path id="prefix__Line_6" d="M0 0L0 43.966" class="prefix__cls-15" data-name="Line 6" transform="translate(12.341)"/>
                            <path id="prefix__Line_7" d="M0 0L24.683 0" class="prefix__cls-15" data-name="Line 7" transform="translate(0 13.571)"/>
                            <path id="prefix__Line_8" d="M0 0L24.683 0" class="prefix__cls-15" data-name="Line 8" transform="translate(0 30.026)"/>
                        </g>
                        <g id="prefix__Group_210" data-name="Group 210" transform="translate(114.481 59.269)">
                            <path id="prefix__Rectangle_426" d="M12.341 0h31.625v24.683H12.341A12.341 12.341 0 010 12.341 12.341 12.341 0 0112.341 0z" class="prefix__cls-14" data-name="Rectangle 426" transform="rotate(90 12.341 12.342)"/>
                            <path id="prefix__Line_9" d="M0 0L0 43.966" class="prefix__cls-15" data-name="Line 9" transform="translate(12.341)"/>
                            <path id="prefix__Line_10" d="M0 0L24.683 0" class="prefix__cls-15" data-name="Line 10" transform="translate(0 13.571)"/>
                            <path id="prefix__Line_11" d="M0 0L24.683 0" class="prefix__cls-15" data-name="Line 11" transform="translate(0 30.026)"/>
                        </g>
                        <g id="prefix__Group_211" data-name="Group 211" transform="translate(151.248 59.269)">
                            <path id="prefix__Rectangle_427" d="M12.341 0h31.625v24.683H12.341A12.341 12.341 0 010 12.341 12.341 12.341 0 0112.341 0z" class="prefix__cls-14" data-name="Rectangle 427" transform="rotate(90 12.341 12.342)"/>
                            <path id="prefix__Line_12" d="M0 0L0 43.966" class="prefix__cls-15" data-name="Line 12" transform="translate(12.341)"/>
                            <path id="prefix__Line_13" d="M0 0L24.683 0" class="prefix__cls-15" data-name="Line 13" transform="translate(0 13.571)"/>
                            <path id="prefix__Line_14" d="M0 0L24.683 0" class="prefix__cls-15" data-name="Line 14" transform="translate(0 30.026)"/>
                        </g>
                    </g>
                    <path id="prefix__Path_262" d="M131.326 160.021H204.3s-4.609-14.21-19.2-8.834c0 0-1.92-8.066-11.522-8.066s-9.986 8.45-9.986 8.45-2.3-14.594-14.979-11.906-7.682 12.675-7.682 12.675-9.221-.001-9.605 7.681z" class="prefix__cls-16" data-name="Path 262" transform="translate(-106.715 -116.661)"/>
                    <path id="prefix__Path_263" d="M524.441 207.734h69.343s-4.38-13.5-18.248-8.394c0 0-1.825-7.664-10.949-7.664S555.1 199.7 555.1 199.7s-2.19-13.868-14.234-11.314-7.3 12.044-7.3 12.044-8.76.005-9.125 7.304z" class="prefix__cls-16" data-name="Path 263" transform="translate(-261.769 -135.886)"/>
                    <path id="prefix__Path_264" d="M414.141 156.735h53.853s-3.4-10.487-14.172-6.519c0 0-1.417-5.953-8.5-5.953s-7.369 6.236-7.369 6.236-1.7-10.771-11.054-8.787-5.669 9.354-5.669 9.354-6.806 0-7.089 5.669z" class="prefix__cls-16" data-name="Path 264" transform="translate(-218.264 -117.503)"/>
                    <g id="prefix__Group_213" data-name="Group 213" transform="translate(37.338 114.578)">
                        <path id="prefix__Rectangle_428" d="M0 0H1.409V49.034H0z" class="prefix__cls-16" data-name="Rectangle 428" transform="translate(17.614)"/>
                        <path id="prefix__Rectangle_429" d="M0 0H36.638V23.243H0z" class="prefix__cls-16" data-name="Rectangle 429" transform="translate(0 2.415)"/>
                        <path id="prefix__Rectangle_430" d="M0 0H34.436V21.217H0z" class="prefix__cls-17" data-name="Rectangle 430" transform="translate(1.101 3.428)"/>
                        <text id="prefix__FOR_RENT" data-name="FOR RENT" transform="translate(3.19 14.688)" style="font-size:6px;font-family:JosefinSans-Bold,Josefin Sans;font-weight:700;fill:#defffe">
                            <tspan x="0" y="0">FOR RENT</tspan>
                        </text>
                    </g>
                    <g id="prefix__Group_216" data-name="Group 216" transform="translate(256.615 11.29)">
                        <path id="prefix__Path_265" d="M554.2 120.537a5.108 5.108 0 015.109 5.109v16.7a7.855 7.855 0 01-2.817 6l-6.465 5.452a.1.1 0 01-.17-.079v-7.647a.1.1 0 00-.1-.1h-30.21a5.109 5.109 0 01-5.109-5.109v-15.217a5.108 5.108 0 015.109-5.109z" class="prefix__cls-19" data-name="Path 265" transform="translate(-514.438 -120.537)"/>
                        <g id="prefix__Group_214" data-name="Group 214" transform="translate(4.071 9.272)">
                            <rect id="prefix__Rectangle_431" width="36.585" height="2.138" class="prefix__cls-2" data-name="Rectangle 431" rx="1.069" transform="rotate(180 18.366 1.069)"/>
                            <rect id="prefix__Rectangle_432" width="36.585" height="2.138" class="prefix__cls-2" data-name="Rectangle 432" rx="1.069" transform="rotate(180 18.329 3.243)"/>
                            <rect id="prefix__Rectangle_433" width="36.585" height="2.138" class="prefix__cls-2" data-name="Rectangle 433" rx="1.069" transform="rotate(180 18.293 5.417)"/>
                        </g>
                        <g id="prefix__Group_215" data-name="Group 215" transform="translate(5.797 3.477)">
                            <path id="prefix__Path_266" d="M526.07 126.279l.486 1.5h1.574l-1.273.925.486 1.5-1.273-.925-1.273.925.486-1.5-1.273-.925h1.574z" class="prefix__cls-6" data-name="Path 266" transform="translate(-524.01 -126.279)"/>
                            <path id="prefix__Path_267" d="M537.478 126.279l.486 1.5h1.574l-1.273.925.486 1.5-1.273-.925-1.273.925.486-1.5-1.273-.925h1.574z" class="prefix__cls-6" data-name="Path 267" transform="translate(-528.51 -126.279)"/>
                            <path id="prefix__Path_268" d="M548.886 126.279l.486 1.5h1.574l-1.273.925.486 1.5-1.273-.925-1.273.925.486-1.5-1.273-.925h1.574z" class="prefix__cls-6" data-name="Path 268" transform="translate(-533.009 -126.279)"/>
                            <path id="prefix__Path_269" d="M560.294 126.279l.486 1.5h1.574l-1.273.925.486 1.5-1.273-.925-1.273.925.486-1.5-1.273-.925h1.574z" class="prefix__cls-6" data-name="Path 269" transform="translate(-537.509 -126.279)"/>
                            <path id="prefix__Path_270" d="M571.7 126.279l.486 1.5h1.574l-1.273.925.486 1.5-1.273-.925-1.273.925.486-1.5-1.273-.925h1.574z" class="prefix__cls-2" data-name="Path 270" transform="translate(-542.008 -126.279)"/>
                        </g>
                    </g>
                    <g id="prefix__Group_219" data-name="Group 219" transform="translate(38.276 51.678)">
                        <path id="prefix__Path_271" d="M193.657 187.23a5.108 5.108 0 015.109 5.109v16.7a7.855 7.855 0 01-2.817 6l-6.465 5.453a.1.1 0 01-.17-.079v-7.647a.1.1 0 00-.1-.1H159a5.109 5.109 0 01-5.109-5.109v-15.218A5.109 5.109 0 01159 187.23z" class="prefix__cls-19" data-name="Path 271" transform="translate(-153.892 -187.23)"/>
                        <g id="prefix__Group_217" data-name="Group 217" transform="translate(4.071 9.272)">
                            <rect id="prefix__Rectangle_434" width="36.585" height="2.138" class="prefix__cls-2" data-name="Rectangle 434" rx="1.069" transform="rotate(180 18.366 1.069)"/>
                            <rect id="prefix__Rectangle_435" width="36.585" height="2.138" class="prefix__cls-2" data-name="Rectangle 435" rx="1.069" transform="rotate(180 18.329 3.243)"/>
                            <rect id="prefix__Rectangle_436" width="36.585" height="2.138" class="prefix__cls-2" data-name="Rectangle 436" rx="1.069" transform="rotate(180 18.293 5.417)"/>
                        </g>
                        <g id="prefix__Group_218" data-name="Group 218" transform="translate(5.797 3.477)">
                            <path id="prefix__Path_272" d="M165.524 192.972l.486 1.5h1.574l-1.273.925.486 1.5-1.273-.925-1.273.925.486-1.5-1.273-.925h1.574z" class="prefix__cls-6" data-name="Path 272" transform="translate(-163.464 -192.972)"/>
                            <path id="prefix__Path_273" d="M176.932 192.972l.486 1.5h1.574l-1.273.925.486 1.5-1.273-.925-1.273.925.486-1.5-1.273-.925h1.574z" class="prefix__cls-6" data-name="Path 273" transform="translate(-167.964 -192.972)"/>
                            <path id="prefix__Path_274" d="M188.34 192.972l.486 1.5h1.574l-1.273.925.486 1.5-1.273-.925-1.273.925.486-1.5-1.273-.925h1.574z" class="prefix__cls-6" data-name="Path 274" transform="translate(-172.463 -192.972)"/>
                            <path id="prefix__Path_275" d="M199.748 192.972l.486 1.5h1.574l-1.273.925.486 1.5-1.273-.925-1.273.925.486-1.5-1.273-.925h1.574z" class="prefix__cls-2" data-name="Path 275" transform="translate(-176.963 -192.972)"/>
                            <path id="prefix__Path_276" d="M211.156 192.972l.486 1.5h1.574l-1.273.925.486 1.5-1.273-.925-1.273.925.486-1.5-1.273-.925h1.574z" class="prefix__cls-2" data-name="Path 276" transform="translate(-181.462 -192.972)"/>
                        </g>
                    </g>
                    <g id="prefix__Group_235" data-name="Group 235" transform="translate(195.877 98.046)">
                        <path id="prefix__Path_277" d="M503.769 280.166c4.846-5.436.324-8.521.324-8.521-2.9-3.243-8.4-5.182-8.939-2.468-.12.607 1.136 4.207 4.24 6.812l.009.007a1.129 1.129 0 01.21 1.548 21.165 21.165 0 00-3.047 5.122c-.745 2.457-2.465 10.893 3.79 10.962s3.413-13.462 3.413-13.462z" class="prefix__cls-11" data-name="Path 277" transform="translate(-446.091 -265.412)"/>
                        <g id="prefix__Group_226" data-name="Group 226" transform="translate(29.836 16.279)">
                            <g id="prefix__Group_223" data-name="Group 223" transform="translate(0 .223)">
                                <g id="prefix__Group_222" data-name="Group 222">
                                    <g id="prefix__Group_220" data-name="Group 220" transform="translate(4.605)">
                                        <path id="prefix__Path_278" d="M492.623 292.141c-.268-.274-.891-1.783-2.554-.711a11.452 11.452 0 00-3.363 3.838c-.509.9-3.322 4.991-3.838 5.646s-1.131.785-2.432 1.2-8.848 3.71-9.422 3.858l.928 1.746s9.887-1.9 11.025-2.492a11.075 11.075 0 003.48-2.965c1.472-1.689 5.448-5.632 5.894-6.345s1.696-2.333.282-3.775z" class="prefix__cls-20" data-name="Path 278" transform="translate(-471.014 -291.05)"/>
                                    </g>
                                    <g id="prefix__Group_221" data-name="Group 221" transform="translate(0 14.15)">
                                        <path id="prefix__Path_279" d="M469.945 314.416s-1.261.7-1.617.6a8.168 8.168 0 00-1.212-.147 7.717 7.717 0 00-1.58-.314 10.252 10.252 0 01-1.244.583c-.3.04-.925.057-.88.283s.606.345.606.345-.273.051-.3.262a.516.516 0 00.184.55s-.241.21-.217.385a.683.683 0 00.294.517.582.582 0 000 .453.67.67 0 00.512.363s.057.433.329.489a2.054 2.054 0 00.744-.043 10.152 10.152 0 003.26-1.486 7.061 7.061 0 012.4-1.195z" class="prefix__cls-20" data-name="Path 279" transform="translate(-463.409 -314.416)"/>
                                    </g>
                                </g>
                            </g>
                            <g id="prefix__Group_225" data-name="Group 225" transform="translate(19.277)">
                                <g id="prefix__Group_224" data-name="Group 224">
                                    <path id="prefix__Path_280" d="M495.242 295.688a14.441 14.441 0 014.139 3.392s5.433-4.577 2.94-7.688c-2.038-2.545-5.457 2.421-7.079 4.296z" class="prefix__cls-21" data-name="Path 280" transform="translate(-495.242 -290.681)"/>
                                </g>
                            </g>
                        </g>
                        <path id="prefix__Path_281" d="M502.168 285.645l.208 3.292 3.988-1.223a3.954 3.954 0 01-.152-2.721s-3.353.08-4.044.652z" class="prefix__cls-20" data-name="Path 281" transform="translate(-448.861 -272.158)"/>
                        <path id="prefix__Path_282" d="M496.861 273.917v.013c-.394-6.417 4.588-4.761 4.588-4.761 1.661.239 4.62 1.9 4.254 3.953s-.505 6.3-3.8 7.343c-2.766.879-4.056.55-4.717-3.55a1.1 1.1 0 01-.549-.219c-.571-.42.224-2.779.224-2.779z" class="prefix__cls-22" data-name="Path 282" transform="translate(-446.599 -265.841)"/>
                        <path id="prefix__Path_283" d="M507.051 290.1l-.9-3.059a6.177 6.177 0 00-4.249 2.679l-.146 1s3.365-.24 5.295-.62z" class="prefix__cls-17" data-name="Path 283" transform="translate(-448.7 -272.965)"/>
                        <path id="prefix__Path_284" d="M511.038 332.168s-10.056.628-13.318-1.257c0 0 5.255 19.684 6.659 23.662s4.036 16.647 4.036 16.647h3.176s-.916-17.9-3.362-21.673c0 .001 3.533-16.123 2.809-17.379z" class="prefix__cls-11" data-name="Path 284" transform="translate(-447.107 -290.269)"/>
                        <path id="prefix__Path_285" d="M497.72 330.911l1.154 21.882.951 17.321h2.884l.981-17.7z" class="prefix__cls-10" data-name="Path 285" transform="translate(-447.107 -290.269)"/>
                        <path id="prefix__Path_286" d="M507.578 337.348s.99 3.75 4.364 3.824" class="prefix__cls-23" data-name="Path 286" transform="translate(-450.995 -292.808)"/>
                        <path id="prefix__Path_287" d="M509.433 368.135c1.24 4.375 3.491 14.137 4 17.164" class="prefix__cls-23" data-name="Path 287" transform="translate(-451.726 -304.951)"/>
                        <path id="prefix__Line_15" d="M0 0L4.448 15.978" class="prefix__cls-23" data-name="Line 15" transform="translate(52.873 45.162)"/>
                        <path id="prefix__Path_288" d="M508.375 298.032c-1.143-4.255-2.8-7.421-5.5-7.7a3.443 3.443 0 00-3.885 2.7c-1.142 2.29-3.668 7.753-2.7 9.44a3.711 3.711 0 001.309 1.3c-.661 7.595-.57 13.064-.57 13.064l13.5-.237s-.313-11.72-2.154-18.567z" class="prefix__cls-17" data-name="Path 288" transform="translate(-446.458 -274.255)"/>
                        <path id="prefix__Path_289" d="M512.031 397.475l-5.879 2.267v1.013h8.764l-.118-3.28z" class="prefix__cls-17" data-name="Path 289" transform="translate(-450.433 -316.524)"/>
                        <path id="prefix__Path_290" d="M497.559 395.649l-5.879 2.267v1.013h8.764l-.118-3.28z" class="prefix__cls-17" data-name="Path 290" transform="translate(-444.724 -315.804)"/>
                        <g id="prefix__Group_227" data-name="Group 227">
                            <path id="prefix__Path_291" d="M436.535 267.472a13.241 13.241 0 10-1.557 20.414l12.43 11.891a2.587 2.587 0 103.576-3.739l-12.43-11.891a13.244 13.244 0 00-2.019-16.675z" class="prefix__cls-4" data-name="Path 291" transform="translate(-414.141 -263.799)"/>
                            <circle id="prefix__Ellipse_17" cx="9.959" cy="9.959" r="9.959" class="prefix__cls-24" data-name="Ellipse 17" transform="rotate(-75.4 13.908 9.444)"/>
                            <path id="prefix__Path_292" d="M434.828 274.842a7.563 7.563 0 11-10.693.237 7.563 7.563 0 0110.693-.237z" class="prefix__cls-24" data-name="Path 292" transform="translate(-417.255 -267.327)"/>
                            <path id="prefix__Path_293" d="M425.369 276.783s-4.166 3.884-.348 10.234" data-name="Path 293" transform="translate(-417.797 -268.92)" style="stroke-linecap:round;stroke-width:2.734px;stroke:#fff;stroke-miterlimit:10;fill:none"/>
                            <path id="prefix__Rectangle_437" d="M0 0h1.943v17.057a.971.971 0 01-.971.971.971.971 0 01-.972-.971V0z" class="prefix__cls-6" data-name="Rectangle 437" transform="rotate(-46.266 38.132 -14.371)"/>
                        </g>
                        <g id="prefix__Group_234" data-name="Group 234" transform="translate(34.228 18.348)">
                            <g id="prefix__Group_231" data-name="Group 231" transform="translate(0 .229)">
                                <g id="prefix__Group_230" data-name="Group 230">
                                    <g id="prefix__Group_228" data-name="Group 228" transform="translate(4.599)">
                                        <path id="prefix__Path_294" d="M499.553 295.534c-.274-.268-.931-1.763-2.569-.654a11.443 11.443 0 00-3.277 3.911c-.489.912-3.21 5.063-3.712 5.73s-1.113.809-2.4 1.256-8.764 3.906-9.334 4.066l.966 1.725s9.842-2.123 10.967-2.737a11.071 11.071 0 003.412-3.042c1.435-1.721 5.322-5.752 5.752-6.474s1.642-2.37.195-3.781z" class="prefix__cls-22" data-name="Path 294" transform="translate(-478.257 -294.476)"/>
                                    </g>
                                    <g id="prefix__Group_229" data-name="Group 229" transform="translate(0 14.552)">
                                        <path id="prefix__Path_295" d="M477.175 318.506s-1.246.724-1.6.639a8.113 8.113 0 00-1.215-.119 7.738 7.738 0 00-1.587-.278 10.3 10.3 0 01-1.231.61c-.3.047-.923.077-.873.3s.613.331.613.331-.271.057-.3.268a.515.515 0 00.2.545s-.237.216-.209.39a.68.68 0 00.305.51.584.584 0 00.01.453.67.67 0 00.52.352s.067.431.34.481a2.06 2.06 0 00.743-.059 10.164 10.164 0 003.227-1.558 7.061 7.061 0 012.37-1.247z" class="prefix__cls-22" data-name="Path 295" transform="translate(-470.662 -318.506)"/>
                                    </g>
                                </g>
                            </g>
                            <g id="prefix__Group_233" data-name="Group 233" transform="translate(19.042)">
                                <g id="prefix__Group_232" data-name="Group 232">
                                    <path id="prefix__Path_296" d="M502.106 299.23a14.433 14.433 0 014.214 3.3s5.33-4.7 2.768-7.752c-2.094-2.498-5.402 2.542-6.982 4.452z" class="prefix__cls-21" data-name="Path 296" transform="translate(-502.106 -294.097)"/>
                                </g>
                            </g>
                        </g>
                        <path id="prefix__Path_297" d="M507.048 276.589c2.713-6.758-2.587-8.125-2.587-8.125-3.833-2.065-9.663-2.023-9.247.711.093.612 2.5 3.572 6.3 4.968h.011a1.13 1.13 0 01.722 1.386 21.159 21.159 0 00-1.128 5.852c.132 2.565 1.377 11.083 7.284 9.026s-1.355-13.818-1.355-13.818z" class="prefix__cls-11" data-name="Path 297" transform="translate(-446.11 -265.065)"/>
                    </g>
                    <path id="prefix__Path_298" d="M241.018 105.128a16.863 16.863 0 00-16.49 19.265c1.874 15.822 16.49 37.469 16.49 37.469s14.614-21.646 16.49-37.468c1.186-10.006-6.073-19.266-16.49-19.266zm-.034 26.823a8.827 8.827 0 118.827-8.827 8.827 8.827 0 01-8.827 8.827z" class="prefix__cls-17" data-name="Path 298" transform="translate(-143.4 -103.169)"/>
                </g>
            </g>
        </g>
    </g>
</svg>
