<svg xmlns="http://www.w3.org/2000/svg" xmlns:xlink="http://www.w3.org/1999/xlink" width="105.54" height="49.999" viewBox="0 0 105.54 49.999">
  <defs>
    <linearGradient id="linear-gradient" x1="0.5" x2="0.5" y2="1" gradientUnits="objectBoundingBox">
      <stop offset="0" stop-color="#189dae"/>
      <stop offset="1" stop-color="#3cc"/>
    </linearGradient>
  </defs>
  <g id="Group_771" data-name="Group 771" transform="translate(-1633.46 -25.001)">
    <g id="Group_768" data-name="Group 768" transform="translate(911.903 -767.986)">
      <path id="Path_1695" data-name="Path 1695" d="M718.536,737.987c1.2,1.053,2.162,1.888,3.114,2.737,3.494,3.117,7.009,6.211,10.467,9.367A17.5,17.5,0,0,1,737.99,763.8c0,.4-.048.8-.081,1.194-.011.13-.045.257-.09.509-.272-.172-.485-.3-.692-.438l-15.5-10.412c-.11-.074-.221-.148-.332-.221-1.1-.717-2.15-.6-2.725.309a1.818,1.818,0,0,0,.773,2.58q4.635,3.118,9.274,6.229c2.583,1.735,5.157,3.486,7.758,5.194.53.348.592.639.359,1.219A18.136,18.136,0,0,1,717.777,781.1a17.863,17.863,0,0,1-15.552-15.373,36.608,36.608,0,0,1-.127-3.978,4.48,4.48,0,0,1,.135-.773c.376.248.663.433.945.624q7.384,4.964,14.768,9.928a1.767,1.767,0,0,0,2.4.015,1.731,1.731,0,0,0-.305-2.791c-2-1.369-4.011-2.71-6.02-4.061-3.444-2.315-6.881-4.64-10.342-6.929-.51-.337-.64-.656-.338-1.161a31.338,31.338,0,0,1,2.81-4.608c3.863-4.465,7.884-8.793,11.838-13.18A7.089,7.089,0,0,0,718.536,737.987Z" transform="translate(19.546 55)" fill="url(#linear-gradient)"/>
      <g id="Group_769" data-name="Group 769" transform="translate(721.557 800.298)">
        <path id="Path_1696" data-name="Path 1696" d="M721.722,937.777c.93.612,1.771,1.12,2.551,1.709a1.225,1.225,0,0,1,.268.841,15.022,15.022,0,0,0,29.207,4.637c.061-.173.134-.341.245-.618.812.535,1.6,1.016,2.328,1.57.126.1.092.534,0,.764a16.253,16.253,0,0,1-3.566,5.633c-3.936,3.975-7.911,7.912-11.882,11.853a1.713,1.713,0,0,1-2.671-.032c-3.859-3.827-7.75-7.622-11.549-11.508a17.522,17.522,0,0,1-5.024-14.3C721.642,938.2,721.673,938.07,721.722,937.777Z" transform="translate(-721.557 -922.102)" fill="#dedede"/>
        <path id="Path_1697" data-name="Path 1697" d="M731.252,853.5c-.743-.507-1.362-.97-2.022-1.365-.466-.278-.5-.564-.3-1.041a17.213,17.213,0,0,1,7.225-8.5c6.252-3.666,12.676-3.8,18.872-.038,6.176,3.755,8.964,9.478,8.573,16.716-.01.183-.047.364-.095.723-.961-.626-1.859-1.171-2.7-1.793-.165-.122-.144-.536-.156-.818a15.013,15.013,0,0,0-29.04-4.8C731.5,852.85,731.4,853.116,731.252,853.5Z" transform="translate(-727.651 -839.782)" fill="#dedede"/>
      </g>
    </g>
    <g id="Typo" transform="translate(450.192 -648.485)">
      <path id="Renting_services" data-name="Renting services" d="M1239.467,841.068l-1.417-1.919a1.957,1.957,0,0,0,1.208-1.929c0-1.523-1.01-2.378-2.8-2.378h-2.634V841.2h1.7V839.43h.865l1.27,1.773h1.811Zm-3.946-2.962v-1.8h.957c.709,0,1.1.334,1.1.918,0,.563-.394.886-1.1.886Zm11.068,3.1v-1.512h-3.071V838.8h2.551v-1.46h-2.551v-.959h2.988v-1.544h-4.686V841.2Zm8.549,0v-6.362h-1.7v3.63l-2.687-3.63h-1.54V841.2h1.7v-3.588l2.687,3.588Zm8.029-4.818v-1.544h-5.623v1.544h1.958V841.2h1.7v-4.818Zm4.1,4.818v-6.362h-1.7V841.2Zm8.9,0v-6.362h-1.7v3.63l-2.687-3.63h-1.541V841.2h1.7v-3.588l2.687,3.588Zm8.715-3.619h-3.092v1.335h1.624v.637a4.121,4.121,0,0,1-1.541.24c-.916,0-1.468-.615-1.468-1.763a1.622,1.622,0,0,1,1.6-1.815,7.814,7.814,0,0,1,2.165.354l.426-1.262a7.219,7.219,0,0,0-2.749-.574,3.053,3.053,0,0,0-3.165,3.3,2.929,2.929,0,0,0,3.113,3.264,6.551,6.551,0,0,0,3.082-.793Zm-46.18,7.205a6.267,6.267,0,0,0-2.749-.6c-1.436,0-2.218.824-2.218,1.908,0,.98.583,1.669,1.813,2.034s1.394.469,1.394.741-.207.428-.582.428a4.751,4.751,0,0,1-2.269-.74l-.635,1.325a6.615,6.615,0,0,0,3,.865c1.488,0,2.331-.772,2.331-1.929,0-1.064-.416-1.543-1.707-1.981-1.364-.459-1.6-.573-1.6-.865,0-.271.3-.417.667-.417a5.648,5.648,0,0,1,2.063.48Zm6.853,5.861v-1.512h-3.073v-.886h2.551v-1.46h-2.551v-.96h2.988v-1.543h-4.684v6.362h4.769Zm7.611-.135-1.417-1.919a1.958,1.958,0,0,0,1.208-1.929c0-1.523-1.01-2.378-2.8-2.378h-2.635v6.362h1.7v-1.773h.863l1.27,1.773h1.813v-.135Zm-3.946-2.962v-1.8h.957c.709,0,1.1.334,1.1.918,0,.563-.394.887-1.1.887Zm9.058,3.1,2.427-6.362h-1.8l-1.374,3.994q-.109.328-.187.657c-.062-.219-.124-.438-.2-.657l-1.29-3.994h-1.886l2.427,6.362Zm5.758,0v-6.362h-1.7v6.362h1.7Zm7.153-1.9a4.983,4.983,0,0,1-2.072.469,1.541,1.541,0,0,1-1.5-1.742c0-1.178.552-1.773,1.6-1.773a6.38,6.38,0,0,1,1.779.323l.511-1.272a5.173,5.173,0,0,0-2.374-.574,2.981,2.981,0,0,0-3.239,3.3,2.934,2.934,0,0,0,3.135,3.264,5.23,5.23,0,0,0,2.706-.73Zm7.112,1.9v-1.512h-3.071v-.886h2.551v-1.46h-2.551v-.96h2.988v-1.543h-4.686v6.362h4.769Zm6.9-5.861a6.268,6.268,0,0,0-2.749-.6c-1.436,0-2.218.824-2.218,1.908,0,.98.584,1.669,1.812,2.034s1.4.469,1.4.741-.209.428-.584.428a4.763,4.763,0,0,1-2.269-.74l-.635,1.325a6.621,6.621,0,0,0,3,.865c1.49,0,2.333-.772,2.333-1.929,0-1.064-.417-1.543-1.707-1.981-1.364-.459-1.6-.573-1.6-.865,0-.271.3-.417.667-.417a5.634,5.634,0,0,1,2.061.48Z" transform="translate(-4.181 -130.259)" fill="#dedede"/>
      <path id="SKN" d="M1242.405,702.04a17.686,17.686,0,0,0-7.118-1.534c-3.784,0-6.036,2.136-6.036,5.114,0,3.369,2.192,4.6,5.316,5.535,3.754,1.113,4.6,1.625,4.6,3.219,0,1.294-1.053,1.985-2.7,1.985a15.921,15.921,0,0,1-6.727-2.015l-1.351,2.737a18.544,18.544,0,0,0,8.259,2.347c3.575,0,6.188-1.835,6.188-5.385,0-3.219-1.833-4.392-5.2-5.505-3.575-1.2-4.806-1.474-4.806-3.219,0-.993.991-1.865,2.643-1.865a15.489,15.489,0,0,1,5.887,1.263Zm10.514,9.326,5.677,7.791h3.874v-.241l-7.3-10.2,6.877-7.671v-.241h-3.964l-8.5,9.446v-9.446H1246.1v18.351h3.484V715.1Zm28.173,7.791V700.807h-3.485v12.6l-9.49-12.6h-3.184v18.351h3.485V706.613l9.52,12.545Z" transform="translate(0 -19.772)" fill="url(#linear-gradient)"/>
      <path id="TM" d="M1535.817,676.486v.508h-.984v2.563h-.61v-2.563h-.973v-.508Zm3.324,3.071-.113-1.807c-.011-.237-.011-.519-.023-.858h-.034c-.08.271-.17.632-.26.914l-.554,1.7h-.633l-.543-1.75c-.057-.226-.157-.6-.226-.869h-.033c0,.283-.011.587-.023.858l-.113,1.807H1536l.226-3.071h.927l.52,1.5a6.706,6.706,0,0,1,.2.778h.023c.067-.271.147-.542.2-.756l.53-1.524h.893l.226,3.071h-.61Z" transform="translate(-250.943)" fill="#dedede"/>
    </g>
  </g>
</svg>
