<svg xmlns="http://www.w3.org/2000/svg" id="cityscape" width="92.04" height="92.04" viewBox="0 0 92.04 92.04">
    <defs>
        <style>
            .cls-1{fill:#29bbc1}
        </style>
    </defs>
    <g id="Group_676" data-name="Group 676">
        <g id="Group_675" data-name="Group 675">
            <path id="Path_1517" d="M310.269 325.8a1.534 1.534 0 1 0-3.068 0v3.068a1.534 1.534 0 1 0 3.068 0z" class="cls-1" data-name="Path 1517" transform="translate(-251.977 -265.975)"/>
            <path id="Path_1518" d="M308.734 426.667a1.535 1.535 0 0 0-1.534 1.533v6.136a1.534 1.534 0 0 0 3.068 0V428.2a1.534 1.534 0 0 0-1.534-1.533z" class="cls-1" data-name="Path 1518" transform="translate(-251.976 -349.967)"/>
            <path id="Path_1519" d="M344.4 223.4a1.534 1.534 0 1 0-3.068 0v3.068a1.534 1.534 0 0 0 3.068 0z" class="cls-1" data-name="Path 1519" transform="translate(-279.974 -181.983)"/>
            <path id="Path_1520" d="M310.269 274.6a1.534 1.534 0 1 0-3.068 0v3.068a1.534 1.534 0 1 0 3.068 0z" class="cls-1" data-name="Path 1520" transform="translate(-251.977 -223.979)"/>
            <path id="Path_1521" d="M310.268 377a1.534 1.534 0 0 0-3.068 0v3.068a1.534 1.534 0 1 0 3.068 0V377z" class="cls-1" data-name="Path 1521" transform="translate(-251.976 -307.971)"/>
            <path id="Path_1522" d="M344.4 274.6a1.534 1.534 0 1 0-3.068 0v3.068a1.534 1.534 0 0 0 3.068 0z" class="cls-1" data-name="Path 1522" transform="translate(-279.974 -223.979)"/>
            <path id="Path_1523" d="M276.135 223.4a1.534 1.534 0 1 0-3.068 0v3.068a1.534 1.534 0 0 0 3.068 0z" class="cls-1" data-name="Path 1523" transform="translate(-223.979 -181.983)"/>
            <path id="Path_1524" d="M310.269 223.4a1.534 1.534 0 1 0-3.068 0v3.068a1.534 1.534 0 1 0 3.068 0z" class="cls-1" data-name="Path 1524" transform="translate(-251.977 -181.983)"/>
            <path id="Path_1525" d="M344.4 124.069V121a1.534 1.534 0 1 0-3.068 0v3.068a1.534 1.534 0 0 0 3.068 0z" class="cls-1" data-name="Path 1525" transform="translate(-279.974 -97.991)"/>
            <path id="Path_1526" d="M276.135 274.6a1.534 1.534 0 1 0-3.068 0v3.068a1.534 1.534 0 0 0 3.068 0z" class="cls-1" data-name="Path 1526" transform="translate(-223.979 -223.979)"/>
            <path id="Path_1527" d="M378.535 121a1.534 1.534 0 1 0-3.068 0v3.068a1.534 1.534 0 1 0 3.068 0z" class="cls-1" data-name="Path 1527" transform="translate(-307.971 -97.991)"/>
            <path id="Path_1528" d="M274.6 324.267a1.535 1.535 0 0 0-1.534 1.534v3.068a1.534 1.534 0 1 0 3.068 0V325.8a1.535 1.535 0 0 0-1.534-1.533z" class="cls-1" data-name="Path 1528" transform="translate(-223.979 -265.975)"/>
            <path id="Path_1529" d="M412.668 377a1.534 1.534 0 0 0-3.068 0v3.068a1.534 1.534 0 1 0 3.068 0V377z" class="cls-1" data-name="Path 1529" transform="translate(-335.968 -307.971)"/>
            <path id="Path_1530" d="M411.134 426.667a1.535 1.535 0 0 0-1.534 1.533v6.136a1.534 1.534 0 0 0 3.068 0V428.2a1.534 1.534 0 0 0-1.534-1.533z" class="cls-1" data-name="Path 1530" transform="translate(-335.968 -349.967)"/>
            <path id="Path_1531" d="M445.268 324.267a1.535 1.535 0 0 0-1.534 1.534v3.068a1.534 1.534 0 1 0 3.068 0V325.8a1.535 1.535 0 0 0-1.534-1.533z" class="cls-1" data-name="Path 1531" transform="translate(-363.966 -265.975)"/>
            <path id="Path_1532" d="M308.734 69.608a1.535 1.535 0 0 0 1.534-1.534V61.6l15.34-3.835v25.649a1.537 1.537 0 0 0 1 1.437l11.277 4.228v15.811a1.534 1.534 0 0 0 3.068 0V88.016a1.537 1.537 0 0 0-1-1.437l-11.277-4.228V52.734a1.534 1.534 0 0 0-3.068 0V54.6l-17.247 4.312A1.533 1.533 0 0 0 307.2 60.4v7.67a1.535 1.535 0 0 0 1.534 1.538z" class="cls-1" data-name="Path 1532" transform="translate(-251.976 -41.996)"/>
            <path id="Path_1533" d="M446.8 274.6a1.534 1.534 0 1 0-3.068 0v3.068a1.534 1.534 0 0 0 3.068 0z" class="cls-1" data-name="Path 1533" transform="translate(-363.966 -223.979)"/>
            <path id="Path_1534" d="M412.669 274.6a1.534 1.534 0 1 0-3.068 0v3.068a1.534 1.534 0 0 0 3.068 0z" class="cls-1" data-name="Path 1534" transform="translate(-335.969 -223.979)"/>
            <path id="Path_1535" d="M344.4 377a1.534 1.534 0 0 0-3.068 0v3.068a1.534 1.534 0 1 0 3.068 0z" class="cls-1" data-name="Path 1535" transform="translate(-279.974 -307.971)"/>
            <path id="Path_1536" d="M412.669 325.8a1.534 1.534 0 1 0-3.068 0v3.068a1.534 1.534 0 1 0 3.068 0z" class="cls-1" data-name="Path 1536" transform="translate(-335.969 -265.975)"/>
            <path id="Path_1537" d="M342.868 426.667a1.535 1.535 0 0 0-1.534 1.534v6.136a1.534 1.534 0 0 0 3.068 0V428.2a1.535 1.535 0 0 0-1.534-1.533z" class="cls-1" data-name="Path 1537" transform="translate(-279.974 -349.967)"/>
            <path id="Path_1538" d="M344.4 325.8a1.534 1.534 0 1 0-3.068 0v3.068a1.534 1.534 0 1 0 3.068 0z" class="cls-1" data-name="Path 1538" transform="translate(-279.974 -265.975)"/>
            <path id="Path_1539" d="M265.011 211.893a1.535 1.535 0 0 0 1.534-1.534v-49.088a1.534 1.534 0 0 0-1.161-1.488l-24.544-6.136a1.535 1.535 0 0 0-1.907 1.488v33.748a1.534 1.534 0 1 0 3.068 0V157.1l21.476 5.369v47.89a1.535 1.535 0 0 0 1.534 1.534z" class="cls-1" data-name="Path 1539" transform="translate(-195.981 -125.989)"/>
            <path id="Path_1540" d="M173.735 172.2a1.534 1.534 0 0 0-3.068 0v3.068a1.534 1.534 0 1 0 3.068 0z" class="cls-1" data-name="Path 1540" transform="translate(-139.987 -139.987)"/>
            <path id="Path_1541" d="M173.735 121a1.534 1.534 0 1 0-3.068 0v3.068a1.534 1.534 0 0 0 3.068 0z" class="cls-1" data-name="Path 1541" transform="translate(-139.987 -97.991)"/>
            <path id="Path_1542" d="M105.468 377a1.534 1.534 0 0 0-3.068 0v3.068a1.534 1.534 0 1 0 3.068 0V377z" class="cls-1" data-name="Path 1542" transform="translate(-83.992 -307.971)"/>
            <path id="Path_1543" d="M35.667 251.206a1.535 1.535 0 0 0 1.534-1.534V242h15.34v38.35a1.534 1.534 0 0 0 3.068 0v-39.882a1.535 1.535 0 0 0-1.534-1.534H35.667a1.535 1.535 0 0 0-1.534 1.534v9.2a1.535 1.535 0 0 0 1.534 1.538z" class="cls-1" data-name="Path 1543" transform="translate(-27.997 -195.982)"/>
            <path id="Path_1544" d="M136.533 172.2v3.068a1.534 1.534 0 1 0 3.068 0V172.2a1.534 1.534 0 1 0-3.068 0z" class="cls-1" data-name="Path 1544" transform="translate(-111.989 -139.987)"/>
            <path id="Path_1545" d="M173.735 69.8a1.534 1.534 0 0 0-3.068 0v3.068a1.534 1.534 0 0 0 3.068 0z" class="cls-1" data-name="Path 1545" transform="translate(-139.987 -55.995)"/>
            <path id="Path_1546" d="M103.934 426.667a1.535 1.535 0 0 0-1.534 1.533v6.136a1.534 1.534 0 0 0 3.068 0V428.2a1.534 1.534 0 0 0-1.534-1.533z" class="cls-1" data-name="Path 1546" transform="translate(-83.992 -349.967)"/>
            <path id="Path_1547" d="M90.506 354.946h-3.068v-9.422a6.136 6.136 0 1 0-3.068 0v9.422H46.02v-6.291a7.67 7.67 0 1 0-3.068 0v6.291H9.2v-15.495a7.67 7.67 0 1 0-3.068 0v15.495h-4.6a1.534 1.534 0 0 0 0 3.068h88.974a1.534 1.534 0 0 0 0-3.068zm-87.438-23.01a4.6 4.6 0 1 1 4.6 4.6 4.608 4.608 0 0 1-4.6-4.6zm36.816 9.2a4.6 4.6 0 1 1 4.6 4.6 4.608 4.608 0 0 1-4.6-4.596zm42.952-1.534a3.068 3.068 0 1 1 3.068 3.068 3.071 3.071 0 0 1-3.068-3.064z" class="cls-1" data-name="Path 1547" transform="translate(0 -265.974)"/>
            <path id="Path_1548" d="M68.267 428.2v6.136a1.534 1.534 0 0 0 3.068 0V428.2a1.534 1.534 0 0 0-3.068 0z" class="cls-1" data-name="Path 1548" transform="translate(-55.995 -349.967)"/>
            <path id="Path_1549" d="M105.469 274.6a1.534 1.534 0 1 0-3.068 0v3.068a1.534 1.534 0 0 0 3.068 0z" class="cls-1" data-name="Path 1549" transform="translate(-83.993 -223.979)"/>
            <path id="Path_1550" d="M105.469 325.8a1.534 1.534 0 1 0-3.068 0v3.068a1.534 1.534 0 1 0 3.068 0z" class="cls-1" data-name="Path 1550" transform="translate(-83.993 -265.975)"/>
            <path id="Path_1551" d="M68.267 274.6v3.068a1.534 1.534 0 0 0 3.068 0V274.6a1.534 1.534 0 1 0-3.068 0z" class="cls-1" data-name="Path 1551" transform="translate(-55.995 -223.979)"/>
            <path id="Path_1552" d="M173.735 325.8a1.534 1.534 0 1 0-3.068 0v3.068a1.534 1.534 0 1 0 3.068 0z" class="cls-1" data-name="Path 1552" transform="translate(-139.987 -265.975)"/>
            <path id="Path_1553" d="M207.869 223.4a1.534 1.534 0 1 0-3.068 0v3.068a1.534 1.534 0 0 0 3.068 0z" class="cls-1" data-name="Path 1553" transform="translate(-167.985 -181.983)"/>
            <path id="Path_1554" d="M207.869 172.2a1.534 1.534 0 0 0-3.068 0v3.068a1.534 1.534 0 1 0 3.068 0z" class="cls-1" data-name="Path 1554" transform="translate(-167.985 -139.987)"/>
            <path id="Path_1555" d="M207.869 274.6a1.534 1.534 0 1 0-3.068 0v3.068a1.534 1.534 0 0 0 3.068 0z" class="cls-1" data-name="Path 1555" transform="translate(-167.985 -223.979)"/>
            <path id="Path_1556" d="M206.334 324.267a1.535 1.535 0 0 0-1.534 1.533v3.068a1.534 1.534 0 1 0 3.068 0V325.8a1.534 1.534 0 0 0-1.534-1.533z" class="cls-1" data-name="Path 1556" transform="translate(-167.984 -265.975)"/>
            <path id="Path_1557" d="M207.869 121a1.534 1.534 0 1 0-3.068 0v3.068a1.534 1.534 0 1 0 3.068 0z" class="cls-1" data-name="Path 1557" transform="translate(-167.985 -97.991)"/>
            <path id="Path_1558" d="M173.735 377a1.534 1.534 0 0 0-3.068 0v3.068a1.534 1.534 0 1 0 3.068 0z" class="cls-1" data-name="Path 1558" transform="translate(-139.987 -307.971)"/>
            <path id="Path_1559" d="M103.935 39.884a1.535 1.535 0 0 0 1.534-1.534V27.026l5.288-2.643a1.536 1.536 0 0 0 .848-1.373V10.152l7.67-3.835 7.67 3.835V23.01a1.534 1.534 0 0 0 3.068 0V9.2a1.535 1.535 0 0 0-.848-1.373l-8.356-4.177V1.534a1.534 1.534 0 1 0-3.068 0v2.12l-8.356 4.177a1.536 1.536 0 0 0-.848 1.373v12.858l-5.288 2.638a1.536 1.536 0 0 0-.848 1.373V38.35a1.534 1.534 0 0 0 1.534 1.534z" class="cls-1" data-name="Path 1559" transform="translate(-83.993)"/>
            <path id="Path_1560" d="M173.735 274.6a1.534 1.534 0 1 0-3.068 0v3.068a1.534 1.534 0 0 0 3.068 0z" class="cls-1" data-name="Path 1560" transform="translate(-139.987 -223.979)"/>
            <path id="Path_1561" d="M172.2 426.667a1.535 1.535 0 0 0-1.534 1.534v6.136a1.534 1.534 0 0 0 3.068 0V428.2a1.535 1.535 0 0 0-1.534-1.533z" class="cls-1" data-name="Path 1561" transform="translate(-139.987 -349.967)"/>
            <path id="Path_1562" d="M207.869 69.8a1.534 1.534 0 0 0-3.068 0v3.068a1.534 1.534 0 0 0 3.068 0z" class="cls-1" data-name="Path 1562" transform="translate(-167.985 -55.995)"/>
            <path id="Path_1563" d="M173.735 223.4a1.534 1.534 0 1 0-3.068 0v3.068a1.534 1.534 0 0 0 3.068 0z" class="cls-1" data-name="Path 1563" transform="translate(-139.987 -181.983)"/>
        </g>
    </g>
</svg>
