<svg xmlns="http://www.w3.org/2000/svg" id="bedroom" width="126.321" height="92.121" viewBox="0 0 126.321 92.121">
    <defs>
        <style>
            .cls-1{fill:#29bbc1}
        </style>
    </defs>
    <path id="Path_129" d="M123.854 190.586h-13v-3.317h4.034a2.467 2.467 0 0 0 2.467-2.467v-16.137a5.383 5.383 0 0 0-5.378-5.377H101.56v-6.642h5.481a3.085 3.085 0 0 0 2.826-4.323 35.538 35.538 0 0 1-2.559-10.943 4.486 4.486 0 0 0-4.453-4.113h-7.526a4.486 4.486 0 0 0-4.453 4.114 35.543 35.543 0 0 1-2.559 10.943 3.085 3.085 0 0 0 2.826 4.323h5.482v6.642H86.2a5.383 5.383 0 0 0-5.377 5.377V184.8a2.468 2.468 0 0 0 2.467 2.467h4.034v3.317H74.155v-5.307h.834a2.468 2.468 0 0 0 2.467-2.467v-11.566a5.976 5.976 0 0 0-5.042-5.894v-16.315a7.792 7.792 0 0 0-7.783-7.783H17.12a7.791 7.791 0 0 0-7.782 7.783v16.314a5.976 5.976 0 0 0-5.038 5.895v11.568a2.467 2.467 0 0 0 2.467 2.467H7.6v5.307H2.467a2.467 2.467 0 0 0 0 4.934h121.387a2.467 2.467 0 0 0 0-4.934zM95.76 142.2h6.664a42.751 42.751 0 0 0 1.928 9.511h-10.52a42.762 42.762 0 0 0 1.928-9.511zm-9.56 26.022h25.775a.443.443 0 0 1 .443.442v4.147H85.762v-4.147a.443.443 0 0 1 .442-.442zm-.442 9.523h26.66v4.589H85.762zm6.5 9.524h13.657v3.317H92.264zm-77.986-38.235a2.851 2.851 0 0 1 2.848-2.848h47.51a2.852 2.852 0 0 1 2.849 2.848v16.244h-3.46V159.7a3.389 3.389 0 0 0-1.974-3.074l-.427-.2a17.339 17.339 0 0 0-14.453 0l-.427.195a3.391 3.391 0 0 0-1.974 3.076v5.576H37.78V159.7a3.389 3.389 0 0 0-1.974-3.074l-.427-.2a17.341 17.341 0 0 0-14.454 0l-.427.2a3.391 3.391 0 0 0-1.974 3.074v5.576h-4.252zm44.812 16.244H49.7v-4.568a12.419 12.419 0 0 1 9.386 0zm-26.239 0H23.46v-4.568a12.41 12.41 0 0 1 9.386 0zm-20.314 25.308v-5.307h29.658a2.467 2.467 0 1 0 0-4.934H9.23v-9.1a1.032 1.032 0 0 1 1.031-1.031h61.228a1.032 1.032 0 0 1 1.031 1.031v9.1H61.927a2.467 2.467 0 1 0 0 4.934h7.293v5.307zm0 0" class="cls-1" data-name="Path 129" transform="translate(0 -103.399)"/>
    <path id="Path_130" d="M178.994 28.57a5.291 5.291 0 0 0 2.188 2.135l.054.027.011.006a5.253 5.253 0 0 0 2.19.561H213.5a5.282 5.282 0 0 0 5.287-5.286V5.287A5.293 5.293 0 0 0 213.5 0h-29.878a5.292 5.292 0 0 0-5.286 5.287v20.728a5.251 5.251 0 0 0 .625 2.491l.034.064zm34.862-2.555a.351.351 0 0 1-.184.309.342.342 0 0 1-.168.043h-28.825c2.361-3.758 6.045-9.065 9.723-9.334 2.645-.191 5.163 1.368 8.079 3.175 3.283 2.034 6.928 4.294 11.374 4.173zm-.356-21.08a.353.353 0 0 1 .352.353v3.026a5.076 5.076 0 0 1-6.27-3.38zm-29.882 0h18.916a10.023 10.023 0 0 0 9.9 8.517 9.965 9.965 0 0 0 1.421-.1v6.087c-3.054.121-5.741-1.544-8.775-3.423-3.341-2.07-6.8-4.212-11.038-3.9-4.4.321-8 3.831-10.773 7.538V5.287a.353.353 0 0 1 .352-.353zm0 0" class="cls-1" data-name="Path 130" transform="translate(-134.337)"/>
    <path id="Path_131" d="M203.467 311.871a2.467 2.467 0 0 0 0 4.934h.006a2.467 2.467 0 1 0-.006-4.934zm0 0" class="cls-1" data-name="Path 131" transform="translate(-151.409 -234.926)"/>
</svg>
