<svg xmlns="http://www.w3.org/2000/svg" width="20.226" height="17.354" viewBox="0 0 20.226 17.354">
    <defs>
        <style>
            .cls-1{fill:#818181}
        </style>
    </defs>
    <g id="private" transform="translate(0 -33.926)">
        <g id="Group_742" data-name="Group 742" transform="translate(0 33.926)">
            <path id="Path_1688" d="M20.088 42.179a19.178 19.178 0 0 0-4.369-4.16l2.85-2.85a.722.722 0 1 0-1-1.039l-.018.018-3.114 3.111a9.341 9.341 0 0 0-4.324-1.159c-5.49 0-9.794 5.83-9.975 6.079a.722.722 0 0 0 0 .849 19.178 19.178 0 0 0 4.369 4.16l-2.85 2.85a.722.722 0 0 0 1 1.039l.018-.018 3.114-3.111a9.341 9.341 0 0 0 4.324 1.152c5.49 0 9.794-5.828 9.975-6.076a.722.722 0 0 0 0-.845zM5.557 46.14a17.986 17.986 0 0 1-3.914-3.54c1.063-1.288 4.512-5.056 8.47-5.056a7.646 7.646 0 0 1 3.243.795L12.1 39.6a3.606 3.606 0 0 0-5 5zm6.506-4.465a2.131 2.131 0 0 1 .217.928 2.167 2.167 0 0 1-2.167 2.167 2.131 2.131 0 0 1-.928-.217zm-3.9 1.856a2.131 2.131 0 0 1-.217-.928 2.167 2.167 0 0 1 2.167-2.167 2.131 2.131 0 0 1 .928.217zm1.95 4.128a7.646 7.646 0 0 1-3.243-.795l1.254-1.254a3.606 3.606 0 0 0 5-5l1.546-1.546a17.987 17.987 0 0 1 3.913 3.536c-1.063 1.291-4.511 5.06-8.47 5.06z" class="cls-1" data-name="Path 1688" transform="translate(0 -33.926)"/>
        </g>
    </g>
</svg>
