<?xml version="1.0" encoding="utf-8"?>
<!-- Generator: Adobe Illustrator 22.1.0, SVG Export Plug-In . SVG Version: 6.00 Build 0)  -->
<svg version="1.1" id="Layer_1" xmlns="http://www.w3.org/2000/svg" xmlns:xlink="http://www.w3.org/1999/xlink" x="0px" y="0px"
	 viewBox="0 0 512 512" style="enable-background:new 0 0 512 512;" xml:space="preserve">
<style type="text/css">
	.st0{fill:#463C4B;}
	.st1{fill:#555A6E;}
	.st2{fill:#A5C3DC;}
	.st3{fill:#D7E6F0;}
	.st4{fill:#189DAE;}
	.st5{fill:#33CCCC;}
	.st6{fill:#FAA037;}
	.st7{fill:#FFD241;}
	.st8{fill:#E64178;}
	.st9{fill:#FF6E91;}
</style>
<g>
	<g>
		<g>
			<path class="st0" d="M456,392H56V168c0-17.7,14.3-32,32-32h336c17.7,0,32,14.3,32,32V392z"/>
		</g>
		<g>
			<path class="st1" d="M424,392H56V168c0-17.7,14.3-32,32-32h304c17.7,0,32,14.3,32,32V392z"/>
		</g>
		<g>
			<path class="st2" d="M88,432h336c17.7,0,32-14.3,32-32v-8H56v8C56,417.7,70.3,432,88,432z"/>
		</g>
		<g>
			<path class="st3" d="M392,432H88c-17.7,0-32-14.3-32-32v-8h368v8C424,417.7,409.7,432,392,432z"/>
		</g>
		<g>
			<path class="st2" d="M216,432h72v32h-72V432z"/>
		</g>
		<g>
			<path class="st3" d="M216,448h48v16h-48V448z"/>
		</g>
		<g>
			<path class="st3" d="M328,488H168v-8c0-8.8,7.2-16,16-16h128c8.8,0,16,7.2,16,16V488z"/>
		</g>
		<g>
			<path class="st2" d="M328,488h-48v-8c0-8.8,7.2-16,16-16h16c8.8,0,16,7.2,16,16V488z"/>
		</g>
	</g>
	<g>
		<g>
			<path class="st4" d="M128,216h232c17.7,0,32-14.3,32-32V56c0-17.7-14.3-32-32-32H128c-17.7,0-32,14.3-32,32v128
				C96,201.7,110.3,216,128,216z"/>
		</g>
		<g>
			<path class="st5" d="M128,216h208c17.7,0,32-14.3,32-32V56c0-17.7-14.3-32-32-32H128c-17.7,0-32,14.3-32,32v128
				C96,201.7,110.3,216,128,216z"/>
		</g>
		<g>
			<path class="st1" d="M96,56h272v32H96V56z"/>
		</g>
		<g>
			<path class="st3" d="M192,136h-48c-8.8,0-16,7.2-16,16v16c0,8.8,7.2,16,16,16h48c8.8,0,16-7.2,16-16v-16
				C208,143.2,200.8,136,192,136z"/>
		</g>
		<g>
			<path class="st0" d="M368,56h24v32h-24V56z"/>
		</g>
	</g>
	<g>
		<g>
			<g>
				<path class="st6" d="M312,360H168c-17.7,0-32-14.3-32-32v-48c0-17.7,14.3-32,32-32h144c17.7,0,32,14.3,32,32v48
					C344,345.7,329.7,360,312,360z"/>
			</g>
			<g>
				<path class="st7" d="M280,360H168c-17.7,0-32-14.3-32-32v-48c0-17.7,14.3-32,32-32h112c17.7,0,32,14.3,32,32v48
					C312,345.7,297.7,360,280,360z"/>
			</g>
		</g>
		<path class="st6" d="M240,294c3.3,0,6-2.7,6-6v-1.2c0-9.8-6.8-18.1-16-20.2V264c0-3.3-2.7-6-6-6s-6,2.7-6,6v2.6
			c-9.2,2.2-16,10.4-16,20.2c0,7.9,4.4,15.1,11.5,18.6l15.6,7.8c3,1.5,4.9,4.5,4.9,7.9c0,4.9-4,8.8-8.8,8.8h-2.3
			c-4.9,0-8.8-4-8.8-8.8V320c0-3.3-2.7-6-6-6s-6,2.7-6,6v1.2c0,9.8,6.8,18.1,16,20.2v2.6c0,3.3,2.7,6,6,6s6-2.7,6-6v-2.6
			c9.2-2.2,16-10.4,16-20.2c0-7.9-4.4-15.1-11.5-18.6l-15.6-7.8c-3-1.5-4.9-4.5-4.9-7.9c0-4.9,4-8.8,8.8-8.8h2.3
			c4.9,0,8.8,4,8.8,8.8v1.2C234,291.3,236.7,294,240,294z"/>
	</g>
	<g>
		<g>
			<path class="st8" d="M418.3,380.1L384,345.8l11-11c10.7-10.7,3.1-29-12-29h-83.7c-7.2,0-14.2,2.9-19.3,8c-5.1,5.1-8,12.1-8,19.3
				v51.6c0,10.2,8.4,17,17.1,17l0,0h32l0,0c1.9,0,3.9-0.3,5.8-1.1l19.4,19.4c3.6,3.6,8.5,5.7,13.7,5.7h32c5.1,0,10-2,13.7-5.7
				l12.7-12.7c3.6-3.6,5.7-8.5,5.7-13.7S422,383.7,418.3,380.1L418.3,380.1z"/>
		</g>
		<g>
			<path class="st9" d="M386.3,380.1L352,345.8l11-11c10.7-10.7,3.1-29-12-29h-51.7c-7.2,0-14.2,2.9-19.3,8c-5.1,5.1-8,12.1-8,19.3
				v51.6c0,15.1,18.3,22.7,29,12l11-11l34.3,34.3c3.6,3.6,8.5,5.7,13.7,5.7s10-2,13.7-5.7l12.7-12.7c3.6-3.6,5.7-8.5,5.7-13.7
				S390,383.7,386.3,380.1L386.3,380.1z"/>
		</g>
	</g>
</g>
</svg>
