<svg id="Layer_1" height="512" viewBox="0 0 128 128" width="512" xmlns="http://www.w3.org/2000/svg" data-name="Layer 1"><path d="m105.964 44.417a1.75 1.75 0 0 0 1.688-1.29l4.685-17.187h9.163a1.749 1.749 0 0 0 1.75-1.75v-5.69a13.765 13.765 0 0 0 -13.75-13.75h-83a21.775 21.775 0 0 0 -21.75 21.75v75a21.775 21.775 0 0 0 21.75 21.75h95a1.749 1.749 0 0 0 1.75-1.75v-17.69a1.749 1.749 0 0 0 -1.75-1.75h-22.5a16.912 16.912 0 0 0 6.121-9.31h.577a6.94 6.94 0 0 0 0-13.88h-.055v-5.37a1.75 1.75 0 0 0 -1.75-1.75h-30.308a1.749 1.749 0 0 0 -1.75 1.75v15.16a16.864 16.864 0 0 0 6.646 13.4h-20.752v-76.12h7.414l4.684 17.187a1.751 1.751 0 0 0 1.689 1.29h9.474v9.253a1.749 1.749 0 0 0 1.75 1.75h4.25v4.208a1.75 1.75 0 0 0 3.5 0v-4.208h4.25a1.749 1.749 0 0 0 1.75-1.75v-2.67h13.427a1.75 1.75 0 0 0 0-3.5h-13.427v-3.083zm3.176 41.393a3.438 3.438 0 0 1 -3.44 3.44h-.085c.006-.2.03-.391.03-.59v-6.29h.055a3.444 3.444 0 0 1 3.44 3.44zm-33.805-10.56h26.81v3.62h-26.81zm0 13.41v-6.29h26.81v6.29a13.405 13.405 0 0 1 -26.81 0zm-19.356-66.22a1.751 1.751 0 0 0 -1.75 1.75v79.62a1.751 1.751 0 0 0 1.75 1.75h63.771v14.19h-93.25a18.271 18.271 0 0 1 -18.25-18.25v-75a18.271 18.271 0 0 1 18.25-18.25h83a10.261 10.261 0 0 1 10.25 10.25v3.94zm12.792 3.5h39.938l-4.082 14.977h-31.774zm24.219 25.98h-8.5v-7.5h8.5z"/><path d="m100 28.44h-13.125a1.75 1.75 0 0 0 0 3.5h13.125a1.75 1.75 0 0 0 0-3.5z"/><path d="m46.24 76.5h-30a1.749 1.749 0 0 0 -1.75 1.75v18.664a1.749 1.749 0 0 0 1.75 1.75h30a1.749 1.749 0 0 0 1.75-1.75v-18.667a1.749 1.749 0 0 0 -1.75-1.747zm-1.75 18.664h-26.5v-15.164h26.5z"/><path d="m31.24 46.179a7.25 7.25 0 1 0 -7.25-7.25 7.258 7.258 0 0 0 7.25 7.25zm0-11a3.75 3.75 0 1 1 -3.75 3.75 3.754 3.754 0 0 1 3.75-3.75z"/><path d="m31.24 65.631a7.25 7.25 0 1 0 -7.25-7.25 7.258 7.258 0 0 0 7.25 7.25zm0-11a3.75 3.75 0 1 1 -3.75 3.75 3.754 3.754 0 0 1 3.75-3.75z"/></svg>