<svg xmlns="http://www.w3.org/2000/svg" id="bedroom" width="42.629" height="31.088" viewBox="0 0 42.629 31.088">
    <defs>
        <style>
            .cls-1{fill:#707070}
        </style>
    </defs>
    <path id="Path_129" d="M41.8 155.259h-4.39v-1.119h1.361a.833.833 0 0 0 .833-.833v-5.446a1.817 1.817 0 0 0-1.815-1.814h-3.516v-2.241h1.85a1.041 1.041 0 0 0 .954-1.459 11.993 11.993 0 0 1-.863-3.693 1.514 1.514 0 0 0-1.5-1.388h-2.54a1.514 1.514 0 0 0-1.5 1.388 11.994 11.994 0 0 1-.863 3.693 1.041 1.041 0 0 0 .954 1.459h1.85v2.241h-3.524a1.817 1.817 0 0 0-1.814 1.814v5.446a.833.833 0 0 0 .833.833h1.361v1.119h-4.446v-1.791h.281a.833.833 0 0 0 .833-.833v-3.9a2.017 2.017 0 0 0-1.7-1.989v-5.506a2.63 2.63 0 0 0-2.627-2.627H5.778a2.629 2.629 0 0 0-2.626 2.627v5.506a2.017 2.017 0 0 0-1.7 1.989v3.9a.833.833 0 0 0 .833.833h.281v1.791H.833a.833.833 0 1 0 0 1.665H41.8a.833.833 0 1 0 0-1.665zm-9.481-16.329h2.249a14.427 14.427 0 0 0 .651 3.21h-3.554a14.431 14.431 0 0 0 .651-3.209zm-3.225 8.782h8.7a.15.15 0 0 1 .15.149v1.4h-9v-1.4a.149.149 0 0 1 .149-.149zm-.149 3.214h9v1.549h-9zm2.194 3.214h4.609v1.119h-4.612zM4.82 141.24a.962.962 0 0 1 .961-.961h16.03a.962.962 0 0 1 .961.961v5.482H21.6v-1.882a1.144 1.144 0 0 0-.666-1.038l-.144-.066a5.851 5.851 0 0 0-4.878 0l-.144.066a1.144 1.144 0 0 0-.666 1.038v1.882H12.75v-1.882a1.144 1.144 0 0 0-.666-1.038l-.144-.066a5.852 5.852 0 0 0-4.878 0l-.144.066a1.144 1.144 0 0 0-.666 1.038v1.882H4.817zm15.123 5.482h-3.171v-1.542a4.191 4.191 0 0 1 3.167 0zm-8.855 0H7.917v-1.542a4.188 4.188 0 0 1 3.167 0zm-6.856 8.541v-1.791h10.006a.833.833 0 0 0 0-1.665H3.115v-3.071a.348.348 0 0 1 .348-.348h20.662a.348.348 0 0 1 .348.348v3.064H20.9a.833.833 0 1 0 0 1.665h2.461v1.791zm0 0" class="cls-1" data-name="Path 129" transform="translate(0 -125.837)"/>
    <path id="Path_130" d="M178.558 9.641a1.786 1.786 0 0 0 .738.72l.018.009a1.773 1.773 0 0 0 .739.189H190.2a1.783 1.783 0 0 0 1.784-1.784V1.784A1.786 1.786 0 0 0 190.2 0h-10.08a1.786 1.786 0 0 0-1.784 1.784v6.995a1.772 1.772 0 0 0 .211.841l.011.021zm11.765-.862a.118.118 0 0 1-.062.1.115.115 0 0 1-.057.015h-9.727c.8-1.268 2.04-3.059 3.281-3.15a4.894 4.894 0 0 1 2.726 1.071 6.963 6.963 0 0 0 3.838 1.408zm-.123-7.114a.119.119 0 0 1 .119.119v1.022a1.713 1.713 0 0 1-2.116-1.141zm-10.084 0h6.384a3.382 3.382 0 0 0 3.34 2.874 3.363 3.363 0 0 0 .479-.034v2.054a5.435 5.435 0 0 1-2.957-1.159 6.221 6.221 0 0 0-3.725-1.317c-1.483.108-2.7 1.293-3.635 2.544V1.784a.119.119 0 0 1 .119-.119zm0 0" class="cls-1" data-name="Path 130" transform="translate(-163.488)"/>
    <path id="Path_131" d="M201.833 311.871a.833.833 0 1 0 0 1.665.833.833 0 1 0 0-1.665zm0 0" class="cls-1" data-name="Path 131" transform="translate(-184.265 -285.905)"/>
</svg>
