<svg xmlns="http://www.w3.org/2000/svg" id="bed" width="21.581" height="14.587" viewBox="0 0 21.581 14.587">
    <defs>
        <style>
            .cls-1{fill:#b2b2b2}
        </style>
    </defs>
    <g id="Group_118" data-name="Group 118">
        <path id="Path_134" d="M19.481 66.255v-3.508a2 2 0 0 0-2.147-2.147H4.178a1.99 1.99 0 0 0-2.147 2.147v3.508A2.2 2.2 0 0 0 0 68.655v2.724a.827.827 0 0 0 .831.831h.277v2.147a.827.827 0 0 0 .831.831h.785a.827.827 0 0 0 .831-.831v-2.17h14.471v2.17a.827.827 0 0 0 .831.831h.785a.827.827 0 0 0 .831-.831v-2.17h.277a.827.827 0 0 0 .831-.831v-2.7a2.294 2.294 0 0 0-2.1-2.401zM2.816 62.747h.046a1.18 1.18 0 0 1 1.316-1.316h13.156a1.18 1.18 0 0 1 1.316 1.316v3.485h-.623v-1.985a.827.827 0 0 0-.831-.831h-5.078a.827.827 0 0 0-.831.831v1.985h-.969v-1.985a.827.827 0 0 0-.831-.831H4.409a.827.827 0 0 0-.831.831v1.985h-.762zm14.38 1.5v1.985h-5.078v-1.985zm-7.663 0v1.985H4.455v-1.985zM2.7 74.356h-.784v-2.17H2.7v2.17zm16.9 0h-.785v-2.17h.785zm1.085-2.977H.808v-1.223h19.873zm0-2.054H.808v-.669A1.451 1.451 0 0 1 2.4 67.063h16.688a1.442 1.442 0 0 1 1.593 1.593v.669z" class="cls-1" data-name="Path 134" transform="translate(0 -60.6)"/>
    </g>
</svg>
