<svg xmlns="http://www.w3.org/2000/svg" width="202" height="195" viewBox="0 0 202 195">
    <defs>
        <style>
            .prefix__cls-2{fill:#b6312f}.prefix__cls-3{fill:#fff}.prefix__cls-4{fill:#2ebbff}.prefix__cls-6{fill:#1d1d1b;opacity:.2}.prefix__cls-8{fill:#ffc77a}.prefix__cls-9{fill:#f6f6f6}
        </style>
    </defs>
    <g id="prefix__Group_1025" data-name="Group 1025" transform="translate(-241.436 -350.797)">
        <g id="prefix__Group_1024" data-name="Group 1024" transform="translate(241.436 350.797)">
            <g id="prefix__Group_1022" data-name="Group 1022" transform="translate(36.053)">
                <path id="prefix__Path_1975" d="M361.008 468.621v-80.726L312.1 356.141h-.036l-.018.02-.036-.02-48.91 31.754v80.726z" data-name="Path 1975" transform="translate(-247.105 -343.244)" style="fill:#e96b57"/>
                <g id="prefix__Group_1019" data-name="Group 1019" transform="translate(14.994 49.771)">
                    <g id="prefix__Group_1017" data-name="Group 1017">
                        <path id="prefix__Rectangle_802" d="M0 0H7.047V7.3H0z" class="prefix__cls-2" data-name="Rectangle 802" transform="translate(0 67.111)"/>
                        <path id="prefix__Rectangle_803" d="M0 0H7.047V7.3H0z" class="prefix__cls-2" data-name="Rectangle 803" transform="translate(0 53.689)"/>
                        <path id="prefix__Rectangle_804" d="M0 0H7.047V7.3H0z" class="prefix__cls-2" data-name="Rectangle 804" transform="translate(0 40.267)"/>
                        <path id="prefix__Rectangle_805" d="M0 0H7.047V7.3H0z" class="prefix__cls-2" data-name="Rectangle 805" transform="translate(0 26.845)"/>
                        <path id="prefix__Rectangle_806" d="M0 0H7.047V7.3H0z" class="prefix__cls-2" data-name="Rectangle 806" transform="translate(0 13.422)"/>
                        <path id="prefix__Rectangle_807" d="M0 0H7.047V7.3H0z" class="prefix__cls-2" data-name="Rectangle 807"/>
                    </g>
                    <g id="prefix__Group_1018" data-name="Group 1018" transform="translate(92.859)">
                        <path id="prefix__Rectangle_808" d="M0 0H7.047V7.3H0z" class="prefix__cls-2" data-name="Rectangle 808" transform="translate(0 67.111)"/>
                        <path id="prefix__Rectangle_809" d="M0 0H7.047V7.3H0z" class="prefix__cls-2" data-name="Rectangle 809" transform="translate(0 53.689)"/>
                        <path id="prefix__Rectangle_810" d="M0 0H7.047V7.3H0z" class="prefix__cls-2" data-name="Rectangle 810" transform="translate(0 40.267)"/>
                        <path id="prefix__Rectangle_811" d="M0 0H7.047V7.3H0z" class="prefix__cls-2" data-name="Rectangle 811" transform="translate(0 26.845)"/>
                        <path id="prefix__Rectangle_812" d="M0 0H7.047V7.3H0z" class="prefix__cls-2" data-name="Rectangle 812" transform="translate(0 13.422)"/>
                        <path id="prefix__Rectangle_813" d="M0 0H7.047V7.3H0z" class="prefix__cls-2" data-name="Rectangle 813"/>
                    </g>
                </g>
                <path id="prefix__Path_1976" d="M294.135 350.8h15.38v30.761l-15.38-9.092z" class="prefix__cls-2" data-name="Path 1976" transform="translate(-203.237 -350.797)"/>
                <path id="prefix__Path_1977" d="M297.176 374.264l2.355 1.392h9.984v-.994h-3.14v-5.247h3.14v-.992h-7.194v-5.247h7.194v-.994h-3.14v-5.247h3.14v-.992h-7.194V350.8h-.992v5.147h-7.194v.992h3.041v5.247h-3.041v.994h7.194v5.247h-7.194v.992h3.041zm.992-12.081v-5.247h7.213v5.247zm0 12.479v-5.247h7.213v5.247z" class="prefix__cls-3" data-name="Path 1977" transform="translate(-203.237 -350.797)"/>
                <path id="prefix__Path_1978" d="M386.363 394.412l-1.7 3.179-2.8 5.206-60.434-39.264-60.456 39.267-2.8-5.206-1.7-3.179 25.827-16.774 9.08-5.9 2.153-1.391 2.767-1.808 25.125-16.294z" class="prefix__cls-2" data-name="Path 1978" transform="translate(-256.469 -348.748)"/>
                <g id="prefix__Group_1020" data-name="Group 1020" transform="translate(45.041 54.767)">
                    <path id="prefix__Rectangle_814" d="M0 0H28.551V34.669H0z" class="prefix__cls-4" data-name="Rectangle 814" transform="translate(5.628 1.099)"/>
                    <path id="prefix__Path_1979" d="M277.01 373.491v36.865h30.747v-36.865zm28.551 2.2v8.779h-26.355v-8.779zM279.206 386.8h12.011v21.36h-12.011zm14.345 21.36V386.8h12.011v21.36z" class="prefix__cls-3" data-name="Path 1979" transform="translate(-272.48 -373.491)"/>
                    <path id="prefix__Rectangle_815" d="M0 0H39.807V3.569H0z" data-name="Rectangle 815" transform="translate(0 36.866)" style="fill:#ffe8e6"/>
                    <path id="prefix__Rectangle_816" d="M0 0H39.807V3.896H0z" class="prefix__cls-6" data-name="Rectangle 816" transform="translate(0 40.435)"/>
                </g>
                <g id="prefix__Group_1021" data-name="Group 1021" transform="translate(55.119 28.773)">
                    <path id="prefix__Path_1980" d="M297.6 372.591c.01-.179.053-.347.053-.529a9 9 0 00-18.005 0c0 .181.043.35.053.529z" class="prefix__cls-4" data-name="Path 1980" transform="translate(-278.827 -362.238)"/>
                    <path id="prefix__Path_1981" d="M298.946 373.44c.014-.246.017-.859.012-1.1a9.826 9.826 0 00-19.649.225c0 .169 0 .707.014.878zm-9.076-9a8.136 8.136 0 017.375 7.416h-7.375zm-1.47 0v7.416h-7.375a8.136 8.136 0 017.375-7.418z" class="prefix__cls-3" data-name="Path 1981" transform="translate(-279.309 -362.72)"/>
                </g>
            </g>
            <path id="prefix__Path_1982" d="M361 388.73v3.186h-1.593l-47.347-30.769-47.373 30.769H263.1v-3.186l48.965-31.807z" class="prefix__cls-6" data-name="Path 1982" transform="translate(-211.052 -342.139)"/>
            <g id="prefix__Group_1023" data-name="Group 1023" transform="translate(0 63.351)">
                <path id="prefix__Path_1983" d="M341.464 445.285l-1.349-1.448-6.25-6.7c-.35-.376-2.768-3.06-3.186-3.316l-16.866-17.9-5.109 2.79-1.878 1.023 2.4-7.633 3.557-7.339-8.232-3.844a10.693 10.693 0 00-5.058-.99l-13.857.71-19.714 25.139 5.234 11.668a20.055 20.055 0 005.078 6.875L307 475.886a3.833 3.833 0 005.415-.012l1.26-1.175a4.191 4.191 0 00.987-4.938l.777.823a4.929 4.929 0 006.924.14l1.576-1.458a5.2 5.2 0 001.086-6.318 4.857 4.857 0 006.716.065l1.545-1.434a5.227 5.227 0 001.672-3.649 5.072 5.072 0 00-1.274-3.526 4.8 4.8 0 006.007-.432l1.523-1.421a5.139 5.139 0 00.25-7.266z" data-name="Path 1983" transform="translate(-207.041 -345.513)" style="fill:#edae5c"/>
                <path id="prefix__Path_1984" d="M286.018 424.681a5.507 5.507 0 00.579-7.766l-.661-.767a5.507 5.507 0 00-7.766-.579l-8.442 7.269a5.141 5.141 0 00-.541 7.252l1.359 1.578a4.8 4.8 0 006.769.507z" class="prefix__cls-8" data-name="Path 1984" transform="translate(-204.135 -325.117)"/>
                <path id="prefix__Path_1985" d="M291.07 428.077a5.5 5.5 0 00.644-7.819l-.659-.768a5.508 5.508 0 00-7.7-.635l-10.787 9.006a5.139 5.139 0 00-.6 7.3l1.354 1.576a4.8 4.8 0 006.716.553z" class="prefix__cls-8" data-name="Path 1985" transform="translate(-200.229 -320.56)"/>
                <path id="prefix__Path_1986" d="M292.372 432.162a5.507 5.507 0 00.582-7.766l-.661-.77a5.507 5.507 0 00-7.766-.579l-8.442 7.269a5.141 5.141 0 00-.543 7.252l1.361 1.578a4.8 4.8 0 006.769.507z" class="prefix__cls-8" data-name="Path 1986" transform="translate(-195.191 -314.712)"/>
                <path id="prefix__Path_1987" d="M292.619 434.173a4.4 4.4 0 00.236-6.209l-.548-.635a4.4 4.4 0 00-6.173-.69l-6.484 5.582a4.108 4.108 0 00-.217 5.8l1.122 1.306a3.836 3.836 0 005.384.6z" class="prefix__cls-8" data-name="Path 1987" transform="translate(-189.489 -309.119)"/>
                <path id="prefix__Path_1988" d="M333.59 421.173l-26-28.113-17.052 15.77 1.219 1.319 23.17 25.051 1.61 1.741z" class="prefix__cls-9" data-name="Path 1988" transform="translate(-172.377 -354.763)"/>
                <path id="prefix__Rectangle_817" d="M0 0H59.819V44.613H0z" data-name="Rectangle 817" transform="rotate(-42.762 115.764 -142.896)" style="fill:#485678"/>
                <path id="prefix__Path_1989" d="M312.56 404.3a2.829 2.829 0 11-3.251-2.329 2.829 2.829 0 013.251 2.329z" class="prefix__cls-9" data-name="Path 1989" transform="translate(-149.224 -342.259)"/>
                <path id="prefix__Path_1990" d="M315.355 401.787a2.829 2.829 0 11-3.251-2.331 2.826 2.826 0 013.251 2.331z" class="prefix__cls-9" data-name="Path 1990" transform="translate(-145.363 -345.77)"/>
                <path id="prefix__Path_1991" d="M317.82 399.32a2.829 2.829 0 11-3.253-2.331 2.83 2.83 0 013.253 2.331z" class="prefix__cls-9" data-name="Path 1991" transform="translate(-141.879 -349.218)"/>
                <path id="prefix__Path_1992" d="M258.385 421.173l26-28.113 17.053 15.771-1.219 1.319-23.17 25.05-1.61 1.741z" class="prefix__cls-9" data-name="Path 1992" transform="translate(-217.598 -354.763)"/>
                <path id="prefix__Rectangle_818" d="M0 0H44.613V59.819H0z" data-name="Rectangle 818" transform="rotate(-47.238 37.452 16.377)" style="fill:#28324e"/>
                <path id="prefix__Path_1993" d="M257.516 404.3a2.829 2.829 0 103.253-2.329 2.829 2.829 0 00-3.253 2.329z" class="prefix__cls-9" data-name="Path 1993" transform="translate(-218.853 -342.259)"/>
                <path id="prefix__Path_1994" d="M254.722 401.787a2.829 2.829 0 103.251-2.331 2.826 2.826 0 00-3.251 2.331z" class="prefix__cls-9" data-name="Path 1994" transform="translate(-222.714 -345.77)"/>
                <path id="prefix__Path_1995" d="M252.256 399.32a2.83 2.83 0 103.253-2.331 2.83 2.83 0 00-3.253 2.331z" class="prefix__cls-9" data-name="Path 1995" transform="translate(-226.198 -349.218)"/>
                <path id="prefix__Path_1996" d="M334.519 425.509l-23.167-25.055-10.256-.524a8.927 8.927 0 00-4.839 1.139l-15.1 8.507a4.5 4.5 0 00-2.256 3.364l-2.2 17.612a4.1 4.1 0 003.5 4.568l1.32.186a8.593 8.593 0 009.721-7.414l.845-6.557a3.638 3.638 0 011.684-2.623l1.892-1.178 2.951-1.61 26.3 27.912a20.014 20.014 0 004.578-6.388l5.234-11.668z" class="prefix__cls-8" data-name="Path 1996" transform="translate(-191.901 -345.217)"/>
            </g>
        </g>
        <path id="prefix__Path_1997" d="M342.67 352.247l-25.125 16.225-2.768 1.8-2.153 1.384-9.079 5.879-25.832 16.7 1.7 3.165 2.8 5.184 11.487-7.429v3.17h-1v7.27h1v6.1h-1v7.27h1v6.095h-1v6.117l-20.983-19.326-30.289 32.619 43.917 40.449 1.909-2.055 12.132 11.173 1.212-1.305 5.162 11.464a20.025 20.025 0 002.778 4.434l-1.356 1.163a5.106 5.106 0 00-.541 7.222l1.359 1.572a4.8 4.8 0 005.666 1.192 5.058 5.058 0 00-.323 6.989l1.354 1.569a4.815 4.815 0 006.716.55l.331-.274a5.1 5.1 0 00.234 6.374l1.361 1.572a4.812 4.812 0 006.769.5l.835-.716a4.2 4.2 0 00.647 4.658l1.122 1.3a3.846 3.846 0 005.384.6l2.136-1.831 1.371 1.4a3.442 3.442 0 001.062.755z" data-name="Path 1997" transform="translate(0 2.049)" style="opacity:.05;fill:#1d1d1b"/>
    </g>
</svg>
