<svg xmlns="http://www.w3.org/2000/svg" width="249.116" height="164.137" viewBox="0 0 249.116 164.137">
    <defs>
        <style>
            .prefix__cls-4{fill:#fed685}.prefix__cls-5{fill:#de673c}.prefix__cls-6{fill:#67707a}.prefix__cls-7{fill:#add9e3}.prefix__cls-9{fill:#8a903e}.prefix__cls-15{fill:#646265}
        </style>
    </defs>
    <g id="prefix__Group_492" data-name="Group 492" transform="translate(-10.756 -28.992)">
        <g id="prefix__search" transform="translate(10.756 28.992)">
            <g id="prefix__Group_488" data-name="Group 488" transform="translate(0 1.391)">
                <g id="prefix__Group_478" data-name="Group 478" transform="translate(0 41.199)">
                    <path id="prefix__Path_1261" d="M155.279 151.986c7.645-14.533 1.682-27.586-13.331-31.454-4.108-14.949-17.248-20.711-31.655-12.832-14.542-7.65-27.594-1.665-31.474 13.337C63.9 125.14 58.13 138.287 66 152.7c-7.653 14.519-1.682 27.569 13.312 31.454C83.438 199.1 96.591 204.857 111 196.975c14.514 7.639 27.572 1.679 31.443-13.334 14.95-4.105 20.715-17.261 12.836-31.655z" data-name="Path 1261" transform="translate(-62.478 -104.17)" style="fill:#97b93d"/>
                    <path id="prefix__Path_1262" d="M84.126 206.716h13.692l-5.158-65.69 9.477-12.063-.1-.077-9.619 9.187-1.828-23.282-.73.024-3.032 48.475-13.145-16.234-.188.114 12.991 21.669z" data-name="Path 1262" transform="translate(-42.767 -85.17)" style="fill:#795b3e"/>
                </g>
                <g id="prefix__Group_487" data-name="Group 487" transform="translate(28.491)">
                    <g id="prefix__Group_479" data-name="Group 479" transform="translate(111.63 18.209)">
                        <path id="prefix__Rectangle_509" d="M0 0H18.822V30.549H0z" data-name="Rectangle 509" style="fill:#ffd46c"/>
                    </g>
                    <path id="prefix__Path_1263" d="M198.9 237.3H80.416v-93.708l59.069-50 59.414 50z" class="prefix__cls-4" data-name="Path 1263" transform="translate(-58.878 -81.899)"/>
                    <path id="prefix__Path_1264" d="M153.479 106.287l66.229 62.419h14.555L153.479 89.4l-80.786 79.306h14.555z" class="prefix__cls-5" data-name="Path 1264" transform="translate(-72.693 -89.398)"/>
                    <path id="prefix__Rectangle_510" d="M0 0H25.428V8.986H0z" class="prefix__cls-6" data-name="Rectangle 510" transform="translate(108.327 9.44)"/>
                    <path id="prefix__Rectangle_511" d="M0 0H30.123V52.674H0z" class="prefix__cls-6" data-name="Rectangle 511" transform="translate(38.038 102.728)"/>
                    <path id="prefix__Rectangle_512" d="M0 0H25.389V23.646H0z" class="prefix__cls-5" data-name="Rectangle 512" transform="translate(40.405 106.071)"/>
                    <g id="prefix__Group_480" data-name="Group 480" transform="translate(41.646 107.228)">
                        <path id="prefix__Rectangle_513" d="M0 0H22.905V21.332H0z" class="prefix__cls-7" data-name="Rectangle 513"/>
                    </g>
                    <path id="prefix__Rectangle_514" d="M0 0H49.674V44.244H0z" class="prefix__cls-6" data-name="Rectangle 514" transform="translate(80.778 88.514)"/>
                    <g id="prefix__Group_481" data-name="Group 481" transform="translate(82.034 89.771)">
                        <path id="prefix__Rectangle_515" d="M0 0H47.164V41.734H0z" class="prefix__cls-7" data-name="Rectangle 515"/>
                    </g>
                    <path id="prefix__Rectangle_516" d="M0 0H35.302V31.44H0z" class="prefix__cls-6" data-name="Rectangle 516" transform="translate(63.129 40.195)"/>
                    <g id="prefix__Group_482" data-name="Group 482" transform="translate(64.384 41.449)">
                        <path id="prefix__Rectangle_517" d="M0 0H32.789V28.93H0z" class="prefix__cls-7" data-name="Rectangle 517"/>
                    </g>
                    <path id="prefix__Rectangle_518" d="M0 0H53.361V3.747H0z" class="prefix__cls-6" data-name="Rectangle 518" transform="translate(78.935 130.79)"/>
                    <g id="prefix__Group_483" data-name="Group 483" transform="translate(115.472 116.112)">
                        <path id="prefix__Path_1265" d="M124.043 133.7h-9.8l1.3 6.134h7.188z" class="prefix__cls-4" data-name="Path 1265" transform="translate(-113.825 -126.264)"/>
                        <path id="prefix__Path_1266" d="M115.967 134.414c.229-.268.471-3.631 4.655-3.369a4.928 4.928 0 01-4.089 5.179c-1.096.246-.566-1.81-.566-1.81z" data-name="Path 1266" transform="translate(-110.978 -131.031)" style="fill:#9fc663"/>
                        <path id="prefix__Path_1267" d="M116.522 136.283c-.192-.268-3.2-1.247-2.022-4.992a4.618 4.618 0 013.8 4.881c-.027 1.057-1.778.111-1.778.111z" class="prefix__cls-9" data-name="Path 1267" transform="translate(-113.861 -130.565)"/>
                        <path id="prefix__Path_1268" d="M115.818 137.309c0-.4-2.24-3.467 1.556-6.278a5.545 5.545 0 01.24 7.424c-.764 1.01-1.796-1.146-1.796-1.146z" data-name="Path 1268" transform="translate(-112.189 -131.03)" style="fill:#bbca3c"/>
                        <path id="prefix__Path_1269" d="M119.205 137.806a6.482 6.482 0 002.705-5.921c-5.452-.112-5.575 4.276-5.857 4.638a5.824 5.824 0 00-.114 1.283z" data-name="Path 1269" transform="translate(-110.805 -129.506)" style="fill:#c6e062"/>
                        <path id="prefix__Path_1270" d="M116.118 137.026h3.6a5.543 5.543 0 00-5.575-4.7c-.301 2.767.89 4.05 1.975 4.7z" data-name="Path 1270" transform="translate(-114.096 -128.725)" style="fill:#c8e071"/>
                        <path id="prefix__Path_1271" d="M124.043 133.7h-9.8l.338 1.577h9.12z" class="prefix__cls-5" data-name="Path 1271" transform="translate(-113.825 -126.264)"/>
                        <path id="prefix__Path_1272" d="M122.468 138.569l.885-4.169H114.4l.883 4.169z" class="prefix__cls-5" data-name="Path 1272" transform="translate(-113.556 -125.004)"/>
                        <path id="prefix__Path_1273" d="M124.085 136.473a.653.653 0 01-.655.655h-8.54a.652.652 0 01-.653-.655.651.651 0 01.653-.65h8.54a.652.652 0 01.655.65z" class="prefix__cls-5" data-name="Path 1273" transform="translate(-113.844 -122.458)"/>
                    </g>
                    <g id="prefix__Group_486" data-name="Group 486" transform="translate(65.256 60.816)">
                        <g id="prefix__Group_484" data-name="Group 484" transform="translate(0 1.857)">
                            <path id="prefix__Path_1274" d="M97.787 112.417a.793.793 0 11-1.247-.284.929.929 0 011.247.284z" class="prefix__cls-9" data-name="Path 1274" transform="translate(-95.665 -111.658)"/>
                            <path id="prefix__Path_1275" d="M96.647 113.126a.5.5 0 01-.48-.494.456.456 0 11.48.494z" class="prefix__cls-9" data-name="Path 1275" transform="translate(-95.956 -111.47)"/>
                            <path id="prefix__Path_1276" d="M96.374 111.962l.014-.028a.03.03 0 01.033.011l.276.549a.029.029 0 010 .033.033.033 0 01-.039-.011l-.279-.547z" class="prefix__cls-9" data-name="Path 1276" transform="translate(-95.585 -111.758)"/>
                            <path id="prefix__Path_1277" d="M96.675 111.884l.025-.014c.017 0 .025.011.025.028l-.07.614c0 .011-.014.02-.025.02a.025.025 0 01-.022-.028l.067-.611z" class="prefix__cls-9" data-name="Path 1277" transform="translate(-95.166 -111.87)"/>
                            <path id="prefix__Path_1278" d="M96.139 112.172a.031.031 0 01-.014-.028c.008-.011.022-.022.033-.02l.594.173a.021.021 0 01.017.028.026.026 0 01-.033.017l-.588-.17z" class="prefix__cls-9" data-name="Path 1278" transform="translate(-96.03 -111.416)"/>
                            <path id="prefix__Path_1279" d="M96.111 112.379l-.02-.02a.025.025 0 01.022-.028l.614-.061a.023.023 0 01.025.022.02.02 0 01-.022.025l-.616.061z" class="prefix__cls-9" data-name="Path 1279" transform="translate(-96.091 -111.154)"/>
                            <path id="prefix__Path_1280" d="M96.2 112.792a.035.035 0 01-.033 0 .023.023 0 010-.033l.407-.466h.033v.033l-.4.463z" class="prefix__cls-9" data-name="Path 1280" transform="translate(-95.969 -111.119)"/>
                            <path id="prefix__Path_1281" d="M96.4 112.919h-.031c-.011-.006-.011-.02-.006-.031l.346-.516c0-.011.02-.017.025-.006l.008.033-.34.513z" class="prefix__cls-9" data-name="Path 1281" transform="translate(-95.603 -110.992)"/>
                            <path id="prefix__Path_1282" d="M96.521 112.983H96.5c-.014-.006-.014-.025 0-.036l.4-.469a.023.023 0 01.033 0 .026.026 0 010 .036l-.4.469z" class="prefix__cls-9" data-name="Path 1282" transform="translate(-95.386 -110.797)"/>
                        </g>
                        <g id="prefix__Group_485" data-name="Group 485" transform="translate(4.104)">
                            <path id="prefix__Path_1283" d="M99.79 113.574a1.2 1.2 0 11.064-1.941 1.406 1.406 0 01-.064 1.941z" class="prefix__cls-9" data-name="Path 1283" transform="translate(-97.562 -110.776)"/>
                            <path id="prefix__Path_1284" d="M98.265 112.356a.521.521 0 01-.053-1.032.522.522 0 01.053 1.032z" class="prefix__cls-9" data-name="Path 1284" transform="translate(-97.165 -110.99)"/>
                            <path id="prefix__Path_1285" d="M97.948 111.224l.02-.02a.023.023 0 01.025.025l.036.616a.022.022 0 01-.022.022c-.014.006-.028-.008-.028-.022l-.031-.616z" class="prefix__cls-9" data-name="Path 1285" transform="translate(-96.873 -111.204)"/>
                            <path id="prefix__Path_1286" d="M98.536 111.371a.025.025 0 01.031 0 .021.021 0 01.006.033l-.335.516a.031.031 0 01-.033.011.026.026 0 01-.006-.036l.332-.519z" class="prefix__cls-9" data-name="Path 1286" transform="translate(-96.434 -110.917)"/>
                            <path id="prefix__Path_1287" d="M98.9 111.551l.028.014a.023.023 0 01-.011.031l-.549.284a.042.042 0 01-.036-.011.025.025 0 01.014-.031l.549-.284z" class="prefix__cls-9" data-name="Path 1287" transform="translate(-96.181 -110.583)"/>
                            <path id="prefix__Path_1288" d="M99.011 111.892a.019.019 0 01.014.025.027.027 0 01-.025.022l-.614-.07a.03.03 0 01-.025-.028.033.033 0 01.031-.02l.614.067z" class="prefix__cls-9" data-name="Path 1288" transform="translate(-96.134 -110.098)"/>
                            <path id="prefix__Path_1289" d="M98.9 112.285a.02.02 0 010 .031c0 .011-.014.014-.028.008l-.555-.268a.027.027 0 01-.011-.033.028.028 0 01.033-.011l.552.268z" class="prefix__cls-9" data-name="Path 1289" transform="translate(-96.23 -109.761)"/>
                            <path id="prefix__Path_1290" d="M98.621 112.613c.006.011.006.025 0 .031a.026.026 0 01-.036 0l-.449-.424v-.031h.036l.449.421z" class="prefix__cls-9" data-name="Path 1290" transform="translate(-96.547 -109.442)"/>
                            <path id="prefix__Path_1291" d="M97.691 111.4a.037.037 0 010-.031h.033l.5.354a.031.031 0 01.008.033.027.027 0 01-.036.006l-.5-.354z" class="prefix__cls-9" data-name="Path 1291" transform="translate(-97.341 -110.914)"/>
                        </g>
                        <path id="prefix__Path_1292" d="M100.685 114.553c0 1.481-.881 2.68-1.966 2.68s-1.969-1.2-1.969-2.68.881-2.683 1.969-2.683 1.966 1.202 1.966 2.683z" class="prefix__cls-9" data-name="Path 1292" transform="translate(-94.912 -110.013)"/>
                        <path id="prefix__Path_1293" d="M98.054 112.779a.024.024 0 01-.025-.02.025.025 0 01.017-.028l.6-.137c.014-.006.025.006.033.02a.035.035 0 01-.025.028l-.6.134z" class="prefix__cls-9" data-name="Path 1293" transform="translate(-92.624 -108.718)"/>
                        <path id="prefix__Path_1294" d="M97.441 111.771a.019.019 0 01.02-.02.023.023 0 01.025.022l.036.616a.027.027 0 01-.025.025.022.022 0 01-.022-.022l-.033-.616z" class="prefix__cls-9" data-name="Path 1294" transform="translate(-93.676 -110.225)"/>
                        <path id="prefix__Path_1295" d="M97.136 111.871a.017.017 0 01.011-.025.021.021 0 01.031.011l.248.566a.021.021 0 01-.011.031.023.023 0 01-.028-.014l-.251-.563z" class="prefix__cls-9" data-name="Path 1295" transform="translate(-94.225 -110.061)"/>
                        <path id="prefix__Path_1296" d="M96.937 112.006l.008-.029h.032l.4.466v.033h-.035l-.4-.469z" class="prefix__cls-9" data-name="Path 1296" transform="translate(-94.577 -109.82)"/>
                        <path id="prefix__Path_1297" d="M98.059 112.913a.019.019 0 01-.017-.025.021.021 0 01.025-.022l.614.053c.014 0 .028.011.022.025a.024.024 0 01-.025.022l-.616-.053z" class="prefix__cls-9" data-name="Path 1297" transform="translate(-92.601 -108.233)"/>
                        <path id="prefix__Path_1298" d="M98.044 113.129a.019.019 0 01-.017-.025.024.024 0 01.022-.022l.616.053a.024.024 0 01.022.028c0 .014-.011.022-.028.02l-.611-.05z" class="prefix__cls-9" data-name="Path 1298" transform="translate(-92.628 -107.844)"/>
                        <path id="prefix__Path_1299" d="M97.259 113.18a.021.021 0 01.022.017.022.022 0 01-.02.028l-.605.12c-.014 0-.022-.006-.028-.02a.025.025 0 01.02-.028l.6-.117z" class="prefix__cls-9" data-name="Path 1299" transform="translate(-95.129 -107.669)"/>
                        <path id="prefix__Path_1300" d="M97.267 113a.024.024 0 01.017.025c-.006.014-.017.025-.031.022l-.608-.07a.03.03 0 01-.025-.028.026.026 0 01.031-.022l.614.073z" class="prefix__cls-9" data-name="Path 1300" transform="translate(-95.145 -108.115)"/>
                        <path id="prefix__Path_1301" d="M97.288 112.788a.021.021 0 01.014.025.025.025 0 01-.028.022l-.611-.073c-.014 0-.025-.014-.02-.025a.025.025 0 01.022-.025l.616.075z" class="prefix__cls-9" data-name="Path 1301" transform="translate(-95.104 -108.504)"/>
                        <path id="prefix__Path_1302" d="M96.58 113.391h4.882l-.734 3.449h-3.42z" class="prefix__cls-6" data-name="Path 1302" transform="translate(-95.216 -107.291)"/>
                    </g>
                    <path id="prefix__Rectangle_519" d="M0 0H1.369V41.734H0z" class="prefix__cls-6" data-name="Rectangle 519" transform="translate(104.931 89.771)"/>
                    <path id="prefix__Rectangle_520" d="M0 0H25.523V1.367H0z" class="prefix__cls-6" data-name="Rectangle 520" transform="translate(80.778 105.302)"/>
                    <path id="prefix__Rectangle_521" d="M0 0H34.071V1.33H0z" class="prefix__cls-6" data-name="Rectangle 521" transform="translate(63.744 50.241)"/>
                    <path id="prefix__Rectangle_522" d="M0 0H126.304V7.344H0z" class="prefix__cls-5" data-name="Rectangle 522" transform="translate(17.629 155.402)"/>
                    <path id="prefix__Rectangle_523" d="M0 0H2.666V4.654H0z" class="prefix__cls-4" data-name="Rectangle 523" transform="translate(63.129 134.537)"/>
                </g>
                <path id="prefix__Path_1303" d="M168.893 164.059c2.839-7.617-.759-14.132-8.76-16.1-2.479-8.6-10.113-11.85-18.377-7.2-8.448-4.331-15.947-.8-18.092 7.885-7.564 2.178-10.966 8.345-8.543 15.417z" data-name="Path 1303" transform="translate(30.319 -1.315)" style="fill:#819b48"/>
            </g>
            <g id="prefix__Group_491" data-name="Group 491" transform="translate(114.766)">
                <g id="prefix__Group_489" data-name="Group 489" transform="translate(69.601 82.101)">
                    <path id="prefix__Rectangle_524" d="M0 0H26.366V70.091H0z" data-name="Rectangle 524" transform="rotate(-37.696 23.614 8.061)" style="fill:#df6958"/>
                </g>
                <path id="prefix__Rectangle_525" d="M0 0H8.019V25.089H0z" class="prefix__cls-15" data-name="Rectangle 525" transform="rotate(-37.68 136.13 -53.357)"/>
                <path id="prefix__Path_1304" d="M150.124 119.572c-1.484-1.791-3.679-2.443-4.984-1.434l-16.017 12.375c-1.311 1.007-1.233 3.288.131 5.182z" class="prefix__cls-15" data-name="Path 1304" transform="translate(-59.696 -37.444)"/>
                <path id="prefix__Path_1305" d="M143.934 154.356c1.478 1.8 3.673 2.449 4.984 1.439l16.009-12.377c1.314-1 1.241-3.294-.131-5.182z" class="prefix__cls-15" data-name="Path 1305" transform="translate(-31.52 -.638)"/>
                <g id="prefix__Group_490" data-name="Group 490">
                    <path id="prefix__Path_1306" d="M185.5 106.672a45.7 45.7 0 10-8.225 64.1 45.69 45.69 0 008.225-64.1z" class="prefix__cls-15" data-name="Path 1306" transform="translate(-103.627 -88.9)"/>
                </g>
                <path id="prefix__Path_1307" d="M173.541 106.421a37.355 37.355 0 10-6.716 52.385 37.363 37.363 0 006.716-52.385z" data-name="Path 1307" transform="translate(-98.274 -83.545)" style="fill:#6bbebb"/>
            </g>
        </g>
    </g>
</svg>
