<svg xmlns="http://www.w3.org/2000/svg" id="bedroom" width="26.623" height="19.415" viewBox="0 0 26.623 19.415">
    <defs>
        <style>
            .cls-1{fill:#fff}
        </style>
    </defs>
    <path id="Path_129" d="M26.1 148.5h-2.737v-.7h.85a.52.52 0 0 0 .52-.52v-3.4a1.135 1.135 0 0 0-1.133-1.13h-2.2v-1.4h1.155a.65.65 0 0 0 .6-.911 7.49 7.49 0 0 1-.539-2.306.945.945 0 0 0-.938-.867h-1.587a.945.945 0 0 0-.938.867 7.491 7.491 0 0 1-.539 2.306.65.65 0 0 0 .6.911h1.155v1.4h-2.2a1.135 1.135 0 0 0-1.133 1.133v3.4a.52.52 0 0 0 .52.52h.85v.7h-2.777v-1.119h.171a.52.52 0 0 0 .52-.52v-2.438a1.259 1.259 0 0 0-1.063-1.242v-3.438a1.642 1.642 0 0 0-1.64-1.64H3.608a1.642 1.642 0 0 0-1.64 1.64v3.438a1.259 1.259 0 0 0-1.063 1.242v2.438a.52.52 0 0 0 .52.52H1.6v1.116H.52a.52.52 0 0 0 0 1.04H26.1a.52.52 0 0 0 0-1.04zm-5.921-10.2h1.4a9.01 9.01 0 0 0 .406 2h-2.209a9.012 9.012 0 0 0 .406-1.994zm-2.014 5.484H23.6a.093.093 0 0 1 .093.093v.874h-5.618v-.874a.093.093 0 0 1 .093-.093zm-.093 2.007h5.619v.967h-5.616zm1.37 2.007h2.878v.7h-2.875zm-16.434-8.052a.6.6 0 0 1 .6-.6h10.013a.6.6 0 0 1 .6.6v3.423h-.729v-1.175a.714.714 0 0 0-.416-.648l-.09-.041a3.654 3.654 0 0 0-3.046 0l-.09.041a.715.715 0 0 0-.416.648v1.175H7.962v-1.175a.714.714 0 0 0-.416-.648l-.09-.041a3.655 3.655 0 0 0-3.046 0l-.09.041a.715.715 0 0 0-.416.648v1.175h-.9zm9.444 3.423h-1.978v-.963a2.617 2.617 0 0 1 1.978 0zm-5.53 0H4.944v-.963a2.615 2.615 0 0 1 1.978 0zM2.641 148.5v-1.119h6.251a.52.52 0 1 0 0-1.04H1.945v-1.918a.218.218 0 0 1 .217-.217h12.9a.218.218 0 0 1 .217.217v1.918h-2.228a.52.52 0 1 0 0 1.04h1.537v1.119zm0 0" class="cls-1" data-name="Path 129" transform="translate(0 -130.128)"/>
    <path id="Path_130" d="M178.475 6.021a1.115 1.115 0 0 0 .461.45l.011.006a1.107 1.107 0 0 0 .461.118h6.337a1.113 1.113 0 0 0 1.114-1.114V1.114A1.116 1.116 0 0 0 185.748 0h-6.3a1.115 1.115 0 0 0-1.114 1.114v4.369a1.107 1.107 0 0 0 .132.525l.007.013zm7.347-.538a.074.074 0 0 1-.039.065.072.072 0 0 1-.035.009h-6.075c.5-.792 1.274-1.91 2.049-1.967a3.056 3.056 0 0 1 1.7.669 4.348 4.348 0 0 0 2.4.879zm-.074-4.443a.074.074 0 0 1 .074.074v.638a1.07 1.07 0 0 1-1.322-.712zm-6.3 0h3.987a2.112 2.112 0 0 0 2.086 1.795 2.1 2.1 0 0 0 .3-.021V4.1a3.394 3.394 0 0 1-1.849-.721 3.885 3.885 0 0 0-2.326-.822 3.422 3.422 0 0 0-2.27 1.589V1.114a.074.074 0 0 1 .074-.074zm0 0" class="cls-1" data-name="Path 130" transform="translate(-169.063)"/>
    <path id="Path_131" d="M201.52 311.871a.52.52 0 0 0 0 1.04.52.52 0 1 0 0-1.04zm0 0" class="cls-1" data-name="Path 131" transform="translate(-190.549 -295.655)"/>
</svg>
