<?xml version="1.0" encoding="iso-8859-1"?>
<!-- Generator: Adobe Illustrator 19.0.0, SVG Export Plug-In . SVG Version: 6.00 Build 0)  -->
<svg version="1.1" id="Capa_1" xmlns="http://www.w3.org/2000/svg" xmlns:xlink="http://www.w3.org/1999/xlink" x="0px" y="0px"
	 viewBox="0 0 511.999 511.999" style="enable-background:new 0 0 511.999 511.999;" xml:space="preserve">
<g>
	<g>
		<path d="M453.343,114.181c-2.98-5.161-8.317-8.242-14.276-8.242h-32.733l-0.163-37.468c0-6.984-4.679-13.241-11.378-15.216
			l-8.775-2.587V14.792h7.429c4.085,0,7.396-3.311,7.396-7.396S397.531,0,393.446,0h-14.825h-37.843h-14.825
			c-4.085,0-7.396,3.311-7.396,7.396s3.311,7.396,7.396,7.396h7.429v20.36l-27.003-7.96c-33.387-9.842-68.684-9.842-102.072,0
			l-88.414,26.063c-6.699,1.975-11.377,8.232-11.377,15.248l0.163,37.436H72.931c-5.96,0-11.297,3.081-14.276,8.242
			c-2.98,5.161-2.981,11.324,0,16.486l38.981,67.517c1.776,3.076,4.393,5.405,7.476,6.791l0.717,164.445v85.444
			c0,4.085,3.311,7.396,7.396,7.396h8.792v38.675c0,6.101,4.963,11.064,11.064,11.064h20.33c6.101,0,11.064-4.963,11.064-11.064
			V462.26h185.459v38.675c0,6.101,4.963,11.064,11.064,11.064h20.33c6.101,0,11.064-4.963,11.064-11.064V462.26h7.697
			c4.085,0,7.396-3.311,7.396-7.396v-85.477c0-0.005-0.001-0.01-0.001-0.015c0-0.006,0.001-0.011,0.001-0.017l-0.716-164.325
			c3.136-1.38,5.798-3.73,7.597-6.847l38.982-67.517C456.324,125.505,456.323,119.343,453.343,114.181z M71.464,123.272
			c-0.404-0.7-0.223-1.308,0-1.694c0.223-0.386,0.658-0.846,1.466-0.846h31.813l0.264,60.639L71.464,123.272z M348.174,14.792
			h23.052v31.516l-23.052-6.795V14.792z M119.308,68.471c0-0.472,0.316-0.894,0.768-1.028L208.49,41.38
			c30.652-9.035,63.056-9.035,93.707,0l36.36,10.719c0.021,0.007,0.042,0.012,0.063,0.018l37.785,11.139
			c0.016,0.005,0.033,0.009,0.049,0.014l14.156,4.173c0.453,0.133,0.769,0.556,0.769,1.06l1.279,293.489H120.587L119.308,68.471z
			 M149.681,497.208h-12.874V462.26h12.874V497.208z M377.597,497.208h-12.874V462.26h12.874V497.208z M392.69,447.469h-7.697
			h-27.666h-200.25h-27.666h-8.792v-70.685H392.69V447.469z M440.534,123.271l-33.869,58.662l-0.267-61.202h32.669
			c0.808,0,1.243,0.46,1.466,0.846C440.757,121.964,440.938,122.572,440.534,123.271z"/>
	</g>
</g>
<g>
	<g>
		<path d="M255.343,380.876c-17.232,0-31.25,14.019-31.25,31.251s14.018,31.25,31.25,31.25s31.251-14.018,31.251-31.25
			S272.575,380.876,255.343,380.876z M259.683,419.523h10.343c-2.715,5.366-8.269,9.062-14.683,9.062
			c-9.075,0-16.458-7.383-16.458-16.458c0-9.076,7.383-16.459,16.458-16.459c6.414,0,11.968,3.696,14.683,9.063h-10.343
			c-4.085,0-7.396,3.311-7.396,7.396C252.287,416.212,255.598,419.523,259.683,419.523z"/>
	</g>
</g>
<g>
	<g>
		<circle cx="143.249" cy="400.49" r="7.685"/>
	</g>
</g>
<g>
	<g>
		<circle cx="143.249" cy="423.41" r="7.685"/>
	</g>
</g>
<g>
	<g>
		<path d="M189.386,393.093h-23.643c-4.085,0-7.396,3.311-7.396,7.396c0,4.085,3.311,7.396,7.396,7.396h23.643
			c4.085,0,7.396-3.311,7.396-7.396C196.782,396.404,193.471,393.093,189.386,393.093z"/>
	</g>
</g>
<g>
	<g>
		<path d="M189.386,416.011h-23.643c-4.085,0-7.396,3.311-7.396,7.396c0,4.085,3.311,7.396,7.396,7.396h23.643
			c4.085,0,7.396-3.311,7.396-7.396C196.782,419.322,193.471,416.011,189.386,416.011z"/>
	</g>
</g>
<g>
	<g>
		<path d="M357.845,75.551H154.174c-10.105,0-18.326,8.221-18.326,18.327v230.755c0,10.105,8.221,18.326,18.326,18.326h203.671
			c10.105,0,18.326-8.221,18.326-18.327V93.878C376.171,83.773,367.95,75.551,357.845,75.551z M361.381,324.633
			c0,1.949-1.586,3.535-3.535,3.535H154.174c-1.949,0-3.535-1.586-3.535-3.535V93.878h0.001c0-1.949,1.586-3.535,3.535-3.535
			h203.671c1.949,0,3.535,1.586,3.535,3.535V324.633z"/>
	</g>
</g>
<g>
	<g>
		<path d="M177.564,163.773c-4.085,0-7.396,3.311-7.396,7.396v64.558c0,4.084,3.312,7.396,7.396,7.396
			c4.085,0,7.396-3.311,7.396-7.396v-64.558C184.96,167.084,181.649,163.773,177.564,163.773z"/>
	</g>
</g>
<g>
	<g>
		<path d="M260.149,115.657c-16.141,0-29.273,13.132-29.273,29.273s13.132,29.273,29.273,29.273s29.273-13.132,29.273-29.273
			S276.29,115.657,260.149,115.657z M260.149,159.411c-7.985,0-14.481-6.496-14.481-14.481s6.496-14.481,14.481-14.481
			c7.985,0,14.481,6.496,14.481,14.481S268.134,159.411,260.149,159.411z"/>
	</g>
</g>
<g>
</g>
<g>
</g>
<g>
</g>
<g>
</g>
<g>
</g>
<g>
</g>
<g>
</g>
<g>
</g>
<g>
</g>
<g>
</g>
<g>
</g>
<g>
</g>
<g>
</g>
<g>
</g>
<g>
</g>
</svg>
