<svg xmlns="http://www.w3.org/2000/svg" width="170.201" height="138.195" viewBox="0 0 170.201 138.195">
  <g id="Group_477" data-name="Group 477" transform="translate(-54.977 -59.852)">
    <g id="prefix__key" transform="translate(54.977 59.85)">
      <g id="key">
        <path id="Path_1251" data-name="Path 1251" d="M84.846,232.673l-5.372-3.32L30.807,308.1l7.591-.269,5.931-1.3-.025-8.257,6.752-2.63,1.641-2.655-1.05-6.6,1.443-2.34,8.713-5.8,2.422-3.92.488-9.085,8.338-5.2,1.1-1.772,2.122.28L78,255.757,90.218,236Z" transform="translate(-24.499 -169.903)" fill="#f29e3e"/>
        <path id="Path_1252" data-name="Path 1252" d="M71.937,226.088,27.7,297.657l6.308,13.819L82.68,232.73Z" transform="translate(-27.705 -173.279)" fill="#ffb640"/>
        <path id="Path_1253" data-name="Path 1253" d="M74.744,227.3,28.861,301.547l1.7,3.717,47.075-76.172Z" transform="translate(-26.511 -172.022)" fill="#f29e3e"/>
        <path id="Path_1254" data-name="Path 1254" d="M114.025,221.4,83.54,202.568A16.223,16.223,0,0,0,60.95,208.2L42.869,239.165a17.232,17.232,0,0,0,5.772,23.159l27.54,17.021a17.24,17.24,0,0,0,23.3-5.2l19.6-30.02a16.227,16.227,0,0,0-5.056-22.725ZM85.281,233.83a7.709,7.709,0,1,1,5.828.951,7.715,7.715,0,0,1-5.828-.951Z" transform="translate(-14.398 -200.123)" fill="#ffcb55"/>
        <path id="Path_1255" data-name="Path 1255" d="M116.9,230.82a13.167,13.167,0,0,0-5.984-8.379L80.43,203.6a13.209,13.209,0,0,0-18.4,4.59L43.947,239.151A14.167,14.167,0,0,0,48.7,258.226l27.54,17.021a14.164,14.164,0,0,0,19.187-4.277l19.608-30.02a13.184,13.184,0,0,0,1.865-10.13ZM83.756,232.3a7.709,7.709,0,1,1,5.828.951,7.715,7.715,0,0,1-5.828-.951Z" transform="translate(-12.873 -198.592)" fill="#ffb640"/>
        <path id="Path_1256" data-name="Path 1256" d="M74.089,210.311a9.224,9.224,0,1,0,3,12.7,9.224,9.224,0,0,0-3-12.7Zm-8.906,14.408a7.708,7.708,0,1,1,5.827.952,7.715,7.715,0,0,1-5.827-.952Z" transform="translate(5.701 -191.012)" fill="#ffc440"/>
      </g>
      <path id="Path_1257" data-name="Path 1257" d="M80.69,219.45a12.479,12.479,0,0,1-.395,3.46,32.6,32.6,0,0,0,8.2-4.531l-1.133-2.906A22.552,22.552,0,0,1,80.69,219.45Z" transform="translate(26.664 -184.254)" fill="#67707a"/>
      <path id="Path_1258" data-name="Path 1258" d="M112.89,213.551c-2.87-7.474-11.654-12.622-22.269-12.622a33.636,33.636,0,0,0-4.68.332c-13.84,1.957-23.888,12.112-22.4,22.635a15.715,15.715,0,0,0,5.3,9.608,8.659,8.659,0,0,0,2.343-1.6,12.4,12.4,0,0,1-4.731-8.422c-1.257-8.918,7.67-17.581,19.9-19.309a30.183,30.183,0,0,1,4.267-.3c8.5,0,15.628,3.6,18.7,9.006Z" transform="translate(9.193 -199.29)" fill="#67707a"/>
      <g id="Group_476" data-name="Group 476" transform="translate(105.631 13.045)">
        <path id="Path_1259" data-name="Path 1259" d="M87.694,206.537l-8.052,45.5,4.834-3.449.761-3.844,19.6,27.477,39.375-28.079-19.6-27.477,3.885.533,4.839-3.451Zm9.88,13.893a3.726,3.726,0,1,1,.866-5.2A3.726,3.726,0,0,1,97.574,220.43Z" transform="translate(-79.642 -206.537)" fill="#32cbcb"/>
      </g>
      <path id="Path_1260" data-name="Path 1260" d="M90.468,210.727a14.911,14.911,0,0,0-.846-3.252l-3.571-.669a12.224,12.224,0,0,1,1.5,4.332c.4,2.788-1.418,7.147-1.649,8.148a4.052,4.052,0,0,0,1.039.98,3.308,3.308,0,0,0,1.475.541,15.238,15.238,0,0,0,2.052-10.08Z" transform="translate(32.461 -193.214)" fill="#67707a"/>
    </g>
  </g>
</svg>
