<svg xmlns="http://www.w3.org/2000/svg" id="prefix__edit" width="24.577" height="24.453" viewBox="0 0 24.577 24.453">
    <defs>
        <style>
            .prefix__cls-1{fill:#8f8f8f}
        </style>
    </defs>
    <path id="prefix__Path_153" d="M22.684 52.136a.612.612 0 00-.612.612v5.435a1.838 1.838 0 01-1.836 1.836H3.06a1.838 1.838 0 01-1.836-1.836v-15.95A1.838 1.838 0 013.06 40.4H8.5a.612.612 0 100-1.224H3.06A3.064 3.064 0 000 42.233v15.95a3.064 3.064 0 003.06 3.06h17.175a3.064 3.064 0 003.06-3.06v-5.435a.612.612 0 00-.612-.612zm0 0" class="prefix__cls-1" data-name="Path 153" transform="translate(0 -36.79)"/>
    <path id="prefix__Path_154" d="M124.621 1.068a2.754 2.754 0 00-3.9 0l-10.92 10.92a.612.612 0 00-.157.269l-1.436 5.184a.612.612 0 00.753.753l5.184-1.436a.612.612 0 00.269-.157l10.92-10.92a2.757 2.757 0 000-3.9zm-13.482 11.317l8.937-8.938 2.882 2.882-8.938 8.938zm-.576 1.155l2.3 2.3-3.185.883zm13.91-8.725l-.649.649-2.883-2.883.649-.649a1.53 1.53 0 012.164 0l.718.718a1.532 1.532 0 01.002 2.166zm0 0" class="prefix__cls-1" data-name="Path 154" transform="translate(-101.568 -.261)"/>
</svg>
