<svg xmlns="http://www.w3.org/2000/svg" id="prefix__bin" width="16.778" height="22" viewBox="0 0 16.778 22">
    <defs>
        <style>
            .prefix__cls-1{fill:#de0000}
        </style>
    </defs>
    <path id="prefix__Path_1719" d="M74.064 2A1.127 1.127 0 0175.232.865h4.8A1.127 1.127 0 0181.2 2v1.243h.865V2a1.992 1.992 0 00-2.032-2h-4.8A1.993 1.993 0 0073.2 2v1.243h.865zm0 0" class="prefix__cls-1" data-name="Path 1719" transform="translate(-69.242)"/>
    <path id="prefix__Path_1720" d="M29.95 139.3h10.227a1.842 1.842 0 001.751-1.946V124H28.2v13.351a1.842 1.842 0 001.75 1.949zm7.87-13.232a.432.432 0 11.865 0v10.216a.432.432 0 11-.865 0zm-3.189 0a.432.432 0 11.865 0v10.216a.432.432 0 11-.865 0zm-3.189 0a.432.432 0 11.865 0v10.216a.432.432 0 11-.865 0zm0 0" class="prefix__cls-1" data-name="Path 1720" transform="translate(-26.675 -117.297)"/>
    <path id="prefix__Path_1721" d="M1.081 70.162H15.7a1.081 1.081 0 000-2.162H1.081a1.081 1.081 0 000 2.162zm0 0" class="prefix__cls-1" data-name="Path 1721" transform="translate(0 -64.324)"/>
</svg>
