<svg xmlns="http://www.w3.org/2000/svg" id="water-heater" width="61.917" height="68.551" viewBox="0 0 61.917 68.551">
    <defs>
        <style>
            .cls-1{fill:#9b9b9b}
        </style>
    </defs>
    <g id="Group_163" data-name="Group 163" transform="translate(48.863 4.252)">
        <g id="Group_162" data-name="Group 162">
            <path id="Rectangle_403" d="M0 0h2v3H0z" class="cls-1" data-name="Rectangle 403" transform="translate(-.446 -.252)"/>
        </g>
    </g>
    <g id="Group_165" data-name="Group 165" transform="translate(43.504 5.904)">
        <g id="Group_164" data-name="Group 164">
            <path id="Rectangle_404" d="M0 0h2.211v2.211H0z" class="cls-1" data-name="Rectangle 404" transform="rotate(-45.02 1.887 .782)"/>
        </g>
    </g>
    <g id="Group_167" data-name="Group 167" transform="translate(42.181 10.935)">
        <g id="Group_166" data-name="Group 166">
            <path id="Rectangle_405" d="M0 0h2v2H0z" class="cls-1" data-name="Rectangle 405" transform="translate(.236 .065)"/>
        </g>
    </g>
    <g id="Group_169" data-name="Group 169" transform="translate(43.505 15.286)">
        <g id="Group_168" data-name="Group 168">
            <path id="Rectangle_406" d="M0 0h2.211v2.211H0z" class="cls-1" data-name="Rectangle 406" transform="rotate(-44.98 1.888 .781)"/>
        </g>
    </g>
    <g id="Group_171" data-name="Group 171" transform="translate(48.863 17.617)">
        <g id="Group_170" data-name="Group 170">
            <path id="Rectangle_407" d="M0 0h2v2H0z" class="cls-1" data-name="Rectangle 407" transform="translate(-.446 .383)"/>
        </g>
    </g>
    <g id="Group_173" data-name="Group 173" transform="translate(52.885 15.284)">
        <g id="Group_172" data-name="Group 172">
            <path id="Rectangle_408" d="M0 0h2.211v2.211H0z" class="cls-1" data-name="Rectangle 408" transform="rotate(-45.02 1.887 .782)"/>
        </g>
    </g>
    <g id="Group_175" data-name="Group 175" transform="translate(54.938 10.935)">
        <g id="Group_174" data-name="Group 174">
            <path id="Rectangle_409" d="M0 0h2v2H0z" class="cls-1" data-name="Rectangle 409" transform="translate(.479 .065)"/>
        </g>
    </g>
    <g id="Group_177" data-name="Group 177" transform="translate(52.888 5.905)">
        <g id="Group_176" data-name="Group 176">
            <path id="Rectangle_410" d="M0 0h2.211v2.211H0z" class="cls-1" data-name="Rectangle 410" transform="rotate(-44.98 1.888 .781)"/>
        </g>
    </g>
    <g id="Group_179" data-name="Group 179" transform="translate(48.863 9.112)">
        <g id="Group_178" data-name="Group 178">
            <path id="Rectangle_411" d="M0 0h2v2H0z" class="cls-1" data-name="Rectangle 411" transform="translate(-.446 -.112)"/>
        </g>
    </g>
    <g id="Group_181" data-name="Group 181" transform="translate(46.433 10.935)">
        <g id="Group_180" data-name="Group 180">
            <path id="Rectangle_412" d="M0 0h2v2H0z" class="cls-1" data-name="Rectangle 412" transform="translate(-.017 .065)"/>
        </g>
    </g>
    <g id="Group_183" data-name="Group 183" transform="translate(48.863 13.365)">
        <g id="Group_182" data-name="Group 182">
            <path id="Rectangle_413" d="M0 0h2v2H0z" class="cls-1" data-name="Rectangle 413" transform="translate(-.446 -.365)"/>
        </g>
    </g>
    <g id="Group_185" data-name="Group 185" transform="translate(50.686 10.935)">
        <g id="Group_184" data-name="Group 184">
            <path id="Rectangle_414" d="M0 0h3v2H0z" class="cls-1" data-name="Rectangle 414" transform="translate(-.269 .065)"/>
        </g>
    </g>
    <g id="Group_187" data-name="Group 187">
        <g id="Group_186" data-name="Group 186">
            <path id="Path_201" d="M78.177 23.48a12.162 12.162 0 1 0-8.845 0v6.373h-4.423v11.056h4.423v2.211h1.106v1.106a3.312 3.312 0 0 0 2.211 3.114v8.5a10.5 10.5 0 0 1-20.864 1.658h.962a3.321 3.321 0 0 0 3.317-3.317v-3.79a5.531 5.531 0 0 0 3.317-5.059V5.528A5.535 5.535 0 0 0 53.853 0H29.528A5.535 5.535 0 0 0 24 5.528v39.8a5.535 5.535 0 0 0 5.528 5.528h2.212V54.6a4.391 4.391 0 0 0-.949 1.789h-2.368V58.6h2.368a4.415 4.415 0 0 0 3.16 3.16v2.368h2.211V61.76a4.415 4.415 0 0 0 3.16-3.16h2.368v-2.212h-2.368a4.391 4.391 0 0 0-.949-1.789V50.86h6.634v3.317a3.321 3.321 0 0 0 3.317 3.317h1.226a12.709 12.709 0 0 0 25.31-1.658v-8.5a3.312 3.312 0 0 0 2.211-3.114v-1.101h1.106v-2.212H82.6V29.853h-4.423zM69.332 38.7h-2.211v-6.636h2.211zM35.057 59.705a2.211 2.211 0 1 1 2.211-2.211 2.214 2.214 0 0 1-2.211 2.211zm-1.106-6.477V50.86h2.211v2.368a3.972 3.972 0 0 0-2.211 0zm15.479 2.055h-1.106a1.106 1.106 0 0 1-1.106-1.106V50.86h2.212zm-17.69-6.634V35.381h-2.212v13.268a3.321 3.321 0 0 1-3.317-3.317V23.219h2.211a1.107 1.107 0 0 1 1.106 1.106v8.845h2.212v-8.846a3.321 3.321 0 0 0-3.317-3.317h-2.212V18.8h5.529v-2.215h-5.529V5.528a3.321 3.321 0 0 1 3.317-3.317h24.325a3.321 3.321 0 0 1 3.317 3.317v11.057h-5.529V18.8h5.529v2.211h-2.212a3.321 3.321 0 0 0-3.317 3.317v8.842h2.211v-8.846a1.107 1.107 0 0 1 1.106-1.106h2.212v22.114a3.321 3.321 0 0 1-3.317 3.317V35.381h-2.212v13.268zm19.9 2.211h2.211v3.317a1.106 1.106 0 0 1-1.106 1.106h-1.104zm23.22-6.634a1.106 1.106 0 1 1-2.211 0v-1.105h2.211zm1.106-3.317h-4.423v-4.422h4.423zm0-6.634h-4.423V24.113a11.683 11.683 0 0 0 4.423 0zm-2.211-12.162a9.951 9.951 0 1 1 9.951-9.951 9.962 9.962 0 0 1-9.951 9.951zm6.634 9.951V38.7h-2.212v-6.636z" class="cls-1" data-name="Path 201" transform="translate(-24)"/>
        </g>
    </g>
    <g id="Group_189" data-name="Group 189" transform="translate(11.057 30.958)">
        <g id="Group_188" data-name="Group 188">
            <path id="Path_202" d="M111.74 226.311V224h-2.211v2.311a6.634 6.634 0 1 0 2.211 0zm-1.106 10.957a4.413 4.413 0 0 1-1.106-8.688v2.054h2.211v-2.054a4.413 4.413 0 0 1-1.106 8.688z" class="cls-1" data-name="Path 202" transform="translate(-104 -224)"/>
        </g>
    </g>
    <g id="Group_191" data-name="Group 191" transform="translate(12.162 4.423)">
        <g id="Group_190" data-name="Group 190">
            <path id="Path_203" d="M119.74 32h-4.423A3.321 3.321 0 0 0 112 35.317v21.007h11.057V35.317A3.321 3.321 0 0 0 119.74 32zm1.106 22.113h-6.634V43.057h6.634zm0-13.268h-6.634v-2.211h6.634zm0-4.423h-6.634v-1.105a1.107 1.107 0 0 1 1.106-1.106h4.423a1.107 1.107 0 0 1 1.106 1.106z" class="cls-1" data-name="Path 203" transform="translate(-112 -32)"/>
        </g>
    </g>
    <g id="Group_193" data-name="Group 193" transform="translate(16.667 17.617)">
        <g id="Group_192" data-name="Group 192">
            <path id="Rectangle_415" d="M0 0h2v2H0z" class="cls-1" data-name="Rectangle 415" transform="translate(-.25 .383)"/>
        </g>
    </g>
    <g id="Group_195" data-name="Group 195" transform="translate(16.667 22.477)">
        <g id="Group_194" data-name="Group 194">
            <path id="Rectangle_416" d="M0 0h2v2H0z" class="cls-1" data-name="Rectangle 416" transform="translate(-.25 -.477)"/>
        </g>
    </g>
</svg>
