<svg xmlns="http://www.w3.org/2000/svg" id="search_1_" width="23.542" height="23.542" data-name="search (1)" viewBox="0 0 23.542 23.542">
    <defs>
        <style>
            .cls-1{fill:#fbbb00}.cls-2{fill:#518ef8}.cls-3{fill:#28b446}.cls-4{fill:#f14336}
        </style>
    </defs>
    <path id="Path_5" d="M5.217 146.137L4.4 149.2l-3 .063a11.792 11.792 0 0 1-.087-10.992l2.666.489 1.168 2.651a7.025 7.025 0 0 0 .066 4.73z" class="cls-1" data-name="Path 5" transform="translate(0 -131.91)"/>
    <path id="Path_6" d="M272.935 208.176a11.767 11.767 0 0 1-4.2 11.378l-3.359-.171-.475-2.967a7.015 7.015 0 0 0 3.018-3.582h-6.294v-4.657h11.307z" class="cls-2" data-name="Path 6" transform="translate(-249.598 -198.604)"/>
    <path id="Path_7" d="M48.246 316.132a11.775 11.775 0 0 1-17.737-3.6l3.815-3.123a7 7 0 0 0 10.088 3.584z" class="cls-3" data-name="Path 7" transform="translate(-29.106 -295.182)"/>
    <path id="Path_8" d="M46.592 2.71l-3.813 3.122A7 7 0 0 0 32.459 9.5l-3.834-3.142A11.773 11.773 0 0 1 46.592 2.71z" class="cls-4" data-name="Path 8" transform="translate(-27.308)"/>
</svg>
