<?xml version="1.0" encoding="UTF-8"?>
<svg xmlns="http://www.w3.org/2000/svg" xmlns:xlink="http://www.w3.org/1999/xlink" width="20pt" height="17pt" viewBox="0 0 20 17" version="1.1">
<g id="surface1">
<path style=" stroke:none;fill-rule:nonzero;fill:rgb(0%,0%,0%);fill-opacity:1;" d="M 9.996094 13.335938 C 7.113281 13.335938 4.40625 12.382812 2.367188 10.652344 L 0.109375 8.730469 C 0.046875 8.675781 0 8.585938 0 8.507812 C 0 8.433594 0.046875 8.339844 0.109375 8.285156 L 2.367188 6.367188 C 6.574219 2.789062 13.417969 2.789062 17.625 6.367188 L 19.882812 8.285156 C 19.945312 8.339844 19.992188 8.433594 19.992188 8.507812 C 19.992188 8.59375 19.953125 8.671875 19.882812 8.730469 L 17.625 10.652344 C 15.585938 12.382812 12.878906 13.335938 9.996094 13.335938 Z M 0.789062 8.507812 L 2.839844 10.25 C 4.75 11.875 7.292969 12.769531 9.996094 12.769531 C 12.699219 12.769531 15.242188 11.875 17.152344 10.25 L 19.203125 8.507812 L 17.152344 6.765625 C 13.207031 3.414062 6.785156 3.414062 2.839844 6.765625 Z M 0.789062 8.507812 "/>
<path style=" stroke:none;fill-rule:nonzero;fill:rgb(0%,0%,0%);fill-opacity:1;" d="M 3.988281 8.792969 C 3.804688 8.792969 3.65625 8.664062 3.65625 8.507812 C 3.65625 6.90625 4.488281 5.394531 5.941406 4.367188 C 6.082031 4.265625 6.292969 4.28125 6.410156 4.402344 C 6.53125 4.523438 6.511719 4.703125 6.367188 4.800781 C 5.070312 5.722656 4.324219 7.074219 4.324219 8.507812 C 4.324219 8.664062 4.171875 8.792969 3.988281 8.792969 Z M 3.988281 8.792969 "/>
<path style=" stroke:none;fill-rule:nonzero;fill:rgb(0%,0%,0%);fill-opacity:1;" d="M 13.835938 12.71875 C 13.742188 12.71875 13.648438 12.683594 13.582031 12.613281 C 13.460938 12.496094 13.480469 12.316406 13.625 12.214844 C 14.921875 11.292969 15.667969 9.945312 15.667969 8.507812 C 15.667969 8.351562 15.820312 8.226562 16.003906 8.226562 C 16.1875 8.226562 16.335938 8.351562 16.335938 8.507812 C 16.335938 10.113281 15.503906 11.621094 14.050781 12.652344 C 13.988281 12.695312 13.914062 12.71875 13.835938 12.71875 Z M 13.835938 12.71875 "/>
<path style=" stroke:none;fill-rule:nonzero;fill:rgb(0%,0%,0%);fill-opacity:1;" d="M 9.996094 11.636719 C 8.460938 11.636719 7.070312 10.808594 6.542969 9.578125 C 6.484375 9.441406 6.558594 9.285156 6.714844 9.222656 L 8.550781 8.503906 L 6.71875 7.78125 C 6.5625 7.722656 6.488281 7.566406 6.546875 7.425781 C 7.078125 6.203125 8.464844 5.382812 9.996094 5.382812 C 12.023438 5.382812 13.675781 6.785156 13.675781 8.507812 C 13.675781 10.234375 12.023438 11.636719 9.996094 11.636719 Z M 7.289062 9.625 C 7.789062 10.496094 8.839844 11.066406 9.996094 11.066406 C 11.65625 11.066406 13.007812 9.921875 13.007812 8.507812 C 13.007812 7.097656 11.65625 5.949219 9.996094 5.949219 C 8.847656 5.949219 7.796875 6.515625 7.296875 7.382812 L 9.484375 8.246094 C 9.601562 8.289062 9.679688 8.390625 9.679688 8.5 C 9.679688 8.613281 9.601562 8.710938 9.484375 8.757812 Z M 7.289062 9.625 "/>
</g>
</svg>
