<svg xmlns="http://www.w3.org/2000/svg" id="bedroom" width="21.581" height="15.738" viewBox="0 0 21.581 15.738">
    <defs>
        <style>
            .cls-1{fill:#b2b2b2}
        </style>
    </defs>
    <path id="Path_129" d="M21.16 146.375h-2.221v-.567h.689a.421.421 0 0 0 .422-.422v-2.756a.92.92 0 0 0-.919-.919h-1.78v-1.135h.936a.527.527 0 0 0 .483-.738 6.072 6.072 0 0 1-.437-1.87.766.766 0 0 0-.761-.7h-1.285a.766.766 0 0 0-.761.7 6.073 6.073 0 0 1-.437 1.87.527.527 0 0 0 .483.738h.937v1.135h-1.78a.92.92 0 0 0-.919.919v2.757a.422.422 0 0 0 .422.422h.689v.567h-2.252v-.907h.142a.422.422 0 0 0 .422-.422v-1.976a1.021 1.021 0 0 0-.861-1.007v-2.787a1.331 1.331 0 0 0-1.33-1.33H2.925a1.331 1.331 0 0 0-1.33 1.33v2.787a1.021 1.021 0 0 0-.861 1.007v1.976a.421.421 0 0 0 .422.422H1.3v.907H.422a.422.422 0 0 0 0 .843H21.16a.422.422 0 0 0 0-.843zm-4.8-8.266h1.14a7.3 7.3 0 0 0 .329 1.625h-1.8a7.306 7.306 0 0 0 .331-1.625zm-1.633 4.446h4.4a.076.076 0 0 1 .076.076v.708h-4.551v-.708a.076.076 0 0 1 .076-.076zm-.076 1.627h4.555v.784h-4.554zm1.111 1.627H18.1v.567h-2.337zm-13.323-6.533a.487.487 0 0 1 .487-.487h8.117a.487.487 0 0 1 .487.487v2.775h-.591v-.951a.579.579 0 0 0-.337-.525l-.073-.033a2.962 2.962 0 0 0-2.469 0l-.073.033a.579.579 0 0 0-.337.525v.953H6.455v-.953a.579.579 0 0 0-.337-.525l-.073-.033a2.963 2.963 0 0 0-2.469 0l-.073.033a.579.579 0 0 0-.337.525v.953h-.727zm7.656 2.775h-1.6v-.78a2.122 2.122 0 0 1 1.6 0zm-4.483 0h-1.6v-.78a2.12 2.12 0 0 1 1.6 0zm-3.471 4.324v-.907h5.067a.422.422 0 1 0 0-.843H1.577v-1.555a.176.176 0 0 1 .176-.176h10.46a.176.176 0 0 1 .176.176v1.555H10.58a.422.422 0 1 0 0 .843h1.246v.907zm0 0" class="cls-1" data-name="Path 129" transform="translate(0 -131.48)"/>
    <path id="Path_130" d="M178.448 4.881a.9.9 0 0 0 .374.365h.009a.9.9 0 0 0 .374.1h5.137a.9.9 0 0 0 .9-.9V.9a.9.9 0 0 0-.9-.9h-5.1a.9.9 0 0 0-.9.9v3.545a.9.9 0 0 0 .107.426l.006.011zm5.956-.436a.06.06 0 0 1-.031.053.058.058 0 0 1-.029.007h-4.924c.4-.642 1.033-1.549 1.661-1.595a2.478 2.478 0 0 1 1.38.542 3.525 3.525 0 0 0 1.943.713zm-.06-3.6a.06.06 0 0 1 .06.06v.517a.867.867 0 0 1-1.071-.577zm-5.105 0h3.232a1.712 1.712 0 0 0 1.691 1.455 1.7 1.7 0 0 0 .243-.017v1.04a2.752 2.752 0 0 1-1.5-.585 3.149 3.149 0 0 0-1.886-.667 2.774 2.774 0 0 0-1.84 1.288V.9a.06.06 0 0 1 .06-.06zm0 0" class="cls-1" data-name="Path 130" transform="translate(-170.819)"/>
    <path id="Path_131" d="M201.422 311.871a.422.422 0 0 0 0 .843.422.422 0 1 0 0-.843zm0 0" class="cls-1" data-name="Path 131" transform="translate(-192.528 -298.725)"/>
</svg>
