<svg xmlns="http://www.w3.org/2000/svg" id="settings_1_" width="27.556" height="27.556" data-name="settings (1)" viewBox="0 0 27.556 27.556">
    <defs>
        <style>
            .cls-1{fill:#c4c4c4}
        </style>
    </defs>
    <g id="Group_108" data-name="Group 108">
        <path id="Path_125" d="M26.146 10.886l-1.934-.328a10.921 10.921 0 0 0-.777-1.877l1.14-1.595a1.7 1.7 0 0 0-.184-2.193l-1.716-1.714a1.69 1.69 0 0 0-1.2-.5 1.673 1.673 0 0 0-.984.317l-1.6 1.14a10.808 10.808 0 0 0-1.946-.8l-.322-1.911A1.7 1.7 0 0 0 14.938 0h-2.423a1.7 1.7 0 0 0-1.681 1.422L10.5 3.38a10.652 10.652 0 0 0-1.871.789l-1.583-1.14a1.7 1.7 0 0 0-2.193.184L3.132 4.929a1.7 1.7 0 0 0-.184 2.193L4.1 8.739a10.668 10.668 0 0 0-.766 1.882l-1.911.322A1.7 1.7 0 0 0 0 12.625v2.423a1.7 1.7 0 0 0 1.422 1.681l1.957.334a10.652 10.652 0 0 0 .789 1.871l-1.134 1.577a1.7 1.7 0 0 0 .184 2.189l1.715 1.72a1.69 1.69 0 0 0 1.2.5 1.673 1.673 0 0 0 .984-.317l1.618-1.151a10.89 10.89 0 0 0 1.819.748l.322 1.934a1.7 1.7 0 0 0 1.681 1.422h2.433a1.7 1.7 0 0 0 1.681-1.422L17 24.2a10.921 10.921 0 0 0 1.877-.777l1.595 1.14a1.69 1.69 0 0 0 .99.317 1.69 1.69 0 0 0 1.2-.5l1.715-1.715a1.7 1.7 0 0 0 .184-2.193l-1.14-1.6a10.843 10.843 0 0 0 .777-1.877l1.934-.322a1.7 1.7 0 0 0 1.422-1.681v-2.425a1.68 1.68 0 0 0-1.408-1.681zm-.132 4.1a.149.149 0 0 1-.127.15l-2.418.4a.773.773 0 0 0-.622.57 9.215 9.215 0 0 1-1 2.412.778.778 0 0 0 .035.846l1.422 2a.157.157 0 0 1-.017.2l-1.715 1.715a.146.146 0 0 1-.109.046.141.141 0 0 1-.086-.029l-2-1.422a.778.778 0 0 0-.846-.035 9.215 9.215 0 0 1-2.412 1 .764.764 0 0 0-.57.622l-.409 2.418a.149.149 0 0 1-.15.127h-2.424a.149.149 0 0 1-.15-.127l-.4-2.418a.773.773 0 0 0-.57-.622 9.569 9.569 0 0 1-2.36-.967.8.8 0 0 0-.391-.1.758.758 0 0 0-.449.144l-2.018 1.439a.171.171 0 0 1-.086.029.154.154 0 0 1-.109-.046l-1.716-1.716a.156.156 0 0 1-.017-.2l1.416-1.986a.788.788 0 0 0 .035-.852 9.128 9.128 0 0 1-1.013-2.406.788.788 0 0 0-.622-.57L1.681 15.2a.149.149 0 0 1-.127-.15v-2.425a.149.149 0 0 1 .127-.15l2.4-.4a.778.778 0 0 0 .627-.576 9.206 9.206 0 0 1 .984-2.418.769.769 0 0 0-.04-.84L4.219 6.224a.157.157 0 0 1 .017-.2l1.716-1.711a.146.146 0 0 1 .109-.046.141.141 0 0 1 .086.029l1.987 1.415a.788.788 0 0 0 .852.035 9.128 9.128 0 0 1 2.406-1.013.788.788 0 0 0 .57-.622l.414-2.435a.149.149 0 0 1 .15-.127h2.424a.149.149 0 0 1 .15.127l.4 2.4a.778.778 0 0 0 .576.627 9.343 9.343 0 0 1 2.47 1.013.778.778 0 0 0 .846-.035l1.986-1.428a.171.171 0 0 1 .086-.029.154.154 0 0 1 .109.046l1.715 1.715a.156.156 0 0 1 .017.2l-1.422 2a.778.778 0 0 0-.035.846 9.215 9.215 0 0 1 1 2.412.764.764 0 0 0 .622.57l2.418.409a.149.149 0 0 1 .127.15v2.423z" class="cls-1" data-name="Path 125" transform="translate(0 -.001)"/>
        <path id="Path_126" d="M142.046 136a5.946 5.946 0 1 0 5.946 5.946 5.95 5.95 0 0 0-5.946-5.946zm0 10.339a4.392 4.392 0 1 1 4.392-4.392 4.4 4.4 0 0 1-4.392 4.393z" class="cls-1" data-name="Path 126" transform="translate(-128.265 -128.172)"/>
    </g>
</svg>
