<svg height="511pt" viewBox="0 -110 511.99155 511" width="511pt" xmlns="http://www.w3.org/2000/svg"><path d="m256.003906 291.351562c-73.796875 0-143.175781-28.730468-195.351562-80.917968l-57.867188-57.863282c-1.605468-1.617187-2.7773435-4.429687-2.785156-6.683593-.0078125-2.273438 1.171875-5.128907 2.777344-6.734375l57.867187-57.867188c107.71875-107.71875 282.984375-107.71875 390.703125 0l57.867188 57.867188c1.605468 1.605468 2.785156 4.460937 2.777344 6.734375-.007813 2.535156-1.007813 4.921875-2.8125 6.707031l-57.832032 57.839844c-52.175781 52.1875-121.554687 80.917968-195.34375 80.917968zm-235.757812-145.492187 52.492187 52.492187c48.953125 48.953126 114.042969 75.90625 183.265625 75.90625 69.226563 0 134.3125-26.953124 183.265625-75.90625l52.492188-52.492187-52.492188-52.492187c-101.050781-101.050782-265.480469-101.050782-366.53125 0zm0 0"/><path d="m102.171875 154.40625c-4.71875 0-8.546875-3.828125-8.546875-8.546875 0-48.328125 21.339844-93.820313 58.550781-124.808594 3.625-3.027343 9.007813-2.53125 12.03125 1.09375 3.019531 3.632813 2.53125 9.015625-1.101562 12.039063-33.296875 27.734375-52.398438 68.433594-52.398438 111.675781.011719 4.71875-3.820312 8.546875-8.535156 8.546875zm0 0"/><path d="m354.363281 272.652344c-2.453125 0-4.878906-1.050782-6.570312-3.078125-3.019531-3.628907-2.53125-9.015625 1.101562-12.039063 33.296875-27.734375 52.398438-68.429687 52.398438-111.675781 0-4.71875 3.828125-8.546875 8.542969-8.546875 4.71875 0 8.546874 3.828125 8.546874 8.546875 0 48.339844-21.339843 93.832031-58.550781 124.808594-1.597656 1.335937-3.546875 1.984375-5.46875 1.984375zm0 0"/><path d="m256.003906 240.074219c-39.371094 0-74.917968-24.902344-88.445312-61.96875-1.519532-4.171875.402344-8.820313 4.4375-10.683594l46.960937-21.757813-46.84375-21.664062c-4.042969-1.875-5.972656-6.539062-4.433593-10.71875 13.605468-36.859375 49.097656-61.636719 88.316406-61.636719 51.953125 0 94.214844 42.261719 94.214844 94.214844.007812 51.953125-42.261719 94.214844-94.207032 94.214844zm-69.328125-60.617188c12.777344 26.320313 39.734375 43.523438 69.328125 43.523438 42.527344 0 77.121094-34.59375 77.121094-77.121094s-34.59375-77.121094-77.121094-77.121094c-29.457031 0-56.355468 17.082031-69.183594 43.226563l56.066407 25.929687c3.023437 1.402344 4.957031 4.425781 4.957031 7.75s-1.933594 6.359375-4.957031 7.761719zm0 0"/></svg>