<svg xmlns="http://www.w3.org/2000/svg" width="365.762" height="333.357" viewBox="0 0 365.762 333.357">
    <defs>
        <style>
            .cls-1{fill:#cecece}.cls-2,.cls-5{fill:#0099a7}.cls-3{opacity:.2}.cls-4{fill:#fff}.cls-5,.cls-6{opacity:.3}.cls-7{fill:#ff6b47}.cls-8{opacity:.1}.cls-9{fill:#32324c}.cls-10{fill:#912a3e}.cls-11{fill:#00717b}.cls-12{fill:#efa627}.cls-13{fill:#ffee57}
        </style>
    </defs>
    <g id="Group_101" data-name="Group 101" transform="translate(-71.217 -90.628)">
        <ellipse id="Ellipse_4" cx="146.982" cy="8.149" class="cls-1" data-name="Ellipse 4" rx="146.982" ry="8.149" transform="translate(103.98 402.612)"/>
        <g id="Group_32" data-name="Group 32" transform="translate(149.183 90.628)">
            <g id="Group_8" data-name="Group 8" transform="translate(0 17.3)">
                <rect id="Rectangle_366" width="214.079" height="302.464" class="cls-2" data-name="Rectangle 366" rx="4.345"/>
            </g>
            <g id="Group_30" data-name="Group 30" transform="translate(15.299 32.242)">
                <g id="Group_9" data-name="Group 9">
                    <path id="Path_43" d="M176.972 408.669l183.481 9.725v-9.725z" class="cls-3" data-name="Path 43" transform="translate(-176.972 -143.273)"/>
                    <path id="Rectangle_367" d="M0 0h183.481v265.395H0z" class="cls-4" data-name="Rectangle 367"/>
                </g>
                <rect id="Rectangle_368" width="108.06" height="8.977" class="cls-5" data-name="Rectangle 368" rx="4.36" transform="translate(34.75 25.254)"/>
                <g id="Group_15" data-name="Group 15" transform="translate(25.011 42.419)">
                    <g id="Group_10" class="cls-6" data-name="Group 10" transform="translate(0 11.01)">
                        <path id="Path_44" d="M297.5 187.247h-91.266a2.538 2.538 0 0 1-2.537-2.538 2.537 2.537 0 0 1 2.537-2.537H297.5a2.537 2.537 0 0 1 2.537 2.537 2.538 2.538 0 0 1-2.537 2.538z" class="cls-2" data-name="Path 44" transform="translate(-203.697 -182.172)"/>
                    </g>
                    <g id="Group_11" class="cls-6" data-name="Group 11" transform="translate(0 19.854)">
                        <path id="Path_45" d="M297.5 196.7h-91.266a2.537 2.537 0 0 1-2.537-2.537 2.538 2.538 0 0 1 2.537-2.538H297.5a2.538 2.538 0 0 1 2.537 2.538 2.537 2.537 0 0 1-2.537 2.537z" class="cls-2" data-name="Path 45" transform="translate(-203.697 -191.622)"/>
                    </g>
                    <g id="Group_14" data-name="Group 14" transform="translate(109.227)">
                        <g id="Group_12" class="cls-6" data-name="Group 12">
                            <path id="Path_46" d="M349.094 202.577H323.9a3.492 3.492 0 0 1-3.489-3.488v-25.194a3.492 3.492 0 0 1 3.489-3.488h25.193a3.493 3.493 0 0 1 3.489 3.488v25.194a3.493 3.493 0 0 1-3.488 3.488zm-25.194-29.42a.738.738 0 0 0-.738.737v25.194a.738.738 0 0 0 .738.737h25.193a.738.738 0 0 0 .737-.737v-25.193a.738.738 0 0 0-.737-.737z" class="cls-2" data-name="Path 46" transform="translate(-320.412 -170.407)"/>
                        </g>
                        <g id="Group_13" data-name="Group 13" transform="translate(4.55 .422)">
                            <path id="Path_47" d="M333.738 195.155c-.073 0-.147 0-.222-.01a2.327 2.327 0 0 1-1.8-1.16 49.038 49.038 0 0 0-5.817-7.838 2.328 2.328 0 1 1 3.4-3.181 55.429 55.429 0 0 1 4.774 6.028c4.125-4.393 13.676-13.822 23.185-17.944a2.328 2.328 0 0 1 1.851 4.271c-11.378 4.933-23.489 18.885-23.61 19.026a2.327 2.327 0 0 1-1.761.808z" class="cls-7" data-name="Path 47" transform="translate(-325.273 -170.858)"/>
                        </g>
                    </g>
                </g>
                <g id="Group_19" data-name="Group 19" transform="translate(25.011 95.625)">
                    <path id="Path_48" d="M297.5 244.1h-91.266a2.538 2.538 0 0 1-2.537-2.538 2.537 2.537 0 0 1 2.537-2.537H297.5a2.537 2.537 0 0 1 2.537 2.537 2.538 2.538 0 0 1-2.537 2.538z" class="cls-5" data-name="Path 48" transform="translate(-203.697 -228.016)"/>
                    <path id="Path_49" d="M297.5 253.551h-91.266a2.537 2.537 0 0 1-2.537-2.537 2.538 2.538 0 0 1 2.537-2.538H297.5a2.538 2.538 0 0 1 2.537 2.538 2.537 2.537 0 0 1-2.537 2.537z" class="cls-5" data-name="Path 49" transform="translate(-203.697 -228.622)"/>
                    <g id="Group_18" data-name="Group 18" transform="translate(109.227)">
                        <g id="Group_16" class="cls-6" data-name="Group 16">
                            <path id="Path_50" d="M349.094 259.431H323.9a3.492 3.492 0 0 1-3.489-3.488v-25.194a3.492 3.492 0 0 1 3.489-3.488h25.193a3.493 3.493 0 0 1 3.489 3.488v25.194a3.493 3.493 0 0 1-3.488 3.488zm-25.194-29.42a.738.738 0 0 0-.738.737v25.194a.738.738 0 0 0 .738.737h25.193a.738.738 0 0 0 .737-.737v-25.193a.738.738 0 0 0-.737-.737z" class="cls-2" data-name="Path 50" transform="translate(-320.412 -227.261)"/>
                        </g>
                        <g id="Group_17" data-name="Group 17" transform="translate(4.55 .211)">
                            <path id="Path_51" d="M333.738 251.783c-.073 0-.147 0-.222-.01a2.326 2.326 0 0 1-1.8-1.159 49.068 49.068 0 0 0-5.817-7.839 2.327 2.327 0 1 1 3.4-3.18 55.313 55.313 0 0 1 4.774 6.028c4.125-4.394 13.676-13.822 23.185-17.945a2.328 2.328 0 0 1 1.851 4.272c-11.378 4.932-23.489 18.884-23.61 19.025a2.327 2.327 0 0 1-1.761.808z" class="cls-7" data-name="Path 51" transform="translate(-325.273 -227.486)"/>
                        </g>
                    </g>
                </g>
                <g id="Group_23" data-name="Group 23" transform="translate(25.011 148.832)">
                    <path id="Path_52" d="M297.5 300.955h-91.266a2.538 2.538 0 0 1-2.537-2.538 2.537 2.537 0 0 1 2.537-2.537H297.5a2.537 2.537 0 0 1 2.537 2.537 2.538 2.538 0 0 1-2.537 2.538z" class="cls-5" data-name="Path 52" transform="translate(-203.697 -284.87)"/>
                    <path id="Path_53" d="M297.5 310.405h-91.266a2.537 2.537 0 0 1-2.537-2.537 2.538 2.538 0 0 1 2.537-2.538H297.5a2.538 2.538 0 0 1 2.537 2.538 2.537 2.537 0 0 1-2.537 2.537z" class="cls-5" data-name="Path 53" transform="translate(-203.697 -285.476)"/>
                    <g id="Group_22" data-name="Group 22" transform="translate(109.227)">
                        <g id="Group_20" class="cls-6" data-name="Group 20">
                            <path id="Path_54" d="M349.094 316.285H323.9a3.492 3.492 0 0 1-3.489-3.488V287.6a3.492 3.492 0 0 1 3.489-3.488h25.193a3.493 3.493 0 0 1 3.489 3.488v25.2a3.493 3.493 0 0 1-3.488 3.485zm-25.194-29.42a.738.738 0 0 0-.738.737V312.8a.738.738 0 0 0 .738.737h25.193a.738.738 0 0 0 .737-.737v-25.2a.738.738 0 0 0-.737-.737z" class="cls-2" data-name="Path 54" transform="translate(-320.412 -284.115)"/>
                        </g>
                        <g id="Group_21" data-name="Group 21" transform="translate(4.55 1.399)">
                            <path id="Path_55" d="M333.738 309.907q-.11 0-.222-.011a2.324 2.324 0 0 1-1.8-1.159 48.983 48.983 0 0 0-5.816-7.837 2.328 2.328 0 1 1 3.4-3.181 55.425 55.425 0 0 1 4.774 6.028c4.125-4.393 13.676-13.822 23.185-17.944a2.328 2.328 0 1 1 1.851 4.271c-11.378 4.932-23.489 18.884-23.61 19.025a2.328 2.328 0 0 1-1.762.808z" class="cls-7" data-name="Path 55" transform="translate(-325.273 -285.61)"/>
                        </g>
                    </g>
                </g>
                <g id="Group_29" data-name="Group 29" transform="translate(25.011 202.039)">
                    <g id="Group_24" class="cls-6" data-name="Group 24" transform="translate(0 11.01)">
                        <path id="Path_56" d="M297.5 357.809h-91.266a2.538 2.538 0 0 1-2.537-2.538 2.537 2.537 0 0 1 2.537-2.537H297.5a2.537 2.537 0 0 1 2.537 2.537 2.538 2.538 0 0 1-2.537 2.538z" class="cls-2" data-name="Path 56" transform="translate(-203.697 -352.734)"/>
                    </g>
                    <g id="Group_25" class="cls-6" data-name="Group 25" transform="translate(0 19.854)">
                        <path id="Path_57" d="M297.5 367.259h-91.266a2.537 2.537 0 0 1-2.537-2.537 2.538 2.538 0 0 1 2.537-2.538H297.5a2.538 2.538 0 0 1 2.537 2.538 2.537 2.537 0 0 1-2.537 2.537z" class="cls-2" data-name="Path 57" transform="translate(-203.697 -362.184)"/>
                    </g>
                    <g id="Group_28" data-name="Group 28" transform="translate(109.227)">
                        <g id="Group_26" class="cls-6" data-name="Group 26">
                            <path id="Path_58" d="M349.094 373.139H323.9a3.492 3.492 0 0 1-3.489-3.488v-25.194a3.492 3.492 0 0 1 3.489-3.488h25.193a3.493 3.493 0 0 1 3.489 3.488v25.194a3.493 3.493 0 0 1-3.488 3.488zm-25.194-29.42a.738.738 0 0 0-.738.737v25.194a.738.738 0 0 0 .738.737h25.193a.738.738 0 0 0 .737-.737v-25.193a.738.738 0 0 0-.737-.737z" class="cls-2" data-name="Path 58" transform="translate(-320.412 -340.969)"/>
                        </g>
                        <g id="Group_27" data-name="Group 27" transform="translate(4.55 1.399)">
                            <path id="Path_59" d="M333.738 366.761q-.11 0-.222-.011a2.326 2.326 0 0 1-1.8-1.159 48.987 48.987 0 0 0-5.817-7.838 2.328 2.328 0 1 1 3.4-3.181 55.431 55.431 0 0 1 4.774 6.028c4.125-4.393 13.676-13.822 23.185-17.944a2.328 2.328 0 1 1 1.851 4.271c-11.378 4.932-23.489 18.884-23.61 19.025a2.328 2.328 0 0 1-1.761.809z" class="cls-7" data-name="Path 59" transform="translate(-325.273 -342.464)"/>
                        </g>
                    </g>
                </g>
            </g>
            <g id="Group_31" data-name="Group 31" transform="translate(59.874)">
                <path id="Path_60" d="M313.013 124.54v7.618a5.872 5.872 0 0 1-5.872 5.872h-76.667a5.871 5.871 0 0 1-5.872-5.872v-7.618z" class="cls-8" data-name="Path 60" transform="translate(-224.602 -92.804)"/>
                <rect id="Rectangle_369" width="79.734" height="24.757" class="cls-9" data-name="Rectangle 369" rx="4.562" transform="translate(4.338 14.917)"/>
                <path id="Path_61" d="M284.274 90.628h-27.9a8.11 8.11 0 0 0-8.108 8.111v12.2h44.118v-12.2a8.112 8.112 0 0 0-8.11-8.111zm-1.805 11.9a1.51 1.51 0 0 1-1.075.446h-22.138a1.52 1.52 0 1 1 0-3.041h22.138a1.519 1.519 0 0 1 1.075 2.594z" class="cls-9" data-name="Path 61" transform="translate(-226.12 -90.628)"/>
            </g>
        </g>
        <g id="Group_100" data-name="Group 100" transform="translate(360.217 265.058)">
            <ellipse id="Ellipse_5" cx="38.381" cy="6.277" class="cls-1" data-name="Ellipse 5" rx="38.381" ry="6.277" transform="translate(0 146.373)"/>
            <path id="Path_108" d="M438.429 438.659h-27.153a8.523 8.523 0 0 1-8.106-5.889l-11.516-35.444a2.356 2.356 0 0 1 2.061-3.074 398.639 398.639 0 0 1 62.281 0 2.355 2.355 0 0 1 2.057 3.074l-11.517 35.444a8.525 8.525 0 0 1-8.107 5.889z" class="cls-4" data-name="Path 108" transform="translate(-386.471 -284.458)"/>
            <path id="Path_109" d="M455.839 396.967c0 .943-13.7 1.707-30.6 1.707s-30.6-.764-30.6-1.707 13.7-1.707 30.6-1.707 30.6.765 30.6 1.707z" class="cls-10" data-name="Path 109" transform="translate(-386.67 -284.601)"/>
            <g id="Group_99" data-name="Group 99" transform="translate(6.856)">
                <g id="Group_86" data-name="Group 86" transform="translate(30.418 19.693)">
                    <path id="Path_110" d="M426.506 322.91s19.8.017 23.268-24.852c0 0-28.074.43-23.268 24.852z" class="cls-11" data-name="Path 110" transform="translate(-425.954 -298.058)"/>
                </g>
                <g id="Group_88" data-name="Group 88" transform="translate(7.589 64.321)">
                    <g id="Group_87" data-name="Group 87">
                        <path id="Path_111" d="M426.78 368.612s-.3-19.8-25.221-22.867c0 0 .878 28.055 25.221 22.867z" class="cls-11" data-name="Path 111" transform="translate(-401.559 -345.745)"/>
                    </g>
                </g>
                <g id="Group_89" data-name="Group 89" transform="translate(30.09 7.76)">
                    <path id="Path_112" d="M428.472 389.707V286.742a1.435 1.435 0 0 0-2.869 0v102.965a4.836 4.836 0 0 0 2.869 0z" class="cls-2" data-name="Path 112" transform="translate(-425.603 -285.307)"/>
                </g>
                <g id="Group_90" data-name="Group 90" transform="translate(31.525)">
                    <path id="Path_113" d="M427.136 296.626s2.72-19.611 27.83-19.611c0 0-4.305 27.741-27.83 19.611z" class="cls-2" data-name="Path 113" transform="translate(-427.136 -277.015)"/>
                </g>
                <g id="Group_91" data-name="Group 91" transform="translate(4.98 6.024)">
                    <path id="Path_114" d="M426.6 303.062s-2.72-19.61-27.83-19.61c.001 0 4.306 27.74 27.83 19.61z" class="cls-2" data-name="Path 114" transform="translate(-398.771 -283.452)"/>
                </g>
                <g id="Group_92" data-name="Group 92" transform="translate(2.019 28.352)">
                    <path id="Path_115" d="M426.682 322.011s-6.431-18.724-31.075-13.909c0-.002 9.546 26.398 31.075 13.909z" class="cls-2" data-name="Path 115" transform="translate(-395.607 -307.311)"/>
                </g>
                <g id="Group_93" data-name="Group 93" transform="translate(31.505 30.564)">
                    <path id="Path_116" d="M427.115 326.342s18.45 7.178 30.683-14.753c.002.001-26.325-9.753-30.683 14.753z" class="cls-2" data-name="Path 116" transform="translate(-427.115 -309.674)"/>
                </g>
                <g id="Group_94" data-name="Group 94" transform="translate(31.146 50.941)">
                    <path id="Path_117" d="M426.731 345.44s14.647 13.876 31.4-13.153c.001 0-29.015-5.811-31.4 13.153z" class="cls-2" data-name="Path 117" transform="translate(-426.731 -331.448)"/>
                </g>
                <g id="Group_95" data-name="Group 95" transform="translate(32.157 69.576)">
                    <path id="Path_118" d="M427.812 368.617s16.358 11.81 29.378-17.2c0-.004-29.53-1.917-29.378 17.2z" class="cls-2" data-name="Path 118" transform="translate(-427.811 -351.36)"/>
                </g>
                <g id="Group_97" data-name="Group 97" transform="translate(0 74.889)">
                    <g id="Group_96" data-name="Group 96">
                        <path id="Path_119" d="M424.975 371.489s-.576-20.168-31.525-12.855c0 0 16.45 24.601 31.525 12.855z" class="cls-2" data-name="Path 119" transform="translate(-393.45 -357.037)"/>
                    </g>
                </g>
                <g id="Group_98" data-name="Group 98" transform="translate(1.813 48.981)">
                    <path id="Path_120" d="M426.588 344.286s-.082-20.176-31.2-13.623c-.001 0 15.838 24.996 31.2 13.623z" class="cls-2" data-name="Path 120" transform="translate(-395.387 -329.354)"/>
                </g>
            </g>
        </g>
        <g id="Group_102" data-name="Group 102" transform="translate(71.217 211.281)">
            <ellipse id="Ellipse_5-2" cx="51.369" cy="8.401" class="cls-1" data-name="Ellipse 5" rx="51.369" ry="8.401" transform="translate(0 195.902)"/>
            <path id="Path_108-2" d="M454.3 454.1h-36.345a11.408 11.408 0 0 1-10.849-7.882l-15.412-47.438a3.153 3.153 0 0 1 2.758-4.115 533.519 533.519 0 0 1 83.355-.006 3.152 3.152 0 0 1 2.753 4.115l-15.414 47.444A11.41 11.41 0 0 1 454.3 454.1z" class="cls-4" data-name="Path 108" transform="translate(-384.757 -247.719)"/>
            <path id="Path_109-2" d="M476.549 397.545c0 1.262-18.337 2.285-40.957 2.285s-40.957-1.022-40.957-2.285 18.337-2.285 40.957-2.285 40.957 1.023 40.957 2.285z" class="cls-12" data-name="Path 109" transform="translate(-383.975 -247.156)"/>
            <g id="Group_99-2" data-name="Group 99" transform="translate(9.176)">
                <g id="Group_86-2" data-name="Group 86" transform="translate(40.711 26.357)">
                    <path id="Path_110-2" d="M426.693 331.32s26.5.023 31.141-33.262c0 0-37.568.575-31.141 33.262z" class="cls-12" data-name="Path 110" transform="translate(-425.953 -298.058)"/>
                </g>
                <g id="Group_88-2" data-name="Group 88" transform="translate(10.157 86.085)">
                    <g id="Group_87-2" data-name="Group 87">
                        <path id="Path_111-2" d="M435.314 376.35s-.4-26.493-33.755-30.605c0 0 1.175 37.555 33.755 30.605z" class="cls-12" data-name="Path 111" transform="translate(-401.559 -345.745)"/>
                    </g>
                </g>
                <g id="Group_89-2" data-name="Group 89" transform="translate(40.272 10.386)">
                    <path id="Path_112-2" d="M429.443 425.034V287.227a1.92 1.92 0 0 0-3.84 0v137.807a6.473 6.473 0 0 0 3.84 0z" class="cls-13" data-name="Path 112" transform="translate(-425.603 -285.307)"/>
                </g>
                <g id="Group_90-2" data-name="Group 90" transform="translate(42.192)">
                    <path id="Path_113-2" d="M427.136 303.262s3.64-26.246 37.247-26.246c0-.001-5.761 37.127-37.247 26.246z" class="cls-13" data-name="Path 113" transform="translate(-427.136 -277.015)"/>
                </g>
                <g id="Group_91-2" data-name="Group 91" transform="translate(6.665 8.062)">
                    <path id="Path_114-2" d="M436.018 309.7s-3.64-26.245-37.247-26.245c0-.003 5.762 37.124 37.247 26.245z" class="cls-13" data-name="Path 114" transform="translate(-398.771 -283.452)"/>
                </g>
                <g id="Group_92-2" data-name="Group 92" transform="translate(2.702 37.946)">
                    <path id="Path_115-2" d="M437.2 326.986s-8.607-25.06-41.59-18.615c-.003 0 12.773 35.334 41.59 18.615z" class="cls-13" data-name="Path 115" transform="translate(-395.607 -307.311)"/>
                </g>
                <g id="Group_93-2" data-name="Group 93" transform="translate(42.166 40.906)">
                    <path id="Path_116-2" d="M427.115 331.983s24.693 9.607 41.065-19.745c0 0-35.232-13.054-41.065 19.745z" class="cls-13" data-name="Path 116" transform="translate(-427.115 -309.674)"/>
                </g>
                <g id="Group_94-2" data-name="Group 94" transform="translate(41.685 68.178)">
                    <path id="Path_117-2" d="M426.731 350.174s19.6 18.571 42.027-17.6c0-.004-38.834-7.78-42.027 17.6z" class="cls-13" data-name="Path 117" transform="translate(-426.731 -331.448)"/>
                </g>
                <g id="Group_95-2" data-name="Group 95" transform="translate(43.038 93.119)">
                    <path id="Path_118-2" d="M427.812 374.456s21.893 15.806 39.319-23.025c0 0-39.522-2.555-39.319 23.025z" class="cls-13" data-name="Path 118" transform="translate(-427.811 -351.36)"/>
                </g>
                <g id="Group_97-2" data-name="Group 97" transform="translate(0 100.229)">
                    <g id="Group_96-2" data-name="Group 96">
                        <path id="Path_119-2" d="M435.642 376.38s-.772-26.992-42.192-17.2c0-.005 22.012 32.92 42.192 17.2z" class="cls-13" data-name="Path 119" transform="translate(-393.45 -357.037)"/>
                    </g>
                </g>
                <g id="Group_98-2" data-name="Group 98" transform="translate(2.426 65.555)">
                    <path id="Path_120-2" d="M437.146 349.339s-.11-27-41.759-18.233c0 0 21.199 33.454 41.759 18.233z" class="cls-13" data-name="Path 120" transform="translate(-395.387 -329.354)"/>
                </g>
            </g>
        </g>
    </g>
</svg>
