<svg xmlns="http://www.w3.org/2000/svg" width="91.335" height="89.813" viewBox="0 0 91.335 89.813">
    <defs>
        <style>
            .cls-1{fill:#29bbc1}
        </style>
    </defs>
    <g id="hotel" transform="translate(0 -4)">
        <g id="Group_604" data-name="Group 604" transform="translate(0 4)">
            <g id="Group_603" data-name="Group 603">
                <path id="Path_1481" d="M89.813 17.7H73.068V5.522A1.522 1.522 0 0 0 71.546 4H19.789a1.522 1.522 0 0 0-1.522 1.522v21.312H1.522A1.522 1.522 0 0 0 0 28.356v62.412a1.522 1.522 0 1 0 3.044 0v-60.89h15.223V92.29a1.522 1.522 0 0 0 1.522 1.522h51.757a1.522 1.522 0 0 0 1.522-1.522V20.745H88.29v70.023a1.522 1.522 0 1 0 3.044 0V19.222a1.522 1.522 0 0 0-1.521-1.522zM44.145 90.768h-6.089v-13.7h6.089zm9.133 0H47.19v-13.7h6.089zm16.745 0h-13.7V75.546a1.522 1.522 0 0 0-1.523-1.523H36.534a1.522 1.522 0 0 0-1.522 1.522v15.223h-13.7V7.044h48.711z" class="cls-1" data-name="Path 1481" transform="translate(0 -4)"/>
            </g>
        </g>
        <g id="Group_606" data-name="Group 606" transform="translate(24.356 10.089)">
            <g id="Group_605" data-name="Group 605">
                <path id="Path_1482" d="M138.656 36h-9.133A1.522 1.522 0 0 0 128 37.522v9.133a1.522 1.522 0 0 0 1.522 1.522h9.133a1.522 1.522 0 0 0 1.522-1.522v-9.133A1.522 1.522 0 0 0 138.656 36zm-1.522 9.133h-6.089v-6.089h6.089z" class="cls-1" data-name="Path 1482" transform="translate(-128 -36)"/>
            </g>
        </g>
        <g id="Group_608" data-name="Group 608" transform="translate(39.578 10.089)">
            <g id="Group_607" data-name="Group 607">
                <path id="Path_1483" d="M218.656 36h-9.133A1.522 1.522 0 0 0 208 37.522v9.133a1.522 1.522 0 0 0 1.522 1.522h9.133a1.522 1.522 0 0 0 1.522-1.522v-9.133A1.522 1.522 0 0 0 218.656 36zm-1.522 9.133h-6.089v-6.089h6.089z" class="cls-1" data-name="Path 1483" transform="translate(-208 -36)"/>
            </g>
        </g>
        <g id="Group_610" data-name="Group 610" transform="translate(54.801 10.089)">
            <g id="Group_609" data-name="Group 609">
                <path id="Path_1484" d="M298.656 36h-9.133A1.522 1.522 0 0 0 288 37.522v9.133a1.522 1.522 0 0 0 1.522 1.522h9.133a1.522 1.522 0 0 0 1.522-1.522v-9.133A1.522 1.522 0 0 0 298.656 36zm-1.522 9.133h-6.089v-6.089h6.089z" class="cls-1" data-name="Path 1484" transform="translate(-288 -36)"/>
            </g>
        </g>
        <g id="Group_612" data-name="Group 612" transform="translate(24.356 25.311)">
            <g id="Group_611" data-name="Group 611">
                <path id="Path_1485" d="M138.656 116h-9.133a1.522 1.522 0 0 0-1.523 1.522v9.133a1.522 1.522 0 0 0 1.522 1.522h9.133a1.522 1.522 0 0 0 1.522-1.522v-9.133a1.522 1.522 0 0 0-1.521-1.522zm-1.522 9.133h-6.089v-6.089h6.089z" class="cls-1" data-name="Path 1485" transform="translate(-128 -116)"/>
            </g>
        </g>
        <g id="Group_614" data-name="Group 614" transform="translate(39.578 25.311)">
            <g id="Group_613" data-name="Group 613">
                <path id="Path_1486" d="M218.656 116h-9.133a1.522 1.522 0 0 0-1.523 1.522v9.133a1.522 1.522 0 0 0 1.522 1.522h9.133a1.522 1.522 0 0 0 1.522-1.522v-9.133a1.522 1.522 0 0 0-1.521-1.522zm-1.522 9.133h-6.089v-6.089h6.089z" class="cls-1" data-name="Path 1486" transform="translate(-208 -116)"/>
            </g>
        </g>
        <g id="Group_616" data-name="Group 616" transform="translate(54.801 25.311)">
            <g id="Group_615" data-name="Group 615">
                <path id="Path_1487" d="M298.656 116h-9.133a1.522 1.522 0 0 0-1.523 1.522v9.133a1.522 1.522 0 0 0 1.522 1.522h9.133a1.522 1.522 0 0 0 1.522-1.522v-9.133a1.522 1.522 0 0 0-1.521-1.522zm-1.522 9.133h-6.089v-6.089h6.089z" class="cls-1" data-name="Path 1487" transform="translate(-288 -116)"/>
            </g>
        </g>
        <g id="Group_618" data-name="Group 618" transform="translate(24.356 40.534)">
            <g id="Group_617" data-name="Group 617">
                <path id="Path_1488" d="M138.656 196h-9.133a1.522 1.522 0 0 0-1.523 1.522v9.133a1.522 1.522 0 0 0 1.522 1.522h9.133a1.522 1.522 0 0 0 1.522-1.522v-9.133a1.522 1.522 0 0 0-1.521-1.522zm-1.522 9.133h-6.089v-6.089h6.089z" class="cls-1" data-name="Path 1488" transform="translate(-128 -196)"/>
            </g>
        </g>
        <g id="Group_620" data-name="Group 620" transform="translate(39.578 40.534)">
            <g id="Group_619" data-name="Group 619">
                <path id="Path_1489" d="M218.656 196h-9.133a1.522 1.522 0 0 0-1.523 1.522v9.133a1.522 1.522 0 0 0 1.522 1.522h9.133a1.522 1.522 0 0 0 1.522-1.522v-9.133a1.522 1.522 0 0 0-1.521-1.522zm-1.522 9.133h-6.089v-6.089h6.089z" class="cls-1" data-name="Path 1489" transform="translate(-208 -196)"/>
            </g>
        </g>
        <g id="Group_622" data-name="Group 622" transform="translate(54.801 40.534)">
            <g id="Group_621" data-name="Group 621">
                <path id="Path_1490" d="M298.656 196h-9.133a1.522 1.522 0 0 0-1.523 1.522v9.133a1.522 1.522 0 0 0 1.522 1.522h9.133a1.522 1.522 0 0 0 1.522-1.522v-9.133a1.522 1.522 0 0 0-1.521-1.522zm-1.522 9.133h-6.089v-6.089h6.089z" class="cls-1" data-name="Path 1490" transform="translate(-288 -196)"/>
            </g>
        </g>
        <g id="Group_624" data-name="Group 624" transform="translate(24.356 55.756)">
            <g id="Group_623" data-name="Group 623">
                <path id="Path_1491" d="M138.656 276h-9.133a1.522 1.522 0 0 0-1.523 1.522v9.133a1.522 1.522 0 0 0 1.522 1.522h9.133a1.522 1.522 0 0 0 1.522-1.522v-9.133a1.522 1.522 0 0 0-1.521-1.522zm-1.522 9.133h-6.089v-6.089h6.089z" class="cls-1" data-name="Path 1491" transform="translate(-128 -276)"/>
            </g>
        </g>
        <g id="Group_626" data-name="Group 626" transform="translate(39.578 55.756)">
            <g id="Group_625" data-name="Group 625">
                <path id="Path_1492" d="M218.656 276h-9.133a1.522 1.522 0 0 0-1.523 1.522v9.133a1.522 1.522 0 0 0 1.522 1.522h9.133a1.522 1.522 0 0 0 1.522-1.522v-9.133a1.522 1.522 0 0 0-1.521-1.522zm-1.522 9.133h-6.089v-6.089h6.089z" class="cls-1" data-name="Path 1492" transform="translate(-208 -276)"/>
            </g>
        </g>
        <g id="Group_628" data-name="Group 628" transform="translate(54.801 55.756)">
            <g id="Group_627" data-name="Group 627">
                <path id="Path_1493" d="M298.656 276h-9.133a1.522 1.522 0 0 0-1.523 1.522v9.133a1.522 1.522 0 0 0 1.522 1.522h9.133a1.522 1.522 0 0 0 1.522-1.522v-9.133a1.522 1.522 0 0 0-1.521-1.522zm-1.522 9.133h-6.089v-6.089h6.089z" class="cls-1" data-name="Path 1493" transform="translate(-288 -276)"/>
            </g>
        </g>
        <g id="Group_630" data-name="Group 630" transform="translate(6.089 32.923)">
            <g id="Group_629" data-name="Group 629">
                <path id="Path_1494" d="M35.044 156h-1.522A1.522 1.522 0 0 0 32 157.522v1.522a1.522 1.522 0 0 0 1.522 1.522h1.522a1.522 1.522 0 0 0 1.522-1.522v-1.522A1.522 1.522 0 0 0 35.044 156z" class="cls-1" data-name="Path 1494" transform="translate(-32 -156)"/>
            </g>
        </g>
        <g id="Group_632" data-name="Group 632" transform="translate(12.178 32.923)">
            <g id="Group_631" data-name="Group 631">
                <path id="Path_1495" d="M67.044 156h-1.522A1.522 1.522 0 0 0 64 157.522v1.522a1.522 1.522 0 0 0 1.522 1.522h1.522a1.522 1.522 0 0 0 1.522-1.522v-1.522A1.522 1.522 0 0 0 67.044 156z" class="cls-1" data-name="Path 1495" transform="translate(-64 -156)"/>
            </g>
        </g>
        <g id="Group_634" data-name="Group 634" transform="translate(6.089 39.012)">
            <g id="Group_633" data-name="Group 633">
                <path id="Path_1496" d="M35.044 188h-1.522A1.522 1.522 0 0 0 32 189.522v1.522a1.522 1.522 0 0 0 1.522 1.522h1.522a1.522 1.522 0 0 0 1.522-1.522v-1.522A1.522 1.522 0 0 0 35.044 188z" class="cls-1" data-name="Path 1496" transform="translate(-32 -188)"/>
            </g>
        </g>
        <g id="Group_636" data-name="Group 636" transform="translate(12.178 39.012)">
            <g id="Group_635" data-name="Group 635">
                <path id="Path_1497" d="M67.044 188h-1.522A1.522 1.522 0 0 0 64 189.522v1.522a1.522 1.522 0 0 0 1.522 1.522h1.522a1.522 1.522 0 0 0 1.522-1.522v-1.522A1.522 1.522 0 0 0 67.044 188z" class="cls-1" data-name="Path 1497" transform="translate(-64 -188)"/>
            </g>
        </g>
        <g id="Group_638" data-name="Group 638" transform="translate(6.089 45.101)">
            <g id="Group_637" data-name="Group 637">
                <path id="Path_1498" d="M35.044 220h-1.522A1.522 1.522 0 0 0 32 221.522v1.522a1.522 1.522 0 0 0 1.522 1.522h1.522a1.522 1.522 0 0 0 1.522-1.522v-1.522A1.522 1.522 0 0 0 35.044 220z" class="cls-1" data-name="Path 1498" transform="translate(-32 -220)"/>
            </g>
        </g>
        <g id="Group_640" data-name="Group 640" transform="translate(12.178 45.101)">
            <g id="Group_639" data-name="Group 639">
                <path id="Path_1499" d="M67.044 220h-1.522A1.522 1.522 0 0 0 64 221.522v1.522a1.522 1.522 0 0 0 1.522 1.522h1.522a1.522 1.522 0 0 0 1.522-1.522v-1.522A1.522 1.522 0 0 0 67.044 220z" class="cls-1" data-name="Path 1499" transform="translate(-64 -220)"/>
            </g>
        </g>
        <g id="Group_642" data-name="Group 642" transform="translate(6.089 51.19)">
            <g id="Group_641" data-name="Group 641">
                <path id="Path_1500" d="M35.044 252h-1.522A1.522 1.522 0 0 0 32 253.522v1.522a1.522 1.522 0 0 0 1.522 1.522h1.522a1.522 1.522 0 0 0 1.522-1.522v-1.522A1.522 1.522 0 0 0 35.044 252z" class="cls-1" data-name="Path 1500" transform="translate(-32 -252)"/>
            </g>
        </g>
        <g id="Group_644" data-name="Group 644" transform="translate(12.178 51.19)">
            <g id="Group_643" data-name="Group 643">
                <path id="Path_1501" d="M67.044 252h-1.522A1.522 1.522 0 0 0 64 253.522v1.522a1.522 1.522 0 0 0 1.522 1.522h1.522a1.522 1.522 0 0 0 1.522-1.522v-1.522A1.522 1.522 0 0 0 67.044 252z" class="cls-1" data-name="Path 1501" transform="translate(-64 -252)"/>
            </g>
        </g>
        <g id="Group_646" data-name="Group 646" transform="translate(6.089 57.279)">
            <g id="Group_645" data-name="Group 645">
                <path id="Path_1502" d="M35.044 284h-1.522A1.522 1.522 0 0 0 32 285.522v1.522a1.522 1.522 0 0 0 1.522 1.522h1.522a1.522 1.522 0 0 0 1.522-1.522v-1.522A1.522 1.522 0 0 0 35.044 284z" class="cls-1" data-name="Path 1502" transform="translate(-32 -284)"/>
            </g>
        </g>
        <g id="Group_648" data-name="Group 648" transform="translate(12.178 57.279)">
            <g id="Group_647" data-name="Group 647">
                <path id="Path_1503" d="M67.044 284h-1.522A1.522 1.522 0 0 0 64 285.522v1.522a1.522 1.522 0 0 0 1.522 1.522h1.522a1.522 1.522 0 0 0 1.522-1.522v-1.522A1.522 1.522 0 0 0 67.044 284z" class="cls-1" data-name="Path 1503" transform="translate(-64 -284)"/>
            </g>
        </g>
        <g id="Group_650" data-name="Group 650" transform="translate(6.089 63.368)">
            <g id="Group_649" data-name="Group 649">
                <path id="Path_1504" d="M35.044 316h-1.522A1.522 1.522 0 0 0 32 317.522v1.522a1.522 1.522 0 0 0 1.522 1.522h1.522a1.522 1.522 0 0 0 1.522-1.522v-1.522A1.522 1.522 0 0 0 35.044 316z" class="cls-1" data-name="Path 1504" transform="translate(-32 -316)"/>
            </g>
        </g>
        <g id="Group_652" data-name="Group 652" transform="translate(12.178 63.368)">
            <g id="Group_651" data-name="Group 651">
                <path id="Path_1505" d="M67.044 316h-1.522A1.522 1.522 0 0 0 64 317.522v1.522a1.522 1.522 0 0 0 1.522 1.522h1.522a1.522 1.522 0 0 0 1.522-1.522v-1.522A1.522 1.522 0 0 0 67.044 316z" class="cls-1" data-name="Path 1505" transform="translate(-64 -316)"/>
            </g>
        </g>
        <g id="Group_654" data-name="Group 654" transform="translate(6.089 69.457)">
            <g id="Group_653" data-name="Group 653">
                <path id="Path_1506" d="M35.044 348h-1.522A1.522 1.522 0 0 0 32 349.522v1.522a1.522 1.522 0 0 0 1.522 1.522h1.522a1.522 1.522 0 0 0 1.522-1.522v-1.522A1.522 1.522 0 0 0 35.044 348z" class="cls-1" data-name="Path 1506" transform="translate(-32 -348)"/>
            </g>
        </g>
        <g id="Group_656" data-name="Group 656" transform="translate(12.178 69.457)">
            <g id="Group_655" data-name="Group 655">
                <path id="Path_1507" d="M67.044 348h-1.522A1.522 1.522 0 0 0 64 349.522v1.522a1.522 1.522 0 0 0 1.522 1.522h1.522a1.522 1.522 0 0 0 1.522-1.522v-1.522A1.522 1.522 0 0 0 67.044 348z" class="cls-1" data-name="Path 1507" transform="translate(-64 -348)"/>
            </g>
        </g>
        <g id="Group_658" data-name="Group 658" transform="translate(6.089 75.546)">
            <g id="Group_657" data-name="Group 657">
                <path id="Path_1508" d="M35.044 380h-1.522A1.522 1.522 0 0 0 32 381.522v1.522a1.522 1.522 0 0 0 1.522 1.522h1.522a1.522 1.522 0 0 0 1.522-1.522v-1.522A1.522 1.522 0 0 0 35.044 380z" class="cls-1" data-name="Path 1508" transform="translate(-32 -380)"/>
            </g>
        </g>
        <g id="Group_660" data-name="Group 660" transform="translate(12.178 75.546)">
            <g id="Group_659" data-name="Group 659">
                <path id="Path_1509" d="M67.044 380h-1.522A1.522 1.522 0 0 0 64 381.522v1.522a1.522 1.522 0 0 0 1.522 1.522h1.522a1.522 1.522 0 0 0 1.522-1.522v-1.522A1.522 1.522 0 0 0 67.044 380z" class="cls-1" data-name="Path 1509" transform="translate(-64 -380)"/>
            </g>
        </g>
        <g id="Group_662" data-name="Group 662" transform="translate(6.089 81.635)">
            <g id="Group_661" data-name="Group 661">
                <path id="Path_1510" d="M35.044 412h-1.522A1.522 1.522 0 0 0 32 413.522v1.522a1.522 1.522 0 0 0 1.522 1.522h1.522a1.522 1.522 0 0 0 1.522-1.522v-1.522A1.522 1.522 0 0 0 35.044 412z" class="cls-1" data-name="Path 1510" transform="translate(-32 -412)"/>
            </g>
        </g>
        <g id="Group_664" data-name="Group 664" transform="translate(12.178 81.635)">
            <g id="Group_663" data-name="Group 663">
                <path id="Path_1511" d="M67.044 412h-1.522A1.522 1.522 0 0 0 64 413.522v1.522a1.522 1.522 0 0 0 1.522 1.522h1.522a1.522 1.522 0 0 0 1.522-1.522v-1.522A1.522 1.522 0 0 0 67.044 412z" class="cls-1" data-name="Path 1511" transform="translate(-64 -412)"/>
            </g>
        </g>
        <g id="Group_666" data-name="Group 666" transform="translate(76.112 23.789)">
            <g id="Group_665" data-name="Group 665">
                <path id="Path_1512" d="M407.611 108h-6.089a1.522 1.522 0 0 0-1.522 1.522v6.089a1.522 1.522 0 0 0 1.522 1.522h6.089a1.522 1.522 0 0 0 1.522-1.522v-6.089a1.522 1.522 0 0 0-1.522-1.522zm-1.522 6.089h-3.044v-3.044h3.044z" class="cls-1" data-name="Path 1512" transform="translate(-400 -108)"/>
            </g>
        </g>
        <g id="Group_668" data-name="Group 668" transform="translate(76.112 35.967)">
            <g id="Group_667" data-name="Group 667">
                <path id="Path_1513" d="M407.611 172h-6.089a1.522 1.522 0 0 0-1.522 1.522v6.089a1.522 1.522 0 0 0 1.522 1.522h6.089a1.522 1.522 0 0 0 1.522-1.522v-6.089a1.522 1.522 0 0 0-1.522-1.522zm-1.522 6.089h-3.044v-3.044h3.044z" class="cls-1" data-name="Path 1513" transform="translate(-400 -172)"/>
            </g>
        </g>
        <g id="Group_670" data-name="Group 670" transform="translate(76.112 48.145)">
            <g id="Group_669" data-name="Group 669">
                <path id="Path_1514" d="M407.611 236h-6.089a1.522 1.522 0 0 0-1.522 1.522v6.089a1.522 1.522 0 0 0 1.522 1.522h6.089a1.522 1.522 0 0 0 1.522-1.522v-6.089a1.522 1.522 0 0 0-1.522-1.522zm-1.522 6.089h-3.044v-3.044h3.044z" class="cls-1" data-name="Path 1514" transform="translate(-400 -236)"/>
            </g>
        </g>
        <g id="Group_672" data-name="Group 672" transform="translate(76.112 60.323)">
            <g id="Group_671" data-name="Group 671">
                <path id="Path_1515" d="M407.611 300h-6.089a1.522 1.522 0 0 0-1.522 1.522v6.089a1.522 1.522 0 0 0 1.522 1.522h6.089a1.522 1.522 0 0 0 1.522-1.522v-6.089a1.522 1.522 0 0 0-1.522-1.522zm-1.522 6.089h-3.044v-3.044h3.044z" class="cls-1" data-name="Path 1515" transform="translate(-400 -300)"/>
            </g>
        </g>
        <g id="Group_674" data-name="Group 674" transform="translate(76.112 72.501)">
            <g id="Group_673" data-name="Group 673">
                <path id="Path_1516" d="M407.611 364h-6.089a1.522 1.522 0 0 0-1.522 1.522v6.089a1.522 1.522 0 0 0 1.522 1.522h6.089a1.522 1.522 0 0 0 1.522-1.522v-6.089a1.522 1.522 0 0 0-1.522-1.522zm-1.522 6.089h-3.044v-3.044h3.044z" class="cls-1" data-name="Path 1516" transform="translate(-400 -364)"/>
            </g>
        </g>
    </g>
</svg>
