<svg xmlns="http://www.w3.org/2000/svg" width="210.388" height="164.137" viewBox="0 0 210.388 164.137">
    <defs>
        <style>
            .prefix__cls-1{fill:#f7dab6}.prefix__cls-2{fill:#f0c89e}.prefix__cls-3{fill:#e5d4bf;opacity:.4;mix-blend-mode:multiply;isolation:isolate}.prefix__cls-4{fill:#fff}.prefix__cls-7{fill:#e8eaec;opacity:.5}
        </style>
    </defs>
    <g id="prefix__Group_548" data-name="Group 548" transform="translate(-528.381 -2247.863)">
        <g id="prefix__Group_547" data-name="Group 547" transform="translate(528.381 2247.863)">
            <g id="prefix__hands">
                <path id="prefix__Path_1374" d="M328.661 106.422l-37.578 41.561 18.808 16.35 9.126 21.612 15.693 12.57 41.933-56.236-25.659-20.194-8.164-6.9z" class="prefix__cls-1" data-name="Path 1374" transform="translate(-270.067 -80.666)"/>
                <path id="prefix__Path_1375" d="M354.861 153.192a10.431 10.431 0 00-2.123-14.6 10.422 10.422 0 00-14.58 2.12l-18.448 26.68a10.414 10.414 0 002.118 14.582 10.416 10.416 0 0014.582-2.118z" class="prefix__cls-2" data-name="Path 1375" transform="translate(-227.113 -31.969)"/>
                <path id="prefix__Path_1376" d="M359.448 156.321a9.789 9.789 0 00-1.981-13.7 9.79 9.79 0 00-13.7 1.992l-17.325 25.042a9.786 9.786 0 001.987 13.7 9.79 9.79 0 0013.7-1.984z" class="prefix__cls-2" data-name="Path 1376" transform="translate(-216.021 -25.253)"/>
                <path id="prefix__Path_1377" d="M393.8 102.326l-18.173 19.045s-21.579 5.628-22.791 5.991l-6.661 19.2-23.628 28.538-16.417 22.346a92.792 92.792 0 0021.356 14.925c7.675 3.929 18.283 16.022 28.651 21.343 7.332 3.764 11.6 8.722 18.522 3.6 16.692-12.336 39.017-55.266 42.419-61.76.094-.186 3.233-18.244 3.233-18.244l21.27-27.753z" class="prefix__cls-2" data-name="Path 1377" transform="translate(-245.728 -87.293)"/>
                <path id="prefix__Path_1378" d="M348.935 149.8a10.553 10.553 0 00-1.72-14.828 10.553 10.553 0 00-14.778 2.1L313.056 164.1a10.567 10.567 0 001.714 14.833 10.563 10.563 0 0014.784-2.1z" class="prefix__cls-2" data-name="Path 1378" transform="translate(-238.201 -37.933)"/>
                <path id="prefix__Path_1379" d="M344.34 145.121a10.851 10.851 0 00-1.413-15.278 10.849 10.849 0 00-15.278 1.421L307.038 158a10.844 10.844 0 001.416 15.268 10.85 10.85 0 0015.276-1.413l2.39-2.816z" class="prefix__cls-2" data-name="Path 1379" transform="translate(-248.304 -46.83)"/>
                <path id="prefix__Path_1380" d="M334.867 142.728a.644.644 0 00-.076-.783c-.123-.107-.45-.094-.9.2-1.285.83-16.464 19.872-16.195 20.822.074.261 2.882-1.273 17.171-20.239z" class="prefix__cls-3" data-name="Path 1380" transform="translate(-227.021 -23.308)"/>
                <path id="prefix__Path_1381" d="M327.451 137.4a.618.618 0 00-.12-.728c-.123-.1-.429-.12-.838.12-1.165.686-14.349 17.325-14.03 18.22.084.245 2.647-.996 14.988-17.612z" class="prefix__cls-3" data-name="Path 1381" transform="translate(-235.493 -31.858)"/>
                <path id="prefix__Path_1382" d="M338.078 147.825c.175-.236-.047-.612-.146-.694-.123-.1-.419-.131-.8.081-1.086.586-12.957 15.65-12.611 16.514.09.228 2.493-.813 13.557-15.901z" class="prefix__cls-3" data-name="Path 1382" transform="translate(-216 -14.944)"/>
                <path id="prefix__Path_1383" d="M306.529 170.079l45.212-51.055-17.613-15.864-45.21 51.057z" class="prefix__cls-4" data-name="Path 1383" transform="translate(-273.569 -85.945)"/>
                <path id="prefix__Path_1384" d="M298.317 170.894l61.2-53.649-15.264-18.137-61.2 53.649z" data-name="Path 1384" transform="translate(-283.054 -92.498)" style="fill:#67707a"/>
                <path id="prefix__Path_1385" d="M332.686 124.722a.961.961 0 001.186.644l.2-.063a.959.959 0 00.639-1.186.949.949 0 00-1.178-.639l-.209.06a.954.954 0 00-.641 1.183z" data-name="Path 1385" transform="translate(-202.836 -53.143)" style="fill:#606770"/>
                <path id="prefix__Path_1386" d="M321.908 140.1c12.928 1.9 35.307-3.657 35.307-3.657l4.61 3.494c-4.5 16.794 10.834 20.843 13.425 21.4s3.515-5.905 3.515-5.905l1.162-26.866-23.2-16.92c-7.141-.973-42.857 2.354-42.857 2.354z" class="prefix__cls-1" data-name="Path 1386" transform="translate(-233.209 -72.511)"/>
                <path id="prefix__Path_1387" d="M336.237 130.368c.126-2.594 2.484-6.374 7-7.716l-.633 14.679a17.682 17.682 0 01-.979 3.662 14.04 14.04 0 01-2.772-3.185c-1.553-2.32-2.753-4.539-2.616-7.44z" class="prefix__cls-7" data-name="Path 1387" transform="translate(-197.048 -54.415)"/>
                <path id="prefix__Rectangle_575" d="M0 0H23.703V64.828H0z" class="prefix__cls-4" data-name="Rectangle 575" transform="rotate(-52.735 94.983 -120.277)"/>
                <g id="prefix__Group_546" data-name="Group 546" transform="translate(115.537 85.974)">
                    <path id="prefix__Path_1388" d="M353.566 154.3c3.5 2.764 8.865 1.837 11.967-2.084 3.1-3.921 2.777-9.344-.738-12.124l-11.457-9.062c-3.5-2.775-8.86-1.845-11.962 2.076-3.1 3.924-2.775 9.35.73 12.13z" class="prefix__cls-1" data-name="Path 1388" transform="translate(-307.699 -129.428)"/>
                    <path id="prefix__Path_1389" d="M344.984 144.544a10 10 0 01-2.406-1.408c-2.84-2.248-3.107-6.648-.592-9.823s6.853-3.929 9.69-1.683a13.259 13.259 0 012.047 1.968c1.263 2.384-5.561 11.375-8.739 10.946z" class="prefix__cls-7" data-name="Path 1389" transform="translate(-306.057 -127.96)"/>
                    <path id="prefix__Path_1390" d="M350.565 160.767a9.154 9.154 0 0012.883-1.348 9.158 9.158 0 00-1.648-12.849l-13.132-10.386a9.166 9.166 0 00-12.891 1.351 9.162 9.162 0 001.654 12.849z" class="prefix__cls-1" data-name="Path 1390" transform="translate(-316.412 -121.798)"/>
                    <path id="prefix__Path_1391" d="M345 165.333c3.633 2.874 9.093 2.026 12.2-1.892 3.1-3.918 2.672-9.433-.963-12.31l-11.883-9.394c-3.641-2.874-9.093-2.029-12.2 1.89-3.1 3.926-2.67 9.436.966 12.313z" class="prefix__cls-1" data-name="Path 1391" transform="translate(-322.52 -112.277)"/>
                    <path id="prefix__Path_1392" d="M339.373 168.562c3.008 2.382 7.779 1.372 10.653-2.262 2.869-3.628 2.756-8.507-.256-10.889l-9.847-7.782c-3-2.385-7.777-1.374-10.648 2.262-2.869 3.633-2.759 8.5.251 10.881z" class="prefix__cls-1" data-name="Path 1392" transform="translate(-327.194 -102.076)"/>
                    <path id="prefix__Path_1393" d="M339.4 149.111a10.076 10.076 0 01-2.4-1.411c-2.845-2.248-3.11-6.643-.594-9.821s6.847-3.931 9.69-1.68a13.778 13.778 0 012.047 1.961c1.257 2.392-5.56 11.38-8.743 10.951z" class="prefix__cls-7" data-name="Path 1393" transform="translate(-315.086 -120.573)"/>
                    <path id="prefix__Path_1394" d="M335.612 154.906a10 10 0 01-2.405-1.408c-2.837-2.248-3.107-6.643-.591-9.821s6.853-3.931 9.69-1.683a13.469 13.469 0 012.047 1.966c1.263 2.384-5.561 11.38-8.741 10.946z" class="prefix__cls-7" data-name="Path 1394" transform="translate(-321.215 -111.197)"/>
                    <path id="prefix__Path_1395" d="M331.571 157.584a7.391 7.391 0 01-1.751-1.026 5.374 5.374 0 016.625-8.379 9.908 9.908 0 011.492 1.429c.916 1.741-4.05 8.285-6.366 7.976z" class="prefix__cls-7" data-name="Path 1395" transform="translate(-325.673 -100.623)"/>
                </g>
                <path id="prefix__Rectangle_576" d="M0 0H23.701V75.486H0z" data-name="Rectangle 576" transform="rotate(-46.37 89.691 -154.13)" style="fill:#de673c"/>
            </g>
        </g>
        <g id="prefix__Ellipse_67" data-name="Ellipse 67" transform="translate(660.438 2334)" style="fill:#408462;stroke:#fff;stroke-width:7px">
            <circle cx="39" cy="39" r="39" style="stroke:none"/>
            <circle cx="39" cy="39" r="35.5" style="fill:none"/>
        </g>
        <text id="prefix___" data-name="$" transform="translate(712.438 2388)" style="font-size:47px;font-family:DINNextLTW23-Medium,DIN Next LT W23;font-weight:500;fill:#fff">
            <tspan x="-25.803" y="0">$</tspan>
        </text>
    </g>
</svg>
