<svg id="Capa_1" enable-background="new 0 0 512 512" height="512" viewBox="0 0 512 512" width="512" xmlns="http://www.w3.org/2000/svg"><g><g><path d="m427.728 474.161c-4.142 0-7.5 3.357-7.5 7.5v15.339h-47.63v-19.774c0-4.143-3.358-7.5-7.5-7.5s-7.5 3.357-7.5 7.5v19.774h-203.196v-19.774c0-4.143-3.358-7.5-7.5-7.5s-7.5 3.357-7.5 7.5v19.774h-47.63v-15.339c0-4.143-3.358-7.5-7.5-7.5s-7.5 3.357-7.5 7.5v22.839c0 4.143 3.358 7.5 7.5 7.5h343.455c4.142 0 7.5-3.357 7.5-7.5v-22.839c.001-4.142-3.357-7.5-7.499-7.5z"/><path d="m377.168 367.31-73.283-19.542c43.927-18.929 72.755-62.147 72.755-110.738l-.002-74.976c0-45.524-25.35-85.235-62.672-105.771-.918-31.188-26.558-56.283-57.966-56.283s-57.048 25.095-57.966 56.284c-37.322 20.536-62.672 60.247-62.672 105.771l-.002 74.976c0 32.231 12.55 62.526 35.337 85.304 10.744 10.743 23.529 19.41 37.419 25.434l-73.284 19.542c-34.185 9.115-58.06 40.191-58.06 75.57v3.691c0 4.143 3.358 7.5 7.5 7.5s7.5-3.357 7.5-7.5v-3.691c0-28.594 19.296-53.709 46.924-61.076l5.309-1.416c5.743 22.594 18.295 43.176 35.928 58.6 21.055 18.42 48.068 28.564 76.066 28.564s55.011-10.145 76.065-28.564c17.633-15.425 30.186-36.006 35.929-58.6l5.31 1.416c27.628 7.367 46.924 32.482 46.924 61.076v3.691c0 4.143 3.358 7.5 7.5 7.5s7.5-3.357 7.5-7.5v-3.691c.001-35.38-23.874-66.456-58.059-75.571zm-226.806-164.626c0-4.776 3.886-8.662 8.663-8.662h8.663v33.488h-8.663c-4.776 0-8.663-3.887-8.663-8.663zm32.325-14.585 3.158-6.2h14.596c1.989 0 3.896-.79 5.303-2.196l5.809-5.809 6.819 6.819c1.406 1.406 3.314 2.196 5.303 2.196h64.65c1.989 0 3.897-.79 5.303-2.196l6.819-6.819 5.809 5.809c1.407 1.406 3.314 2.196 5.303 2.196h14.558l3.196 6.393v48.829c0 40.425-32.888 73.313-73.313 73.313s-73.313-32.889-73.313-73.313zm178.951 30.748c0 4.776-3.886 8.663-8.663 8.663h-8.663v-33.488h8.663c4.776 0 8.663 3.886 8.663 8.662zm-139.061 140.589c3.283-.876 5.567-3.85 5.567-7.247v-31.259c8.761 2.919 18.126 4.505 27.855 4.505s19.094-1.586 27.855-4.505v31.259c0 3.397 2.284 6.371 5.567 7.247l32.872 8.766c-7.365 30.079-34.773 52.026-66.295 52.026s-58.93-21.948-66.295-52.026zm76.278-25.843v-19.278c25.611-14.275 43.42-40.923 45.288-71.805h8.832c3.029 0 5.923-.578 8.588-1.62-1.462 40.629-25.926 76.437-62.708 92.703zm-42.855-318.593c20.619 0 37.889 14.587 42.049 33.982-13.1-4.887-27.267-7.565-42.049-7.565s-28.949 2.678-42.049 7.565c4.16-19.395 21.43-33.982 42.049-33.982zm0 41.417c58.249 0 105.638 47.389 105.638 105.638v18.616c-2.685-1.06-5.605-1.65-8.663-1.65h-11.527l-3.988-7.977c-1.27-2.54-3.867-4.146-6.708-4.146h-16.086l-8.915-8.915c-2.929-2.928-7.678-2.928-10.606 0l-9.925 9.926h-58.438l-9.925-9.926c-2.929-2.928-7.678-2.928-10.606 0l-8.915 8.915h-16.086c-2.821 0-5.403 1.583-6.683 4.096l-4.088 8.026h-11.452c-3.057 0-5.978.589-8.663 1.65v-18.616c-.002-58.248 47.387-105.637 105.636-105.637zm-105.563 184.473c2.664 1.042 5.559 1.62 8.588 1.62h8.832c1.868 30.883 19.677 57.53 45.288 71.805v19.271c-11.802-5.254-22.671-12.689-31.842-21.861-19.042-19.032-29.911-44.06-30.866-70.835zm171.752 186.809c-18.319 16.027-41.826 24.854-66.189 24.854s-47.87-8.826-66.189-24.854c-15.394-13.467-26.336-31.446-31.312-51.176l16.718-4.458c4.081 16.422 13.119 31.324 26.002 42.595 15.161 13.263 34.616 20.567 54.782 20.567s39.621-7.305 54.782-20.567c12.883-11.271 21.921-26.173 26.002-42.595l16.718 4.458c-4.977 19.73-15.92 37.709-31.314 51.176z"/></g></g></svg>