<?xml version="1.0" encoding="utf-8"?>
<!-- Generator: Adobe Illustrator 22.1.0, SVG Export Plug-In . SVG Version: 6.00 Build 0)  -->
<svg version="1.1" id="Layer_1" xmlns="http://www.w3.org/2000/svg" xmlns:xlink="http://www.w3.org/1999/xlink" x="0px" y="0px"
	 viewBox="0 0 472 472" style="enable-background:new 0 0 472 472;" xml:space="preserve">
<style type="text/css">
	.st0{fill:#33CCCC;}
	.st1{fill:#189DAE;}
	.st2{fill:#ACABB1;}
	.st3{fill:#D1D3D4;}
	.st4{fill:#FF9811;}
	.st5{fill:#E6E7E8;}
	.st6{fill:#787680;}
	.st7{fill:#898890;}
	.st8{fill:#57565C;}
</style>
<path class="st0" d="M468,32v256H4V32C4.1,14.3,18.3,0.1,36,0h400C453.7,0,468,14.3,468,32z"/>
<path class="st1" d="M300,64H172c-17.7,0-32,14.3-32,32v65c2.6-0.7,5.3-1.1,8-1h176c2.7,0,5.4,0.3,8,1V96C332,78.3,317.7,64,300,64z
	"/>
<path class="st2" d="M468,288v32c-0.1,17.7-14.3,31.9-32,32H36c-17.7-0.1-31.9-14.3-32-32v-32H468z"/>
<path class="st3" d="M420,88l8,32h-48l8-32H420z"/>
<path class="st4" d="M116,208h240v32H116V208z"/>
<path class="st5" d="M356,192v16H116v-16c0-14.6,9.9-27.3,24-31c2.6-0.7,5.3-1.1,8-1h176c2.7,0,5.4,0.3,8,1
	C346.1,164.7,356,177.4,356,192z"/>
<path class="st6" d="M316,432v32H156v-32H316z"/>
<path class="st4" d="M300,136v24h-48v-24c0-4.4,3.6-8,8-8h32C296.4,128,300,131.6,300,136z"/>
<path class="st7" d="M292,352l8,80H172l8-80H292z"/>
<path class="st4" d="M220,136v24h-48v-24c0-4.4,3.6-8,8-8h32C216.4,128,220,131.6,220,136z"/>
<path class="st3" d="M84,88l8,32H44l8-32H84z"/>
<path class="st6" d="M428,312h16v16h-16V312z"/>
<g>
	<path class="st8" d="M116,456h240v16H116V456z"/>
	<path class="st8" d="M76,120H60v104H44v16h48v-16H76V120z"/>
	<path class="st8" d="M412,224V120h-16v104h-16v16h48v-16H412z"/>
</g>
</svg>
