<?xml version="1.0" encoding="iso-8859-1"?>
<!-- Generator: Adobe Illustrator 19.0.0, SVG Export Plug-In . SVG Version: 6.00 Build 0)  -->
<svg version="1.1" id="Layer_1" xmlns="http://www.w3.org/2000/svg" xmlns:xlink="http://www.w3.org/1999/xlink" x="0px" y="0px"
	 viewBox="0 0 512 512" style="enable-background:new 0 0 512 512;" xml:space="preserve">
<g>
	<g>
		<g>
			<path d="M480,42.667H32c-17.643,0-32,14.357-32,32v298.667c0,17.643,14.357,32,32,32h181.333v22.976l-119.083,19.84
				c-5.803,0.96-9.728,6.464-8.768,12.267c0.875,5.227,5.397,8.917,10.517,8.917c0.576,0,1.152-0.043,1.749-0.149L224.853,448
				h62.272l127.104,21.184c0.597,0.107,1.195,0.149,1.771,0.149c5.141,0,9.664-3.691,10.496-8.917
				c0.981-5.803-2.965-11.307-8.768-12.267l-119.061-19.84v-22.976H480c17.643,0,32-14.357,32-32V74.667
				C512,57.024,497.643,42.667,480,42.667z M277.333,426.667h-42.667v-21.333h42.667V426.667z M490.667,373.333
				c0,5.888-4.779,10.667-10.667,10.667H32c-5.888,0-10.667-4.779-10.667-10.667V74.667C21.333,68.779,26.112,64,32,64h448
				c5.888,0,10.667,4.779,10.667,10.667V373.333z"/>
			<path d="M458.667,85.333H53.333c-5.888,0-10.667,4.779-10.667,10.667v256c0,5.888,4.779,10.667,10.667,10.667h405.333
				c5.888,0,10.667-4.779,10.667-10.667V96C469.333,90.112,464.555,85.333,458.667,85.333z M448,341.333H64V106.667h384V341.333z"/>
		</g>
	</g>
</g>
<g>
</g>
<g>
</g>
<g>
</g>
<g>
</g>
<g>
</g>
<g>
</g>
<g>
</g>
<g>
</g>
<g>
</g>
<g>
</g>
<g>
</g>
<g>
</g>
<g>
</g>
<g>
</g>
<g>
</g>
</svg>
