<svg xmlns="http://www.w3.org/2000/svg" id="instagram" width="43.72" height="43.72" viewBox="0 0 43.72 43.72">
    <defs>
        <style>
            .cls-1{fill:#fff}
        </style>
    </defs>
    <path id="Path_1412" d="M40.562 23.88H27.531a3.776 3.776 0 0 0-3.772 3.772v13.031a3.777 3.777 0 0 0 3.772 3.773h13.031a3.777 3.777 0 0 0 3.773-3.773V27.652a3.776 3.776 0 0 0-3.773-3.772zm-6.516 17.061a6.773 6.773 0 1 1 6.773-6.773 6.781 6.781 0 0 1-6.773 6.773zm6.991-12.146a1.6 1.6 0 1 1 1.6-1.6 1.6 1.6 0 0 1-1.599 1.6z" class="cls-1" data-name="Path 1412" transform="translate(-12.186 -12.248)"/>
    <path id="Path_1413" d="M40.76 36.971a3.911 3.911 0 1 0 3.911 3.91 3.916 3.916 0 0 0-3.911-3.91z" class="cls-1" data-name="Path 1413" transform="translate(-18.9 -18.963)"/>
    <path id="Path_1414" d="M21.86 0a21.86 21.86 0 1 0 21.86 21.86A21.861 21.861 0 0 0 21.86 0zm13.15 28.434a6.641 6.641 0 0 1-6.634 6.634H15.345a6.641 6.641 0 0 1-6.634-6.634V15.4a6.642 6.642 0 0 1 6.634-6.63h13.03a6.641 6.641 0 0 1 6.635 6.63z" class="cls-1" data-name="Path 1414"/>
</svg>
