<svg xmlns="http://www.w3.org/2000/svg" width="159.842" height="164.57" viewBox="0 0 159.842 164.57">
    <defs>
        <style>
            .prefix__cls-1{fill:#67707a}.prefix__cls-2{fill:#ffb640}.prefix__cls-3{fill:#de673c}
        </style>
    </defs>
    <g id="prefix__Group_495" data-name="Group 495" transform="translate(-32.792 -31.259)">
        <g id="prefix__document" transform="translate(32.792 31.259)">
            <g id="prefix__Group_493" data-name="Group 493" transform="translate(0 56.59)">
                <path id="prefix__Rectangle_526" d="M0 0H11.487V4.91H0z" class="prefix__cls-1" data-name="Rectangle 526" transform="translate(8.626 103.07)"/>
                <path id="prefix__Rectangle_527" d="M0 0H11.487V63.802H0z" class="prefix__cls-2" data-name="Rectangle 527" transform="translate(8.626 11.252)"/>
                <path id="prefix__Rectangle_528" d="M0 0H11.487V63.802H0z" class="prefix__cls-2" data-name="Rectangle 528" transform="translate(8.626 11.252)"/>
                <path id="prefix__Path_1308" d="M200.659 391.124h-14.637L187.6 390h11.487z" class="prefix__cls-1" data-name="Path 1308" transform="translate(-178.97 -349.901)"/>
                <path id="prefix__Rectangle_529" d="M0 0H14.638V63.801H0z" class="prefix__cls-3" data-name="Rectangle 529" transform="translate(7.052 41.223)"/>
                <path id="prefix__Path_1309" d="M186.639 385.557l5.742-11.269 5.744 11.269z" class="prefix__cls-1" data-name="Path 1309" transform="translate(-178.012 -374.288)"/>
                <path id="prefix__Path_1310" d="M188.986 426.125v-17.556a15.074 15.074 0 00-.426-3.437c-.727-2.554-3.445-4.838-4.881-3.088-1.574 1.929 1.794 3.233 1.554 5.606v20.508a1.734 1.734 0 001.728 1.727h17.987v-3.761z" class="prefix__cls-1" data-name="Path 1310" transform="translate(-183.258 -332.173)"/>
            </g>
            <g id="prefix__Group_494" data-name="Group 494" transform="translate(26.477)">
                <path id="prefix__Path_1311" d="M290.1 352.111h-96.466v164.57H327V389.015z" data-name="Path 1311" transform="translate(-193.634 -352.111)" style="fill:#f1f4f5"/>
                <path id="prefix__Path_1312" d="M231.437 389.015h36.9l-36.9-36.9z" data-name="Path 1312" transform="translate(-134.974 -352.111)" style="fill:#dce5ed"/>
                <path id="prefix__Rectangle_530" d="M0 0H114.259V12.433H0z" class="prefix__cls-1" data-name="Rectangle 530" transform="translate(10.912 48.422)"/>
                <path id="prefix__Rectangle_531" d="M0 0H114.259V12.439H0z" class="prefix__cls-1" data-name="Rectangle 531" transform="translate(10.912 72.15)"/>
                <path id="prefix__Rectangle_532" d="M0 0H114.259V12.433H0z" class="prefix__cls-1" data-name="Rectangle 532" transform="translate(10.912 95.327)"/>
                <path id="prefix__Rectangle_533" d="M0 0H80.547V12.434H0z" class="prefix__cls-1" data-name="Rectangle 533" transform="translate(10.912 121.113)"/>
                <path id="prefix__Path_1313" d="M261.822 417.751a16.173 16.173 0 10-16.173 16.175 16.17 16.17 0 0016.173-16.175z" class="prefix__cls-3" data-name="Path 1313" transform="translate(-138.017 -275.355)"/>
            </g>
        </g>
    </g>
</svg>
