<svg xmlns="http://www.w3.org/2000/svg" width="249" height="237" viewBox="0 0 249 237">
    <defs>
        <linearGradient id="prefix__linear-gradient" x1=".5" x2=".5" y1=".923" y2="-.187" gradientUnits="objectBoundingBox">
            <stop offset="0" stop-color="#fff"/>
            <stop offset="1" stop-color="#29bbc1"/>
        </linearGradient>
        <style>
            .prefix__cls-5{fill:#cee5ed}.prefix__cls-3{fill:#f2bf75}.prefix__cls-4{fill:#1e394c}.prefix__cls-6{fill:#2fc5c7}.prefix__cls-12,.prefix__cls-7{fill:#34648c}.prefix__cls-7{opacity:.25}.prefix__cls-8{fill:#ea9249}.prefix__cls-10{fill:#b4ccd3}.prefix__cls-13{fill:#0f2a3f;opacity:.26}
        </style>
    </defs>
    <g id="prefix__Group_971" data-name="Group 971" transform="translate(-286.139 -132)">
        <path id="prefix__Path_1866" d="M338.972 362.987h143.334c31.946-21.949 52.833-58.146 52.833-99.116C535.139 196.908 479.4 133 410.64 133s-124.5 63.908-124.5 130.871c-.001 40.97 20.886 77.166 52.832 99.116z" data-name="Path 1866" transform="translate(0 .473)"/>
        <ellipse id="prefix__Ellipse_179" cx="103.384" cy="5.173" data-name="Ellipse 179" rx="103.384" ry="5.173" transform="translate(304.506 358.655)" style="opacity:.43;fill:#cee5ed"/>
        <g id="prefix__Group_967" data-name="Group 967" transform="translate(328.002 132)">
            <g id="prefix__Group_966" data-name="Group 966" transform="translate(11.484)">
                <g id="prefix__Group_962" data-name="Group 962" transform="translate(19.912 211.312)">
                    <path id="prefix__Path_1867" d="M363.216 277.18l.774 4.876-3.652 4.808-9.491-4.486-1.082-4.454 11.712-1.935z" class="prefix__cls-3" data-name="Path 1867" transform="translate(-329.31 -275.988)"/>
                    <path id="prefix__Path_1868" d="M362.387 291.059l-.99-1.192a.453.453 0 00-.7 0l-.962 1.159a2.044 2.044 0 01-1.576.738l-21.911-.074a1.176 1.176 0 01-.06-1.656c3.165-3.285 20.369-9.123 21.221-9.606s6.2 3.55 13.144-.321a74.03 74.03 0 011.423 9.019 2.5 2.5 0 01-2.494 2.675l-5.56-.018a2.013 2.013 0 01-1.535-.724z" class="prefix__cls-4" data-name="Path 1868" transform="translate(-335.877 -274.04)"/>
                </g>
                <g id="prefix__Group_963" data-name="Group 963" transform="translate(55.021 211.51)">
                    <path id="prefix__Path_1869" d="M387.053 277.314l.774 4.876-3.652 4.81-9.491-4.486-1.082-4.454 11.712-1.935z" class="prefix__cls-3" data-name="Path 1869" transform="translate(-353.147 -276.122)"/>
                    <path id="prefix__Path_1870" d="M386.225 291.193l-.99-1.192a.452.452 0 00-.7 0l-.962 1.159a2.042 2.042 0 01-1.573.74l-21.911-.074a1.176 1.176 0 01-.06-1.656c3.167-3.284 20.369-9.123 21.223-9.606s6.193 3.55 13.143-.321a74.051 74.051 0 011.423 9.019 2.5 2.5 0 01-2.494 2.675l-5.56-.019a2.007 2.007 0 01-1.539-.725z" class="prefix__cls-4" data-name="Path 1870" transform="translate(-359.714 -274.174)"/>
                </g>
                <path id="prefix__Path_1871" d="M359.037 169.763l-6.669 25.458-18.153-12.115-8.215 6.521 23.7 22.186L366.749 196z" class="prefix__cls-5" data-name="Path 1871" transform="translate(-320.636 -114.369)"/>
                <path id="prefix__Path_1872" d="M335.487 182.553l-5.287-10.426a2.179 2.179 0 00-3.047-.873 7.928 7.928 0 00-3.728 8.475c.716 3.33 1.927 7.267 3.872 9.337z" class="prefix__cls-3" data-name="Path 1872" transform="translate(-321.936 -113.789)"/>
                <path id="prefix__Path_1873" d="M329.379 165.319l-5.791-.473c-.841-.068-1.377.473-1.193 1.2l4.108 16.275a2.183 2.183 0 001.863 1.449l5.791.471c1.349.11 2.128 2.5 1.195-1.2l-4.109-16.275a2.179 2.179 0 00-1.864-1.447z" class="prefix__cls-4" data-name="Path 1873" transform="translate(-322.358 -116.647)"/>
                <path id="prefix__Path_1874" d="M332.779 181.534l1.212-3.865a2.2 2.2 0 00-.7-2.826l-2.012-1.4a1.436 1.436 0 00-1.9.234 1.435 1.435 0 00.2 2.08l.926.719.946.713-2.243 3.386z" class="prefix__cls-3" data-name="Path 1874" transform="translate(-319.204 -112.732)"/>
                <path id="prefix__Path_1875" d="M399.9 313.7c0-5.688-6.607-100.373-6.607-100.373s-13.343-12.989-20.6-11.614c-7.261-1.376-23.772 8.254-23.772 8.254s.345 98.045.345 103.733h15.728s.109-45.143 6.239-77.744c.274-1.458 2.5-1.6 2.778-.144 6.13 32.6 10.167 77.888 10.167 77.888z" class="prefix__cls-4" data-name="Path 1875" transform="translate(-309.8 -99.864)"/>
                <path id="prefix__Path_1876" d="M373.5 159.32s18.566 4.544 21.133 7.506 12.222 21.431 12.048 27.652c-.2 7.285-12.689 22.831-12.443 21.924v21.939s-28.442 8.887-45.624-1.977c0 0-1.971-56.346.395-62.624.726-1.931 10.073-10.073 12.838-11.061s11.653-3.359 11.653-3.359z" class="prefix__cls-5" data-name="Path 1876" transform="translate(-310.309 -119.29)"/>
                <path id="prefix__Path_1877" d="M398.6 194.477c-.178 6.494-10.132 19.566-12.106 21.669l-.012.012-.326.243-6.269 5.628-7.556-6.814s13.925-9.924 12-22.665c-1.358-8.964-10.667-25.033-10.667-25.033-3.2-1.809-6.333-5.09-8.756-8.06.326-.088.51-.135.51-.135s18.569 4.538 21.135 7.5 12.221 21.434 12.047 27.655z" class="prefix__cls-5" data-name="Path 1877" transform="translate(-302.236 -119.264)"/>
                <g id="prefix__Group_965" data-name="Group 965" transform="translate(25.807 70.336)">
                    <rect id="prefix__Rectangle_776" width="74.659" height="41.292" class="prefix__cls-6" data-name="Rectangle 776" rx="4.552"/>
                    <path id="prefix__Path_1878" d="M388.561 179.949h-7.924a6.7 6.7 0 016.7 6.7v27.883a6.7 6.7 0 01-6.7 6.7h7.924a6.7 6.7 0 006.7-6.7v-27.88a6.7 6.7 0 00-6.7-6.703z" class="prefix__cls-7" data-name="Path 1878" transform="translate(-320.606 -179.948)"/>
                    <path id="prefix__Rectangle_777" d="M0 0H74.659V9.593H0z" class="prefix__cls-4" data-name="Rectangle 777" transform="translate(0 13.347)"/>
                    <g id="prefix__Group_964" data-name="Group 964" transform="translate(7.091 29.405)">
                        <path id="prefix__Rectangle_778" d="M0 0H14.702V2.033H0z" class="prefix__cls-4" data-name="Rectangle 778"/>
                        <path id="prefix__Rectangle_779" d="M0 0H7.108V2.033H0z" class="prefix__cls-4" data-name="Rectangle 779" transform="translate(0 4.536)"/>
                    </g>
                </g>
                <path id="prefix__Path_1879" d="M370.779 152.314V165.5s-4.295 13.184-14.221 2.815l-.888-10.518z" class="prefix__cls-8" data-name="Path 1879" transform="translate(-306.606 -122.394)"/>
                <path id="prefix__Path_1880" d="M351.576 151.6s-16.79-3.554-6.42-17.875c0 0 1.778 7.6 10.864 1.087 4.631-3.321 11.5-4.154 19.158 0 8.2 4.444 11.061 18.072 4.049 25.182l-13.727-2.765z" class="prefix__cls-4" data-name="Path 1880" transform="translate(-313.177 -132)"/>
                <path id="prefix__Path_1881" d="M348.456 146.512s-1.975 22.814 13.134 21.332c11.8-1.158 11.358-10.073 11.358-10.073s3.852-.791 4.049-4.246-.89-6.32-4.345-4.049c0 0-6.123-3.95-6.519-6.716a38.378 38.378 0 01-17.677 3.752z" class="prefix__cls-3" data-name="Path 1881" transform="translate(-310.057 -126.912)"/>
                <path id="prefix__Path_1882" d="M362.551 215.266a2.422 2.422 0 00.619 3.343l2.561 2.074a2.421 2.421 0 003.4-.087l8.042-10.013-7.691-5.917-8.365 5.908a1.027 1.027 0 00.025 1.7 1.945 1.945 0 001.386.286 3.429 3.429 0 002.22-1.134z" data-name="Path 1882" transform="translate(-304.235 -98.021)" style="fill:#f6ba8e"/>
                <path id="prefix__Path_1883" d="M365.668 223.16l8.982 7.229s24.4-26.992 24.5-37.31c.057-5.8-6.992-19.777-11.406-27.315h-15.813s11.279 16.98 14.683 25.125a4.937 4.937 0 01-.493 4.7c-4.121 6.002-16.286 23.566-20.453 27.571z" class="prefix__cls-5" data-name="Path 1883" transform="translate(-301.878 -116.264)"/>
                <path id="prefix__Path_1884" d="M385.678 165.764s9.011 22.344 8.967 26.824c-.085 8.885-19.582 30.015-24.611 35.747l2.551 2.053s24.4-26.992 24.5-37.31c.056-5.802-6.993-19.778-11.407-27.314z" class="prefix__cls-10" data-name="Path 1884" transform="translate(-299.813 -116.264)"/>
                <path id="prefix__Path_1885" d="M391.728 184.452l-.5.177h-40.755l-.557-.177 38.314-.982s-4.975-13.811-4.195-13.421 7.693 14.403 7.693 14.403z" class="prefix__cls-10" data-name="Path 1885" transform="translate(-309.327 -114.21)"/>
                <path id="prefix__Path_1886" d="M355.1 163.339a8.952 8.952 0 01-1.841-4.74 6.784 6.784 0 01-2.025-.231c-.23-.23.552-6.535.415-7.64-.1-.779-.507-3.821-.736-5.478a23.6 23.6 0 01-2.452.084s-1.975 22.814 13.134 21.332c-3.683.059-4.888-1.623-6.495-3.327z" class="prefix__cls-8" data-name="Path 1886" transform="translate(-310.057 -125.734)"/>
            </g>
            <path id="prefix__Path_1887" d="M340.026 154.025a12.832 12.832 0 10-10.7 14.956l2.634 3.031.542-3.941a12.835 12.835 0 007.524-14.046zm-19.177 3.464a1.58 1.58 0 111.58-1.58 1.581 1.581 0 01-1.58 1.58zm6.367 0a1.58 1.58 0 111.58-1.58 1.58 1.58 0 01-1.58 1.58zm6.289 0a1.58 1.58 0 111.58-1.58 1.58 1.58 0 01-1.58 1.58z" data-name="Path 1887" transform="translate(-314.562 -126.579)" style="fill:#0e5c77"/>
        </g>
        <g id="prefix__Group_970" data-name="Group 970" transform="translate(442.061 266.088)">
            <g id="prefix__Group_968" data-name="Group 968">
                <path id="prefix__Path_1888" d="M439.667 250.2c4.644-4.921 5.793-11.38 2.566-14.426s-9.608-1.526-14.252 3.4-7.952 13.664-4.725 16.71 11.766-.765 16.411-5.684z" class="prefix__cls-12" data-name="Path 1888" transform="translate(-377.829 -218.524)"/>
                <path id="prefix__Path_1889" d="M441.845 235.768a5.98 5.98 0 00-3.771-1.549 5.3 5.3 0 01.452.365c3.227 3.046 2.078 9.5-2.566 14.424-3.494 3.7-9.191 6.771-13.174 6.768.03.029.05.068.081.1 3.227 3.046 11.767-.76 16.411-5.679s5.794-11.384 2.567-14.429z" class="prefix__cls-13" data-name="Path 1889" transform="translate(-377.441 -218.517)"/>
                <path id="prefix__Path_1890" d="M422.745 236.291c.622-6.638-2.195-12.33-6.289-12.712s-7.918 4.687-8.54 11.325 1.907 15.412 6 15.8 8.209-7.776 8.829-14.413z" class="prefix__cls-6" data-name="Path 1890" transform="translate(-384.518 -223.558)"/>
                <path id="prefix__Path_1891" d="M414.97 223.578a4.9 4.9 0 00-2.245.331c3.36 1.345 5.523 6.485 4.971 12.381-.514 5.5-3.423 12.017-6.733 13.885a3.292 3.292 0 001.469.523c4.095.384 8.207-7.771 8.827-14.408s-2.194-12.329-6.289-12.712z" class="prefix__cls-7" data-name="Path 1891" transform="translate(-383.032 -223.558)"/>
                <path id="prefix__Path_1892" d="M409.022 231.129c-2.838-5.591-7.937-8.7-11.385-6.949s-3.943 7.7-1.1 13.293 9.257 11.3 12.707 9.547 2.618-10.301-.222-15.891z" class="prefix__cls-12" data-name="Path 1892" transform="translate(-390.729 -223.495)"/>
                <path id="prefix__Path_1893" d="M408.922 231.129c-2.838-5.591-7.937-8.7-11.385-6.949a5.381 5.381 0 00-2.637 3.6 4.421 4.421 0 011.056-.76c3.449-1.753 8.547 1.359 11.387 6.949 1.993 3.924 2.986 9.3 2.212 12.764 2.945-2.22 2.083-10.257-.633-15.604z" class="prefix__cls-13" data-name="Path 1893" transform="translate(-390.629 -223.495)"/>
                <path id="prefix__Path_1894" d="M404.81 245.089c-5.473-2.451-11.061-1.871-12.48 1.3s1.869 7.722 7.342 10.173 13.6 3.011 15.023-.156-4.412-8.865-9.885-11.317z" class="prefix__cls-6" data-name="Path 1894" transform="translate(-392 -214.094)"/>
                <path id="prefix__Path_1895" d="M404.807 245.089c-5.473-2.451-11.061-1.871-12.48 1.3a4.061 4.061 0 00-.246 2.4c1.511-3.053 7.011-3.589 12.409-1.172 4.405 1.974 9.035 6.045 9.938 9.211a2.5 2.5 0 00.265-.426c1.419-3.166-4.412-8.861-9.886-11.313z" class="prefix__cls-7" data-name="Path 1895" transform="translate(-391.998 -214.094)"/>
                <path id="prefix__Path_1896" d="M439.793 262.174c5.466-1.947 8.861-6.429 7.584-10.014s-6.742-4.912-12.206-2.965-11.4 7.334-10.123 10.919 9.28 4.006 14.745 2.06z" class="prefix__cls-12" data-name="Path 1896" transform="translate(-376.455 -211.859)"/>
                <path id="prefix__Path_1897" d="M447.053 251.974a5.638 5.638 0 00-3.626-3.282 4.828 4.828 0 011.414 2.018c1.277 3.584-2.118 8.067-7.584 10.014-3.7 1.315-8.549 1.544-11.7.446 2.5 2.408 9.164 2.508 13.913.817 5.465-1.946 8.86-6.428 7.583-10.013z" class="prefix__cls-13" data-name="Path 1897" transform="translate(-376.132 -211.673)"/>
                <path id="prefix__Path_1898" d="M416.008 284.323a61.981 61.981 0 0119.422-40.406c.443-.42-.227-1.09-.672-.67a62.983 62.983 0 00-19.7 41.076c-.05.608.9.6.949 0z" class="prefix__cls-4" data-name="Path 1898" transform="translate(-381.096 -214.311)"/>
                <path id="prefix__Path_1899" d="M419.212 286.605A83.408 83.408 0 00401.9 233.8c-.367-.477-1.19-.006-.819.479a82.608 82.608 0 0117.187 52.323.474.474 0 00.947 0z" class="prefix__cls-4" data-name="Path 1899" transform="translate(-387.752 -218.807)"/>
                <path id="prefix__Path_1900" d="M410.94 259.038c2.586-8.236 3.248-16.984 3.563-25.568.024-.61-.925-.61-.947 0-.314 8.506-.968 17.155-3.529 25.316-.184.583.732.832.913.252z" class="prefix__cls-4" data-name="Path 1900" transform="translate(-383.487 -219.087)"/>
                <path id="prefix__Path_1901" d="M400.707 249.892a84.938 84.938 0 0014.919 6.964c.572.216.817-.7.252-.915a83.755 83.755 0 01-14.692-6.868c-.518-.326-1 .495-.479.819z" class="prefix__cls-4" data-name="Path 1901" transform="translate(-387.988 -211.528)"/>
                <path id="prefix__Path_1902" d="M432.675 254.63a101.425 101.425 0 01-14.034 4.688.475.475 0 00.252.915 101.42 101.42 0 0014.034-4.688c.555-.233.311-1.15-.252-.915z" class="prefix__cls-4" data-name="Path 1902" transform="translate(-379.561 -208.883)"/>
            </g>
            <g id="prefix__Group_969" data-name="Group 969" transform="translate(15.552 62.945)">
                <path id="prefix__Path_1903" d="M402.574 268.954l2.881 26.083a6.435 6.435 0 006.4 5.728h16.628a6.437 6.437 0 006.4-5.728l2.881-26.083a2.4 2.4 0 00-2.383-2.66h-30.426a2.4 2.4 0 00-2.381 2.66z" class="prefix__cls-5" data-name="Path 1903" transform="translate(-402.559 -266.294)"/>
                <path id="prefix__Path_1904" d="M430.437 266.294h-10.546a2.4 2.4 0 012.382 2.66l-2.88 26.083a6.437 6.437 0 01-6.4 5.728h10.546a6.437 6.437 0 006.4-5.728l2.881-26.083a2.4 2.4 0 00-2.383-2.66z" data-name="Path 1904" transform="translate(-397.624 -266.294)" style="fill:#aac6ce"/>
            </g>
        </g>
    </g>
</svg>
