<svg xmlns="http://www.w3.org/2000/svg" width="170.2" height="138.197" viewBox="0 0 170.2 138.197">
    <defs>
        <style>
            .prefix__cls-1{fill:#f29e3e}.prefix__cls-2{fill:#ffb640}.prefix__cls-5{fill:#67707a}
        </style>
    </defs>
    <g id="prefix__Group_477" data-name="Group 477" transform="translate(-54.977 -59.85)">
        <g id="prefix__key" transform="translate(54.977 59.85)">
            <g id="prefix__key-2" data-name="key">
                <path id="prefix__Path_1251" d="M84.846 232.673l-5.372-3.32L30.807 308.1l7.591-.269 5.931-1.3-.025-8.257 6.752-2.63 1.641-2.655-1.05-6.6 1.443-2.34 8.713-5.8 2.422-3.92.488-9.085 8.338-5.2 1.1-1.772 2.122.28L78 255.757l12.218-19.762z" class="prefix__cls-1" data-name="Path 1251" transform="translate(-24.499 -169.903)"/>
                <path id="prefix__Path_1252" d="M71.937 226.088l-44.232 71.569 6.308 13.819L82.68 232.73z" class="prefix__cls-2" data-name="Path 1252" transform="translate(-27.705 -173.279)"/>
                <path id="prefix__Path_1253" d="M74.744 227.3l-45.883 74.247 1.7 3.717 47.075-76.172z" class="prefix__cls-1" data-name="Path 1253" transform="translate(-26.511 -172.022)"/>
                <path id="prefix__Path_1254" d="M114.025 221.405L83.54 202.568a16.223 16.223 0 00-22.59 5.632l-18.081 30.965a17.232 17.232 0 005.772 23.159l27.54 17.021a17.24 17.24 0 0023.3-5.195l19.6-30.02a16.227 16.227 0 00-5.056-22.725zM85.281 233.83a7.715 7.715 0 1110.619-2.5 7.709 7.709 0 01-10.619 2.5z" data-name="Path 1254" transform="translate(-14.398 -200.123)" style="fill:#ffcb55"/>
                <path id="prefix__Path_1255" d="M116.9 230.82a13.167 13.167 0 00-5.984-8.379L80.43 203.6a13.209 13.209 0 00-18.4 4.59l-18.083 30.961a14.167 14.167 0 004.753 19.075l27.54 17.021a14.164 14.164 0 0019.187-4.277l19.608-30.02a13.184 13.184 0 001.865-10.13zm-33.144 1.48a7.715 7.715 0 1110.619-2.5 7.709 7.709 0 01-10.619 2.5z" class="prefix__cls-2" data-name="Path 1255" transform="translate(-12.873 -198.592)"/>
                <path id="prefix__Path_1256" d="M74.089 210.311a9.224 9.224 0 103 12.7 9.235 9.235 0 00-3-12.7zm-8.906 14.408a7.715 7.715 0 1110.619-2.5 7.709 7.709 0 01-10.62 2.5z" data-name="Path 1256" transform="translate(5.701 -191.012)" style="fill:#ffc440"/>
            </g>
            <path id="prefix__Path_1257" d="M80.69 219.45a12.479 12.479 0 01-.395 3.46 32.6 32.6 0 008.2-4.531l-1.133-2.906a22.552 22.552 0 01-6.672 3.977z" class="prefix__cls-5" data-name="Path 1257" transform="translate(26.664 -184.254)"/>
            <path id="prefix__Path_1258" d="M112.89 213.551c-2.87-7.474-11.654-12.622-22.269-12.622a33.633 33.633 0 00-4.68.332c-13.84 1.957-23.888 12.112-22.4 22.635a15.715 15.715 0 005.3 9.608 8.658 8.658 0 002.343-1.595 12.4 12.4 0 01-4.731-8.422c-1.257-8.918 7.67-17.581 19.9-19.309a30.184 30.184 0 014.267-.3c8.5 0 15.628 3.6 18.7 9.006z" class="prefix__cls-5" data-name="Path 1258" transform="translate(9.193 -199.29)"/>
            <g id="prefix__Group_476" data-name="Group 476" transform="translate(105.631 13.045)">
                <path id="prefix__Path_1259" d="M87.694 206.537l-8.052 45.5 4.834-3.449.761-3.844 19.6 27.477 39.375-28.079-19.6-27.477 3.885.533 4.839-3.451zm9.88 13.893a3.726 3.726 0 11.866-5.2 3.729 3.729 0 01-.866 5.2z" data-name="Path 1259" transform="translate(-79.642 -206.537)" style="fill:#df6958"/>
            </g>
            <path id="prefix__Path_1260" d="M90.468 210.727a14.911 14.911 0 00-.846-3.252l-3.571-.669a12.224 12.224 0 011.5 4.332c.4 2.788-1.418 7.147-1.649 8.148a4.052 4.052 0 001.039.98 3.308 3.308 0 001.475.541 15.238 15.238 0 002.052-10.08z" class="prefix__cls-5" data-name="Path 1260" transform="translate(32.461 -193.214)"/>
        </g>
    </g>
</svg>
