<svg height="504pt" viewBox="0 -21 504.0183 504" width="504pt" xmlns="http://www.w3.org/2000/svg"><path d="m501.074219 176.363281-244.671875-175.050781c-2.433594-1.738281-5.707032-1.738281-8.140625 0l-245.324219 175.046875c-3.148438 2.242187-3.882812 6.617187-1.636719 9.765625 2.246094 3.148438 6.617188 3.878906 9.765625 1.632812l39.800782-28.398437v295.011719c0 3.867187 3.132812 7 7 7h37.679687c3.867187 0 7-3.132813 7-7v-212.042969h298.910156v212.042969c0 3.867187 3.136719 7 7 7h37.679688c3.867187 0 7-3.132813 7-7v-295.089844l39.792969 28.46875c2.03125 1.464844 4.695312 1.730469 6.976562.695312 2.28125-1.035156 3.839844-3.207031 4.078125-5.703124.242187-2.492188-.867187-4.925782-2.910156-6.378907zm-99.617188 12.601563h-298.914062v-28.921875h298.914062zm-298.914062 39.363281v-25.367187h298.914062v25.367187zm336.59375 219.042969h-23.679688v-294.328125c0-3.867188-3.132812-7-7-7h-312.914062c-3.863281 0-7 3.132812-7 7v294.328125h-23.679688v-298l187.460938-133.761719 186.8125 133.65625zm0 0"/><path d="m161.652344 367.214844c-10.242188 0-18.539063 8.300781-18.539063 18.539062 0 10.238282 8.296875 18.539063 18.539063 18.539063 10.238281 0 18.539062-8.300781 18.539062-18.539063-.011718-10.234375-8.304687-18.527344-18.539062-18.539062zm0 23.078125c-2.507813 0-4.539063-2.035157-4.539063-4.539063 0-2.507812 2.03125-4.539062 4.539063-4.539062 2.503906 0 4.539062 2.03125 4.539062 4.539062-.003906 2.503906-2.035156 4.53125-4.539062 4.535156zm0 0"/><path d="m342.351562 367.214844c-10.238281 0-18.539062 8.300781-18.539062 18.539062 0 10.238282 8.300781 18.539063 18.539062 18.539063 10.238282 0 18.539063-8.300781 18.539063-18.539063-.011719-10.234375-8.304687-18.527344-18.539063-18.539062zm0 23.078125c-2.507812 0-4.539062-2.035157-4.539062-4.539063 0-2.507812 2.03125-4.539062 4.539062-4.539062 2.507813 0 4.539063 2.03125 4.539063 4.539062-.003906 2.503906-2.035156 4.53125-4.539063 4.535156zm0 0"/><path d="m120.363281 366.644531 6.488281 51.246094c.222657 7.695313 5.273438 14.417969 12.605469 16.769531v14.148438c.007813 6.9375 5.628907 12.558594 12.566407 12.566406h16.902343c6.9375-.007812 12.558594-5.628906 12.566407-12.566406v-13.28125h141.015624v13.28125c.007813 6.9375 5.628907 12.558594 12.566407 12.566406h16.898437c6.9375-.007812 12.558594-5.628906 12.566406-12.566406v-14.253906c7.179688-2.433594 12.09375-9.070313 12.324219-16.644532l6.769531-51.230468c.039063-.300782.0625-.609376.0625-.917969.03125-6.867188-2.292968-13.539063-6.585937-18.898438 3.109375-1.25 4.894531-4.53125 4.257813-7.820312-.636719-3.292969-3.515626-5.671875-6.867188-5.671875l-15.304688.007812-17.882812-32.964844c-6.710938-12.023437-16.570312-25.824218-33.429688-25.824218h-110.828124c-13.652344 0-25.660157 9.199218-33.824219 25.917968l-18.527344 32.832032-15.210937.03125c-3.300782.015625-6.144532 2.335937-6.816407 5.566406-.675781 3.230469.996094 6.496094 4.015625 7.832031-4.203125 5.429688-6.449218 12.121094-6.375 18.988281-.003906.296876.011719.589844.046875.886719zm47.132813 80.726563h-14.039063v-11.84375h14.039063zm169.011718 0v-11.84375h14.035157v11.84375zm26.421876-30.898438c-.039063.304688-.0625.609375-.0625.917969-.027344 2.269531-1.863282 4.101563-4.132813 4.132813h-213.757813c-2.269531-.03125-4.101562-1.863282-4.132812-4.132813 0-.292969-.019531-.585937-.054688-.878906l-6.476562-51.160157c.175781-8.699218 5.925781-14.023437 11.738281-14.46875.234375.027344.472657.042969.707031.046876h210.160157c7.738281 0 12.582031 7.398437 12.769531 14.40625zm-74.398438-79.542968c2.507812-5.964844 8.347656-9.84375 14.816406-9.84375 6.472656 0 12.3125 3.878906 14.820313 9.84375zm-113.007812-29.730469c.074218-.125.140624-.253907.199218-.386719 3.300782-6.808594 10.464844-18.226562 21.328125-18.226562h110.832031c7.570313 0 13.910157 5.578124 21.160157 18.578124l16.148437 29.769532h-12.410156c-2.949219-13.902344-15.21875-23.84375-29.425781-23.84375-14.210938 0-26.480469 9.941406-29.425781 23.84375h-115.183594zm0 0"/><path d="m308.382812 377.15625c-2.914062-8.570312-12.292968-15.285156-21.34375-15.285156h-70.363281c-9.089843 0-18.421875 6.765625-21.246093 15.410156l-3.523438 10.792969c-.695312 2.132812-.328125 4.46875.988281 6.28125 1.316407 1.816406 3.425781 2.890625 5.667969 2.890625h106.878906c2.257813 0 4.375-1.089844 5.691406-2.921875 1.3125-1.835938 1.664063-4.195313.9375-6.332031zm-100.171874 6.089844.53125-1.621094c1.363281-3.246094 4.421874-5.464844 7.933593-5.753906h70.363281c3.558594.296875 6.664063 2.523437 8.089844 5.796875l.539063 1.582031zm0 0"/></svg>