<svg id="Layer_5" enable-background="new 0 0 64 64" height="512" viewBox="0 0 64 64" width="512" xmlns="http://www.w3.org/2000/svg"><path d="m61 29h-3.184c.112-.314.184-.648.184-1 0-1.317-.859-2.427-2.042-2.829-.382-5.087-4.232-9.21-9.191-10.016.15-.355.233-.746.233-1.155 0-1.654-1.346-3-3-3s-3 1.346-3 3c0 .409.083.8.233 1.156-4.959.806-8.809 4.929-9.191 10.016-1.183.401-2.042 1.511-2.042 2.828 0 .352.072.686.184 1h-4.184v-6h.303l4.783-3.188c1.198-.8 1.914-2.137 1.914-3.577 0-.204-.014-.407-.043-.608l-2.09-14.627h-11.734l-2.089 14.624c-.03.203-.044.406-.044.61 0 1.44.716 2.777 1.914 3.577l4.783 3.189h.303v6h-9.306c-.491 0-.906-.352-.986-.835l-1.025-6.151c-.484-2.906-2.973-5.014-5.918-5.014h-2.765c-1.654 0-3 1.346-3 3s1.346 3 3 3h2.306c.491 0 .906.352.986.835l1.025 6.151c.414 2.487 2.302 4.378 4.683 4.875v16.955c-1.838 1.064-3 3.027-3 5.184 0 3.309 2.691 6 6 6s6-2.691 6-6c0-2.164-1.16-4.124-3-5.187v-.718c1.216.228 1.956.871 2.836 1.652 1.187 1.057 2.533 2.253 5.163 2.253 2.629 0 3.976-1.197 5.162-2.253 1.099-.976 1.965-1.747 3.834-1.747 1.87 0 2.738.771 3.837 1.747 1.189 1.057 2.535 2.253 5.166 2.253s3.978-1.196 5.165-2.253c.88-.781 1.62-1.424 2.837-1.652v.721c-1.838 1.064-3 3.027-3 5.184 0 3.309 2.691 6 6 6s6-2.691 6-6c0-2.164-1.16-4.124-3-5.187v-16.813h2c1.103 0 2-.897 2-2v-2c0-1.103-.897-2-2-2zm-40.977-10.853c-.64-.427-1.023-1.142-1.023-1.913 0-.108.008-.216.023-.325l1.844-12.909h8.266l1.845 12.911c.014.108.022.215.022.323 0 .771-.383 1.485-1.023 1.913l-4.28 2.853h-1.395zm23.977-5.147c.552 0 1 .448 1 1s-.448 1-1 1-1-.448-1-1 .448-1 1-1zm-1 4h2c4.625 0 8.442 3.507 8.941 8h-19.882c.499-4.493 4.316-8 8.941-8zm-11 11c0-.552.448-1 1-1h22c.552 0 1 .448 1 1s-.448 1-1 1h-22c-.552 0-1-.448-1-1zm-17 7h2v21c0 .552-.448 1-1 1s-1-.448-1-1zm5 22c0 2.206-1.794 4-4 4s-4-1.794-4-4c0-.994.368-1.929 1-2.646v1.646c0 1.654 1.346 3 3 3s3-1.346 3-3v-1.646c.631.716 1 1.649 1 2.646zm28.835-5.747c-1.099.976-1.967 1.747-3.837 1.747-1.871 0-2.739-.771-3.838-1.748-1.187-1.056-2.534-2.252-5.165-2.252-2.629 0-3.976 1.197-5.162 2.253-1.099.976-1.965 1.747-3.834 1.747s-2.736-.771-3.835-1.747c-1.026-.912-2.175-1.926-4.164-2.186v-14.067h34v14.067c-1.99.259-3.139 1.273-4.165 2.186zm11.165 5.747c0 2.206-1.794 4-4 4s-4-1.794-4-4c0-.994.368-1.929 1-2.646v1.646c0 1.654 1.346 3 3 3s3-1.346 3-3v-1.646c.631.716 1 1.649 1 2.646zm-3-1c0 .552-.448 1-1 1s-1-.448-1-1v-21h2zm4-23h-46.765c-1.964 0-3.623-1.405-3.945-3.342l-1.025-6.151c-.242-1.452-1.486-2.507-2.959-2.507h-2.306c-.552 0-1-.448-1-1s.448-1 1-1h2.765c1.964 0 3.623 1.405 3.945 3.342l1.025 6.151c.242 1.452 1.486 2.507 2.959 2.507h18.306 22 6z"/><path d="m23 37h2v2h-2z"/><path d="m29 37h2v2h-2z"/><path d="m35 37h2v2h-2z"/><path d="m41 37h2v2h-2z"/><path d="m47 37h2v2h-2z"/></svg>