<svg xmlns="http://www.w3.org/2000/svg" width="11.455" height="16.946" viewBox="0 0 11.455 16.946">
    <defs>
        <style>
            .cls-1{fill:#b2b2b2;stroke:#b2b2b2;stroke-width:.1px}
        </style>
    </defs>
    <g id="employee" transform="translate(.05 .05)">
        <g id="Group_122" data-name="Group 122">
            <path id="Path_139" d="M94.555 13.649a.247.247 0 0 0-.247.247v2.32a.136.136 0 0 1-.136.136h-1.327v-4.859a.247.247 0 0 0-.494 0v4.86h-2.67l.775-.852a.442.442 0 0 0 .107-.355v-.007l-.738-4.358.2-.3a.56.56 0 0 0 .353.153.432.432 0 0 0 .387-.239l.778-1.56 1.773.686a1.71 1.71 0 0 1 1 1.554v1.669a.247.247 0 1 0 .494 0v-1.669a2.2 2.2 0 0 0-1.3-2.011l-2.95-1.143v-.693a2.312 2.312 0 0 0 .875-1.521 1.068 1.068 0 0 0 .627-.256 1.048 1.048 0 0 0 .109-1.478v-.915a3.058 3.058 0 1 0-6.117 0V4a.991.991 0 0 0-.254.66 1.046 1.046 0 0 0 .364.794 1.068 1.068 0 0 0 .627.256 2.288 2.288 0 0 0 .909 1.554v.655l-2.946 1.143a2.2 2.2 0 0 0-1.3 2.011v5.141a.631.631 0 0 0 .63.63h2.351a.247.247 0 0 0 0-.494H85.9v-4.857a.247.247 0 1 0-.494 0v4.86h-1.329a.136.136 0 0 1-.136-.136v-5.142a1.71 1.71 0 0 1 1-1.554l1.771-.687.778 1.56a.432.432 0 0 0 .387.239.559.559 0 0 0 .353-.153l.2.3-.738 4.358v.007a.442.442 0 0 0 .107.355l.775.852h-.994a.247.247 0 1 0 0 .494h6.592a.631.631 0 0 0 .63-.63V13.9a.247.247 0 0 0-.247-.251zm-3.477-4.994l-.725 1.454-.872-.62.9-1.106zm-1.459 1.539l-.188.283h-.615l-.188-.283.5-.352zM88.195 8v-.463a2.5 2.5 0 0 0 .933.177 2.317 2.317 0 0 0 .923-.192V8l-.927 1.144zm3.722-3.342a.553.553 0 0 1-.192.42.575.575 0 0 1-.285.131v-1.1a.558.558 0 0 1 .477.548zm-5.161.551a.558.558 0 0 1-.477-.551.586.586 0 0 1 .477-.538zm.013-1.592a1.22 1.22 0 0 0-.236.053v-.612a2.565 2.565 0 1 1 5.129 0v.594a1.1 1.1 0 0 0-.222-.043c0-.238 0-.192-.777-1.03a.439.439 0 0 0-.561-.068 4.758 4.758 0 0 1-2.876.774.439.439 0 0 0-.457.331zm.48 1.786V3.781a5.273 5.273 0 0 0 3.084-.832c.357.384.551.585.613.661V5.4a1.849 1.849 0 0 1-3.7 0zm.645 4.707l-.725-1.454.7-.271.9 1.106zm.283 5.081l.714-4.22h.463l.714 4.22-.946 1.04z" class="cls-1" data-name="Path 139" transform="translate(-83.447)"/>
        </g>
    </g>
</svg>
