<svg xmlns="http://www.w3.org/2000/svg" id="delete-button" width="19.046" height="23.553" viewBox="0 0 19.046 23.553">
    <defs>
        <style>
            .cls-1{fill:#818181}
        </style>
    </defs>
    <g id="Group_461" data-name="Group 461">
        <path id="Path_371" d="M62.511 2.822h-3.666a3.187 3.187 0 0 0-6.332 0h-3.667a2.694 2.694 0 0 0-2.691 2.691v.138a2.693 2.693 0 0 0 1.7 2.5v12.711a2.694 2.694 0 0 0 2.691 2.691H60.81a2.694 2.694 0 0 0 2.69-2.691V8.151a2.694 2.694 0 0 0 1.7-2.5v-.138a2.694 2.694 0 0 0-2.689-2.691zm-6.833-1.546a1.915 1.915 0 0 1 1.877 1.546H53.8a1.915 1.915 0 0 1 1.878-1.546zm6.547 19.586a1.416 1.416 0 0 1-1.415 1.415H50.546a1.416 1.416 0 0 1-1.415-1.415V8.342h13.094zm1.7-15.211a1.416 1.416 0 0 1-1.415 1.415H48.846a1.416 1.416 0 0 1-1.415-1.415v-.138A1.416 1.416 0 0 1 48.846 4.1h13.665a1.416 1.416 0 0 1 1.415 1.415v.138z" class="cls-1" data-name="Path 371" transform="translate(-46.155)"/>
        <path id="Path_372" d="M158.713 258.031a.638.638 0 0 0 .638-.638v-7.184a.638.638 0 1 0-1.276 0v7.184a.638.638 0 0 0 .638.638z" class="cls-1" data-name="Path 372" transform="translate(-152.611 -237.386)"/>
        <path id="Path_373" d="M228.783 255.8c.352 0 .638-.21.638-.47v-5.291c0-.259-.286-.47-.638-.47s-.638.21-.638.47v5.291c0 .262.286.47.638.47z" class="cls-1" data-name="Path 373" transform="translate(-219.26 -235.157)"/>
        <path id="Path_374" d="M298.852 258.031a.638.638 0 0 0 .638-.638v-7.184a.638.638 0 1 0-1.276 0v7.184a.638.638 0 0 0 .638.638z" class="cls-1" data-name="Path 374" transform="translate(-285.908 -237.386)"/>
    </g>
</svg>
