<svg xmlns="http://www.w3.org/2000/svg" width="26.652" height="26.331" viewBox="0 0 26.652 26.331">
    <defs>
        <style>
            .cls-1{fill:#fff;stroke:#fff;stroke-width:.5px}
        </style>
    </defs>
    <g id="edit" transform="translate(.25 -.011)">
        <path id="Path_153" d="M23.962 52.867a.647.647 0 0 0-.647.647v5.741a1.942 1.942 0 0 1-1.94 1.94H3.233a1.942 1.942 0 0 1-1.94-1.94v-16.85a1.942 1.942 0 0 1 1.94-1.94h5.741a.647.647 0 0 0 0-1.293H3.233A3.237 3.237 0 0 0 0 42.405v16.85a3.237 3.237 0 0 0 3.233 3.233h18.142a3.237 3.237 0 0 0 3.233-3.233v-5.742a.647.647 0 0 0-.647-.647zm0 0" class="cls-1" data-name="Path 153" transform="translate(0 -36.395)"/>
        <path id="Path_154" d="M125.547 1.113a2.91 2.91 0 0 0-4.115 0L109.9 12.648a.647.647 0 0 0-.166.285l-1.517 5.477a.646.646 0 0 0 .8.8l5.477-1.517a.646.646 0 0 0 .285-.166l11.527-11.54a2.913 2.913 0 0 0 0-4.115zm-14.242 11.956l9.441-9.441 3.045 3.045-9.441 9.441zm-.608 1.22l2.433 2.433-3.365.932zm14.694-9.217l-.686.686-3.045-3.045.686-.686a1.616 1.616 0 0 1 2.286 0l.759.759a1.619 1.619 0 0 1 0 2.286zm0 0" class="cls-1" data-name="Path 154" transform="translate(-101.195)"/>
    </g>
</svg>
